<?xml version="1.0" encoding="utf-8" standalone="no"?>
<!DOCTYPE svg PUBLIC "-//W3C//DTD SVG 1.1//EN"
  "http://www.w3.org/Graphics/SVG/1.1/DTD/svg11.dtd">
<svg xmlns:xlink="http://www.w3.org/1999/xlink" width="427.12pt" height="303.692746pt" viewBox="0 0 427.12 303.692746" xmlns="http://www.w3.org/2000/svg" version="1.1">
 <metadata>
  <rdf:RDF xmlns:dc="http://purl.org/dc/elements/1.1/" xmlns:cc="http://creativecommons.org/ns#" xmlns:rdf="http://www.w3.org/1999/02/22-rdf-syntax-ns#">
   <cc:Work>
    <dc:type rdf:resource="http://purl.org/dc/dcmitype/StillImage"/>
    <dc:date>2024-12-19T01:29:44.427512</dc:date>
    <dc:format>image/svg+xml</dc:format>
    <dc:creator>
     <cc:Agent>
      <dc:title>Matplotlib v3.8.4, https://matplotlib.org/</dc:title>
     </cc:Agent>
    </dc:creator>
   </cc:Work>
  </rdf:RDF>
 </metadata>
 <defs>
  <style type="text/css">*{stroke-linejoin: round; stroke-linecap: butt}</style>
 </defs>
 <g id="figure_1">
  <g id="patch_1">
   <path d="M 0 303.692746 
L 427.12 303.692746 
L 427.12 0 
L 0 0 
z
" style="fill: #ffffff"/>
  </g>
  <g id="axes_1">
   <g id="patch_2">
    <path d="M 55.3 267.327121 
L 412.42 267.327121 
L 412.42 12.241406 
L 55.3 12.241406 
z
" style="fill: #ffffff"/>
   </g>
   <g id="patch_3">
    <path d="M 55.624551 211.958432 
L 59.597701 211.264707 
L 59.455803 212.210695 
L 84.682157 215.994648 
L 84.587558 216.625307 
L 59.361204 212.841354 
L 59.219306 213.787342 
z
" clip-path="url(#p70d6a35a4d)"/>
   </g>
   <g id="patch_4">
    <path d="M 59.126286 165.292835 
L 62.952571 164.017406 
L 62.952571 164.973978 
L 88.461143 164.973978 
L 88.461143 165.611692 
L 62.952571 165.611692 
L 62.952571 166.568263 
z
" clip-path="url(#p70d6a35a4d)"/>
   </g>
   <g id="patch_5">
    <path d="M 59.126286 114.275692 
L 62.952571 113.000263 
L 62.952571 113.956835 
L 88.461143 113.956835 
L 88.461143 114.594549 
L 62.952571 114.594549 
L 62.952571 115.551121 
z
" clip-path="url(#p70d6a35a4d)"/>
   </g>
   <g id="patch_6">
    <path d="M 55.624551 67.610095 
L 59.219306 65.781184 
L 59.361204 66.727173 
L 84.587558 62.94322 
L 84.682157 63.573879 
L 59.455803 67.357832 
L 59.597701 68.30382 
z
" clip-path="url(#p70d6a35a4d)"/>
   </g>
   <g id="patch_7">
    <path d="M 113.969714 216.309978 
L 117.796 215.034549 
L 117.796 215.991121 
L 143.304571 215.991121 
L 143.304571 216.628835 
L 117.796 216.628835 
L 117.796 217.585406 
z
" clip-path="url(#p70d6a35a4d)"/>
   </g>
   <g id="patch_8">
    <path d="M 113.969714 165.292835 
L 117.796 164.017406 
L 117.796 164.973978 
L 143.304571 164.973978 
L 143.304571 165.611692 
L 117.796 165.611692 
L 117.796 166.568263 
z
" clip-path="url(#p70d6a35a4d)"/>
   </g>
   <g id="patch_9">
    <path d="M 113.969714 114.275692 
L 117.796 113.000263 
L 117.796 113.956835 
L 143.304571 113.956835 
L 143.304571 114.594549 
L 117.796 114.594549 
L 117.796 115.551121 
z
" clip-path="url(#p70d6a35a4d)"/>
   </g>
   <g id="patch_10">
    <path d="M 113.969714 63.258549 
L 117.796 61.983121 
L 117.796 62.939692 
L 143.304571 62.939692 
L 143.304571 63.577406 
L 117.796 63.577406 
L 117.796 64.533978 
z
" clip-path="url(#p70d6a35a4d)"/>
   </g>
   <g id="patch_11">
    <path d="M 175.190286 216.309978 
L 179.016571 215.034549 
L 179.016571 215.991121 
L 204.525143 215.991121 
L 204.525143 216.628835 
L 179.016571 216.628835 
L 179.016571 217.585406 
z
" clip-path="url(#p70d6a35a4d)"/>
   </g>
   <g id="patch_12">
    <path d="M 175.190286 165.292835 
L 179.016571 164.017406 
L 179.016571 164.973978 
L 204.525143 164.973978 
L 204.525143 165.611692 
L 179.016571 165.611692 
L 179.016571 166.568263 
z
" clip-path="url(#p70d6a35a4d)"/>
   </g>
   <g id="patch_13">
    <path d="M 175.190286 114.275692 
L 179.016571 113.000263 
L 179.016571 113.956835 
L 204.525143 113.956835 
L 204.525143 114.594549 
L 179.016571 114.594549 
L 179.016571 115.551121 
z
" clip-path="url(#p70d6a35a4d)"/>
   </g>
   <g id="patch_14">
    <path d="M 175.190286 63.258549 
L 179.016571 61.983121 
L 179.016571 62.939692 
L 204.525143 62.939692 
L 204.525143 63.577406 
L 179.016571 63.577406 
L 179.016571 64.533978 
z
" clip-path="url(#p70d6a35a4d)"/>
   </g>
   <g id="patch_15">
    <path d="M 235.135429 216.309978 
L 238.961714 215.034549 
L 238.961714 215.991121 
L 264.470286 215.991121 
L 264.470286 216.628835 
L 238.961714 216.628835 
L 238.961714 217.585406 
z
" clip-path="url(#p70d6a35a4d)"/>
   </g>
   <g id="patch_16">
    <path d="M 235.135429 165.292835 
L 238.961714 164.017406 
L 238.961714 164.973978 
L 264.470286 164.973978 
L 264.470286 165.611692 
L 238.961714 165.611692 
L 238.961714 166.568263 
z
" clip-path="url(#p70d6a35a4d)"/>
   </g>
   <g id="patch_17">
    <path d="M 235.135429 114.275692 
L 238.961714 113.000263 
L 238.961714 113.956835 
L 264.470286 113.956835 
L 264.470286 114.594549 
L 238.961714 114.594549 
L 238.961714 115.551121 
z
" clip-path="url(#p70d6a35a4d)"/>
   </g>
   <g id="patch_18">
    <path d="M 235.135429 63.258549 
L 238.961714 61.983121 
L 238.961714 62.939692 
L 264.470286 62.939692 
L 264.470286 63.577406 
L 238.961714 63.577406 
L 238.961714 64.533978 
z
" clip-path="url(#p70d6a35a4d)"/>
   </g>
   <g id="patch_19">
    <path d="M 295.080571 216.309978 
L 298.906857 215.034549 
L 298.906857 215.991121 
L 324.415429 215.991121 
L 324.415429 216.628835 
L 298.906857 216.628835 
L 298.906857 217.585406 
z
" clip-path="url(#p70d6a35a4d)"/>
   </g>
   <g id="patch_20">
    <path d="M 295.080571 165.292835 
L 298.906857 164.017406 
L 298.906857 164.973978 
L 324.415429 164.973978 
L 324.415429 165.611692 
L 298.906857 165.611692 
L 298.906857 166.568263 
z
" clip-path="url(#p70d6a35a4d)"/>
   </g>
   <g id="patch_21">
    <path d="M 295.080571 114.275692 
L 298.906857 113.000263 
L 298.906857 113.956835 
L 324.415429 113.956835 
L 324.415429 114.594549 
L 298.906857 114.594549 
L 298.906857 115.551121 
z
" clip-path="url(#p70d6a35a4d)"/>
   </g>
   <g id="patch_22">
    <path d="M 295.080571 63.258549 
L 298.906857 61.983121 
L 298.906857 62.939692 
L 324.415429 62.939692 
L 324.415429 63.577406 
L 298.906857 63.577406 
L 298.906857 64.533978 
z
" clip-path="url(#p70d6a35a4d)"/>
   </g>
   <g id="patch_23">
    <path d="M 357.021015 218.50393 
L 360.741195 216.945906 
L 360.812737 217.899798 
L 386.249867 215.992014 
L 386.297562 216.627942 
L 360.860432 218.535727 
L 360.931974 219.489619 
z
" clip-path="url(#p70d6a35a4d)"/>
   </g>
   <g id="patch_24">
    <path d="M 355.025714 165.292835 
L 358.852 164.017406 
L 358.852 164.973978 
L 384.360571 164.973978 
L 384.360571 165.611692 
L 358.852 165.611692 
L 358.852 166.568263 
z
" clip-path="url(#p70d6a35a4d)"/>
   </g>
   <g id="patch_25">
    <path d="M 355.025714 114.275692 
L 358.852 113.000263 
L 358.852 113.956835 
L 384.360571 113.956835 
L 384.360571 114.594549 
L 358.852 114.594549 
L 358.852 115.551121 
z
" clip-path="url(#p70d6a35a4d)"/>
   </g>
   <g id="patch_26">
    <path d="M 357.021015 61.064597 
L 360.931974 60.078908 
L 360.860432 61.0328 
L 386.297562 62.940585 
L 386.249867 63.576513 
L 360.812737 61.668728 
L 360.741195 62.622621 
z
" clip-path="url(#p70d6a35a4d)"/>
   </g>
   <g id="matplotlib.axis_1">
    <g id="xtick_1">
     <g id="line2d_1">
      <path d="M 80.808571 267.327121 
L 80.808571 12.241406 
" clip-path="url(#p70d6a35a4d)" style="fill: none; stroke: #b0b0b0; stroke-width: 0.8; stroke-linecap: square"/>
     </g>
     <g id="line2d_2">
      <defs>
       <path id="m74a1482235" d="M 0 0 
L 0 3.5 
" style="stroke: #000000; stroke-width: 0.8"/>
      </defs>
      <g>
       <use xlink:href="#m74a1482235" x="80.808571" y="267.327121" style="stroke: #000000; stroke-width: 0.8"/>
      </g>
     </g>
     <g id="text_1">
      <!-- 20 -->
      <g transform="translate(75.808571 281.270871) scale(0.1 -0.1)">
       <defs>
        <path id="TimesNewRomanPSMT-32" d="M 2934 816 
L 2638 0 
L 138 0 
L 138 116 
Q 1241 1122 1691 1759 
Q 2141 2397 2141 2925 
Q 2141 3328 1894 3587 
Q 1647 3847 1303 3847 
Q 991 3847 742 3664 
Q 494 3481 375 3128 
L 259 3128 
Q 338 3706 661 4015 
Q 984 4325 1469 4325 
Q 1984 4325 2329 3994 
Q 2675 3663 2675 3213 
Q 2675 2891 2525 2569 
Q 2294 2063 1775 1497 
Q 997 647 803 472 
L 1909 472 
Q 2247 472 2383 497 
Q 2519 522 2628 598 
Q 2738 675 2819 816 
L 2934 816 
z
" transform="scale(0.015625)"/>
        <path id="TimesNewRomanPSMT-30" d="M 231 2094 
Q 231 2819 450 3342 
Q 669 3866 1031 4122 
Q 1313 4325 1613 4325 
Q 2100 4325 2488 3828 
Q 2972 3213 2972 2159 
Q 2972 1422 2759 906 
Q 2547 391 2217 158 
Q 1888 -75 1581 -75 
Q 975 -75 572 641 
Q 231 1244 231 2094 
z
M 844 2016 
Q 844 1141 1059 588 
Q 1238 122 1591 122 
Q 1759 122 1940 273 
Q 2122 425 2216 781 
Q 2359 1319 2359 2297 
Q 2359 3022 2209 3506 
Q 2097 3866 1919 4016 
Q 1791 4119 1609 4119 
Q 1397 4119 1231 3928 
Q 1006 3669 925 3112 
Q 844 2556 844 2016 
z
" transform="scale(0.015625)"/>
       </defs>
       <use xlink:href="#TimesNewRomanPSMT-32"/>
       <use xlink:href="#TimesNewRomanPSMT-30" x="50"/>
      </g>
     </g>
    </g>
    <g id="xtick_2">
     <g id="line2d_3">
      <path d="M 106.317143 267.327121 
L 106.317143 12.241406 
" clip-path="url(#p70d6a35a4d)" style="fill: none; stroke: #b0b0b0; stroke-width: 0.8; stroke-linecap: square"/>
     </g>
     <g id="line2d_4">
      <g>
       <use xlink:href="#m74a1482235" x="106.317143" y="267.327121" style="stroke: #000000; stroke-width: 0.8"/>
      </g>
     </g>
     <g id="text_2">
      <!-- 40 -->
      <g transform="translate(101.317143 281.270871) scale(0.1 -0.1)">
       <defs>
        <path id="TimesNewRomanPSMT-34" d="M 2978 1563 
L 2978 1119 
L 2409 1119 
L 2409 0 
L 1894 0 
L 1894 1119 
L 100 1119 
L 100 1519 
L 2066 4325 
L 2409 4325 
L 2409 1563 
L 2978 1563 
z
M 1894 1563 
L 1894 3666 
L 406 1563 
L 1894 1563 
z
" transform="scale(0.015625)"/>
       </defs>
       <use xlink:href="#TimesNewRomanPSMT-34"/>
       <use xlink:href="#TimesNewRomanPSMT-30" x="50"/>
      </g>
     </g>
    </g>
    <g id="xtick_3">
     <g id="line2d_5">
      <path d="M 131.825714 267.327121 
L 131.825714 12.241406 
" clip-path="url(#p70d6a35a4d)" style="fill: none; stroke: #b0b0b0; stroke-width: 0.8; stroke-linecap: square"/>
     </g>
     <g id="line2d_6">
      <g>
       <use xlink:href="#m74a1482235" x="131.825714" y="267.327121" style="stroke: #000000; stroke-width: 0.8"/>
      </g>
     </g>
     <g id="text_3">
      <!-- 60 -->
      <g transform="translate(126.825714 281.270871) scale(0.1 -0.1)">
       <defs>
        <path id="TimesNewRomanPSMT-36" d="M 2869 4325 
L 2869 4209 
Q 2456 4169 2195 4045 
Q 1934 3922 1679 3669 
Q 1425 3416 1258 3105 
Q 1091 2794 978 2366 
Q 1428 2675 1881 2675 
Q 2316 2675 2634 2325 
Q 2953 1975 2953 1425 
Q 2953 894 2631 456 
Q 2244 -75 1606 -75 
Q 1172 -75 869 213 
Q 275 772 275 1663 
Q 275 2231 503 2743 
Q 731 3256 1154 3653 
Q 1578 4050 1965 4187 
Q 2353 4325 2688 4325 
L 2869 4325 
z
M 925 2138 
Q 869 1716 869 1456 
Q 869 1156 980 804 
Q 1091 453 1309 247 
Q 1469 100 1697 100 
Q 1969 100 2183 356 
Q 2397 613 2397 1088 
Q 2397 1622 2184 2012 
Q 1972 2403 1581 2403 
Q 1463 2403 1327 2353 
Q 1191 2303 925 2138 
z
" transform="scale(0.015625)"/>
       </defs>
       <use xlink:href="#TimesNewRomanPSMT-36"/>
       <use xlink:href="#TimesNewRomanPSMT-30" x="50"/>
      </g>
     </g>
    </g>
    <g id="xtick_4">
     <g id="line2d_7">
      <path d="M 157.334286 267.327121 
L 157.334286 12.241406 
" clip-path="url(#p70d6a35a4d)" style="fill: none; stroke: #b0b0b0; stroke-width: 0.8; stroke-linecap: square"/>
     </g>
     <g id="line2d_8">
      <g>
       <use xlink:href="#m74a1482235" x="157.334286" y="267.327121" style="stroke: #000000; stroke-width: 0.8"/>
      </g>
     </g>
     <g id="text_4">
      <!-- 80 -->
      <g transform="translate(152.334286 281.270871) scale(0.1 -0.1)">
       <defs>
        <path id="TimesNewRomanPSMT-38" d="M 1228 2134 
Q 725 2547 579 2797 
Q 434 3047 434 3316 
Q 434 3728 753 4026 
Q 1072 4325 1600 4325 
Q 2113 4325 2425 4047 
Q 2738 3769 2738 3413 
Q 2738 3175 2569 2928 
Q 2400 2681 1866 2347 
Q 2416 1922 2594 1678 
Q 2831 1359 2831 1006 
Q 2831 559 2490 242 
Q 2150 -75 1597 -75 
Q 994 -75 656 303 
Q 388 606 388 966 
Q 388 1247 577 1523 
Q 766 1800 1228 2134 
z
M 1719 2469 
Q 2094 2806 2194 3001 
Q 2294 3197 2294 3444 
Q 2294 3772 2109 3958 
Q 1925 4144 1606 4144 
Q 1288 4144 1088 3959 
Q 888 3775 888 3528 
Q 888 3366 970 3203 
Q 1053 3041 1206 2894 
L 1719 2469 
z
M 1375 2016 
Q 1116 1797 991 1539 
Q 866 1281 866 981 
Q 866 578 1086 336 
Q 1306 94 1647 94 
Q 1984 94 2187 284 
Q 2391 475 2391 747 
Q 2391 972 2272 1150 
Q 2050 1481 1375 2016 
z
" transform="scale(0.015625)"/>
       </defs>
       <use xlink:href="#TimesNewRomanPSMT-38"/>
       <use xlink:href="#TimesNewRomanPSMT-30" x="50"/>
      </g>
     </g>
    </g>
    <g id="xtick_5">
     <g id="line2d_9">
      <path d="M 182.842857 267.327121 
L 182.842857 12.241406 
" clip-path="url(#p70d6a35a4d)" style="fill: none; stroke: #b0b0b0; stroke-width: 0.8; stroke-linecap: square"/>
     </g>
     <g id="line2d_10">
      <g>
       <use xlink:href="#m74a1482235" x="182.842857" y="267.327121" style="stroke: #000000; stroke-width: 0.8"/>
      </g>
     </g>
     <g id="text_5">
      <!-- 100 -->
      <g transform="translate(175.342857 281.270871) scale(0.1 -0.1)">
       <defs>
        <path id="TimesNewRomanPSMT-31" d="M 750 3822 
L 1781 4325 
L 1884 4325 
L 1884 747 
Q 1884 391 1914 303 
Q 1944 216 2037 169 
Q 2131 122 2419 116 
L 2419 0 
L 825 0 
L 825 116 
Q 1125 122 1212 167 
Q 1300 213 1334 289 
Q 1369 366 1369 747 
L 1369 3034 
Q 1369 3497 1338 3628 
Q 1316 3728 1258 3775 
Q 1200 3822 1119 3822 
Q 1003 3822 797 3725 
L 750 3822 
z
" transform="scale(0.015625)"/>
       </defs>
       <use xlink:href="#TimesNewRomanPSMT-31"/>
       <use xlink:href="#TimesNewRomanPSMT-30" x="50"/>
       <use xlink:href="#TimesNewRomanPSMT-30" x="100"/>
      </g>
     </g>
    </g>
    <g id="xtick_6">
     <g id="line2d_11">
      <path d="M 208.351429 267.327121 
L 208.351429 12.241406 
" clip-path="url(#p70d6a35a4d)" style="fill: none; stroke: #b0b0b0; stroke-width: 0.8; stroke-linecap: square"/>
     </g>
     <g id="line2d_12">
      <g>
       <use xlink:href="#m74a1482235" x="208.351429" y="267.327121" style="stroke: #000000; stroke-width: 0.8"/>
      </g>
     </g>
     <g id="text_6">
      <!-- 120 -->
      <g transform="translate(200.851429 281.270871) scale(0.1 -0.1)">
       <use xlink:href="#TimesNewRomanPSMT-31"/>
       <use xlink:href="#TimesNewRomanPSMT-32" x="50"/>
       <use xlink:href="#TimesNewRomanPSMT-30" x="100"/>
      </g>
     </g>
    </g>
    <g id="xtick_7">
     <g id="line2d_13">
      <path d="M 233.86 267.327121 
L 233.86 12.241406 
" clip-path="url(#p70d6a35a4d)" style="fill: none; stroke: #b0b0b0; stroke-width: 0.8; stroke-linecap: square"/>
     </g>
     <g id="line2d_14">
      <g>
       <use xlink:href="#m74a1482235" x="233.86" y="267.327121" style="stroke: #000000; stroke-width: 0.8"/>
      </g>
     </g>
     <g id="text_7">
      <!-- 140 -->
      <g transform="translate(226.36 281.270871) scale(0.1 -0.1)">
       <use xlink:href="#TimesNewRomanPSMT-31"/>
       <use xlink:href="#TimesNewRomanPSMT-34" x="50"/>
       <use xlink:href="#TimesNewRomanPSMT-30" x="100"/>
      </g>
     </g>
    </g>
    <g id="xtick_8">
     <g id="line2d_15">
      <path d="M 259.368571 267.327121 
L 259.368571 12.241406 
" clip-path="url(#p70d6a35a4d)" style="fill: none; stroke: #b0b0b0; stroke-width: 0.8; stroke-linecap: square"/>
     </g>
     <g id="line2d_16">
      <g>
       <use xlink:href="#m74a1482235" x="259.368571" y="267.327121" style="stroke: #000000; stroke-width: 0.8"/>
      </g>
     </g>
     <g id="text_8">
      <!-- 160 -->
      <g transform="translate(251.868571 281.270871) scale(0.1 -0.1)">
       <use xlink:href="#TimesNewRomanPSMT-31"/>
       <use xlink:href="#TimesNewRomanPSMT-36" x="50"/>
       <use xlink:href="#TimesNewRomanPSMT-30" x="100"/>
      </g>
     </g>
    </g>
    <g id="xtick_9">
     <g id="line2d_17">
      <path d="M 284.877143 267.327121 
L 284.877143 12.241406 
" clip-path="url(#p70d6a35a4d)" style="fill: none; stroke: #b0b0b0; stroke-width: 0.8; stroke-linecap: square"/>
     </g>
     <g id="line2d_18">
      <g>
       <use xlink:href="#m74a1482235" x="284.877143" y="267.327121" style="stroke: #000000; stroke-width: 0.8"/>
      </g>
     </g>
     <g id="text_9">
      <!-- 180 -->
      <g transform="translate(277.377143 281.270871) scale(0.1 -0.1)">
       <use xlink:href="#TimesNewRomanPSMT-31"/>
       <use xlink:href="#TimesNewRomanPSMT-38" x="50"/>
       <use xlink:href="#TimesNewRomanPSMT-30" x="100"/>
      </g>
     </g>
    </g>
    <g id="xtick_10">
     <g id="line2d_19">
      <path d="M 310.385714 267.327121 
L 310.385714 12.241406 
" clip-path="url(#p70d6a35a4d)" style="fill: none; stroke: #b0b0b0; stroke-width: 0.8; stroke-linecap: square"/>
     </g>
     <g id="line2d_20">
      <g>
       <use xlink:href="#m74a1482235" x="310.385714" y="267.327121" style="stroke: #000000; stroke-width: 0.8"/>
      </g>
     </g>
     <g id="text_10">
      <!-- 200 -->
      <g transform="translate(302.885714 281.270871) scale(0.1 -0.1)">
       <use xlink:href="#TimesNewRomanPSMT-32"/>
       <use xlink:href="#TimesNewRomanPSMT-30" x="50"/>
       <use xlink:href="#TimesNewRomanPSMT-30" x="100"/>
      </g>
     </g>
    </g>
    <g id="xtick_11">
     <g id="line2d_21">
      <path d="M 335.894286 267.327121 
L 335.894286 12.241406 
" clip-path="url(#p70d6a35a4d)" style="fill: none; stroke: #b0b0b0; stroke-width: 0.8; stroke-linecap: square"/>
     </g>
     <g id="line2d_22">
      <g>
       <use xlink:href="#m74a1482235" x="335.894286" y="267.327121" style="stroke: #000000; stroke-width: 0.8"/>
      </g>
     </g>
     <g id="text_11">
      <!-- 220 -->
      <g transform="translate(328.394286 281.270871) scale(0.1 -0.1)">
       <use xlink:href="#TimesNewRomanPSMT-32"/>
       <use xlink:href="#TimesNewRomanPSMT-32" x="50"/>
       <use xlink:href="#TimesNewRomanPSMT-30" x="100"/>
      </g>
     </g>
    </g>
    <g id="xtick_12">
     <g id="line2d_23">
      <path d="M 361.402857 267.327121 
L 361.402857 12.241406 
" clip-path="url(#p70d6a35a4d)" style="fill: none; stroke: #b0b0b0; stroke-width: 0.8; stroke-linecap: square"/>
     </g>
     <g id="line2d_24">
      <g>
       <use xlink:href="#m74a1482235" x="361.402857" y="267.327121" style="stroke: #000000; stroke-width: 0.8"/>
      </g>
     </g>
     <g id="text_12">
      <!-- 240 -->
      <g transform="translate(353.902857 281.270871) scale(0.1 -0.1)">
       <use xlink:href="#TimesNewRomanPSMT-32"/>
       <use xlink:href="#TimesNewRomanPSMT-34" x="50"/>
       <use xlink:href="#TimesNewRomanPSMT-30" x="100"/>
      </g>
     </g>
    </g>
    <g id="xtick_13">
     <g id="line2d_25">
      <path d="M 386.911429 267.327121 
L 386.911429 12.241406 
" clip-path="url(#p70d6a35a4d)" style="fill: none; stroke: #b0b0b0; stroke-width: 0.8; stroke-linecap: square"/>
     </g>
     <g id="line2d_26">
      <g>
       <use xlink:href="#m74a1482235" x="386.911429" y="267.327121" style="stroke: #000000; stroke-width: 0.8"/>
      </g>
     </g>
     <g id="text_13">
      <!-- 260 -->
      <g transform="translate(379.411429 281.270871) scale(0.1 -0.1)">
       <use xlink:href="#TimesNewRomanPSMT-32"/>
       <use xlink:href="#TimesNewRomanPSMT-36" x="50"/>
       <use xlink:href="#TimesNewRomanPSMT-30" x="100"/>
      </g>
     </g>
    </g>
    <g id="xtick_14">
     <g id="line2d_27">
      <path d="M 412.42 267.327121 
L 412.42 12.241406 
" clip-path="url(#p70d6a35a4d)" style="fill: none; stroke: #b0b0b0; stroke-width: 0.8; stroke-linecap: square"/>
     </g>
     <g id="line2d_28">
      <g>
       <use xlink:href="#m74a1482235" x="412.42" y="267.327121" style="stroke: #000000; stroke-width: 0.8"/>
      </g>
     </g>
     <g id="text_14">
      <!-- 280 -->
      <g transform="translate(404.92 281.270871) scale(0.1 -0.1)">
       <use xlink:href="#TimesNewRomanPSMT-32"/>
       <use xlink:href="#TimesNewRomanPSMT-38" x="50"/>
       <use xlink:href="#TimesNewRomanPSMT-30" x="100"/>
      </g>
     </g>
    </g>
    <g id="text_15">
     <!-- $x$, мм -->
     <g transform="translate(390.32 294.353683) scale(0.1 -0.1)">
      <defs>
       <path id="STIXGeneral-Italic-78" d="M 1555 2272 
L 1632 1907 
Q 1971 2426 2179 2624 
Q 2387 2822 2598 2822 
Q 2714 2822 2787 2755 
Q 2861 2688 2861 2585 
Q 2861 2483 2800 2419 
Q 2739 2355 2643 2355 
Q 2586 2355 2490 2409 
Q 2394 2464 2310 2464 
Q 2125 2464 1683 1690 
Q 1683 1606 1734 1402 
L 1939 544 
Q 2003 282 2131 282 
Q 2234 282 2432 538 
Q 2451 563 2476 598 
Q 2502 634 2521 662 
Q 2541 691 2566 717 
L 2662 659 
Q 2387 230 2227 80 
Q 2067 -70 1882 -70 
Q 1728 -70 1645 26 
Q 1562 122 1504 365 
L 1318 1126 
L 755 365 
Q 557 96 432 13 
Q 307 -70 147 -70 
Q 0 -70 -86 0 
Q -173 70 -173 198 
Q -173 294 -112 361 
Q -51 429 45 429 
Q 122 429 250 358 
Q 346 301 416 301 
Q 525 301 742 614 
L 1267 1357 
L 1088 2150 
Q 1024 2432 969 2509 
Q 915 2586 794 2586 
Q 717 2586 544 2541 
L 429 2509 
L 410 2611 
L 480 2637 
Q 992 2822 1229 2822 
Q 1350 2822 1420 2707 
Q 1491 2592 1555 2272 
z
" transform="scale(0.015625)"/>
       <path id="TimesNewRomanPSMT-2c" d="M 344 -1066 
L 344 -928 
Q 666 -822 842 -598 
Q 1019 -375 1019 -125 
Q 1019 -66 991 -25 
Q 969 3 947 3 
Q 913 3 797 -59 
Q 741 -88 678 -88 
Q 525 -88 434 3 
Q 344 94 344 253 
Q 344 406 461 515 
Q 578 625 747 625 
Q 953 625 1114 445 
Q 1275 266 1275 -31 
Q 1275 -353 1051 -629 
Q 828 -906 344 -1066 
z
" transform="scale(0.015625)"/>
       <path id="TimesNewRomanPSMT-20" transform="scale(0.015625)"/>
       <path id="TimesNewRomanPSMT-43c" d="M 2050 747 
L 2944 2863 
L 3909 2863 
L 3909 2744 
Q 3697 2744 3626 2701 
Q 3556 2659 3515 2596 
Q 3475 2534 3475 2191 
L 3475 672 
Q 3475 375 3504 289 
Q 3534 203 3626 159 
Q 3719 116 3909 116 
L 3909 0 
L 2525 0 
L 2525 116 
Q 2781 116 2868 211 
Q 2956 306 2956 672 
L 2956 2394 
L 1944 0 
L 1834 0 
L 803 2394 
L 803 672 
Q 803 375 834 289 
Q 866 203 956 159 
Q 1047 116 1238 116 
L 1238 0 
L 144 0 
L 144 116 
Q 422 116 500 217 
Q 578 319 578 672 
L 578 2191 
Q 578 2525 543 2586 
Q 509 2647 437 2695 
Q 366 2744 144 2744 
L 144 2863 
L 1150 2863 
L 2050 747 
z
" transform="scale(0.015625)"/>
      </defs>
      <use xlink:href="#STIXGeneral-Italic-78" transform="translate(0 0.265625)"/>
      <use xlink:href="#TimesNewRomanPSMT-2c" transform="translate(44.399994 0.265625)"/>
      <use xlink:href="#TimesNewRomanPSMT-20" transform="translate(69.399994 0.265625)"/>
      <use xlink:href="#TimesNewRomanPSMT-43c" transform="translate(94.399994 0.265625)"/>
      <use xlink:href="#TimesNewRomanPSMT-43c" transform="translate(157.681244 0.265625)"/>
     </g>
    </g>
   </g>
   <g id="matplotlib.axis_2">
    <g id="ytick_1">
     <g id="line2d_29">
      <path d="M 55.3 241.818549 
L 412.42 241.818549 
" clip-path="url(#p70d6a35a4d)" style="fill: none; stroke: #b0b0b0; stroke-width: 0.8; stroke-linecap: square"/>
     </g>
     <g id="line2d_30">
      <defs>
       <path id="m6983870277" d="M 0 0 
L -3.5 0 
" style="stroke: #000000; stroke-width: 0.8"/>
      </defs>
      <g>
       <use xlink:href="#m6983870277" x="55.3" y="241.818549" style="stroke: #000000; stroke-width: 0.8"/>
      </g>
     </g>
     <g id="text_16">
      <!-- 20 -->
      <g transform="translate(38.3 245.290424) scale(0.1 -0.1)">
       <use xlink:href="#TimesNewRomanPSMT-32"/>
       <use xlink:href="#TimesNewRomanPSMT-30" x="50"/>
      </g>
     </g>
    </g>
    <g id="ytick_2">
     <g id="line2d_31">
      <path d="M 55.3 190.801406 
L 412.42 190.801406 
" clip-path="url(#p70d6a35a4d)" style="fill: none; stroke: #b0b0b0; stroke-width: 0.8; stroke-linecap: square"/>
     </g>
     <g id="line2d_32">
      <g>
       <use xlink:href="#m6983870277" x="55.3" y="190.801406" style="stroke: #000000; stroke-width: 0.8"/>
      </g>
     </g>
     <g id="text_17">
      <!-- 60 -->
      <g transform="translate(38.3 194.273281) scale(0.1 -0.1)">
       <use xlink:href="#TimesNewRomanPSMT-36"/>
       <use xlink:href="#TimesNewRomanPSMT-30" x="50"/>
      </g>
     </g>
    </g>
    <g id="ytick_3">
     <g id="line2d_33">
      <path d="M 55.3 139.784263 
L 412.42 139.784263 
" clip-path="url(#p70d6a35a4d)" style="fill: none; stroke: #b0b0b0; stroke-width: 0.8; stroke-linecap: square"/>
     </g>
     <g id="line2d_34">
      <g>
       <use xlink:href="#m6983870277" x="55.3" y="139.784263" style="stroke: #000000; stroke-width: 0.8"/>
      </g>
     </g>
     <g id="text_18">
      <!-- 100 -->
      <g transform="translate(33.3 143.256138) scale(0.1 -0.1)">
       <use xlink:href="#TimesNewRomanPSMT-31"/>
       <use xlink:href="#TimesNewRomanPSMT-30" x="50"/>
       <use xlink:href="#TimesNewRomanPSMT-30" x="100"/>
      </g>
     </g>
    </g>
    <g id="ytick_4">
     <g id="line2d_35">
      <path d="M 55.3 88.767121 
L 412.42 88.767121 
" clip-path="url(#p70d6a35a4d)" style="fill: none; stroke: #b0b0b0; stroke-width: 0.8; stroke-linecap: square"/>
     </g>
     <g id="line2d_36">
      <g>
       <use xlink:href="#m6983870277" x="55.3" y="88.767121" style="stroke: #000000; stroke-width: 0.8"/>
      </g>
     </g>
     <g id="text_19">
      <!-- 140 -->
      <g transform="translate(33.3 92.238996) scale(0.1 -0.1)">
       <use xlink:href="#TimesNewRomanPSMT-31"/>
       <use xlink:href="#TimesNewRomanPSMT-34" x="50"/>
       <use xlink:href="#TimesNewRomanPSMT-30" x="100"/>
      </g>
     </g>
    </g>
    <g id="ytick_5">
     <g id="line2d_37">
      <path d="M 55.3 37.749978 
L 412.42 37.749978 
" clip-path="url(#p70d6a35a4d)" style="fill: none; stroke: #b0b0b0; stroke-width: 0.8; stroke-linecap: square"/>
     </g>
     <g id="line2d_38">
      <g>
       <use xlink:href="#m6983870277" x="55.3" y="37.749978" style="stroke: #000000; stroke-width: 0.8"/>
      </g>
     </g>
     <g id="text_20">
      <!-- 180 -->
      <g transform="translate(33.3 41.221853) scale(0.1 -0.1)">
       <use xlink:href="#TimesNewRomanPSMT-31"/>
       <use xlink:href="#TimesNewRomanPSMT-38" x="50"/>
       <use xlink:href="#TimesNewRomanPSMT-30" x="100"/>
      </g>
     </g>
    </g>
    <g id="text_21">
     <!-- $y$, мм -->
     <g transform="translate(7.2 10.102344) scale(0.1 -0.1)">
      <defs>
       <path id="STIXGeneral-Italic-79" d="M 1555 1190 
L 1690 486 
Q 2118 1190 2294 1558 
Q 2470 1926 2470 2131 
Q 2470 2234 2304 2336 
Q 2138 2445 2138 2586 
Q 2138 2688 2211 2755 
Q 2285 2822 2394 2822 
Q 2534 2822 2630 2720 
Q 2726 2618 2726 2470 
Q 2726 1914 1888 518 
Q 1389 -307 918 -812 
Q 448 -1318 173 -1318 
Q 26 -1318 -64 -1241 
Q -154 -1165 -154 -1043 
Q -154 -934 -80 -860 
Q -6 -787 96 -787 
Q 218 -787 314 -876 
Q 410 -966 486 -966 
Q 602 -966 794 -755 
Q 877 -672 1040 -457 
Q 1203 -243 1248 -173 
Q 1312 -45 1312 51 
Q 1312 243 1113 1046 
Q 915 1850 787 2176 
Q 698 2413 592 2499 
Q 486 2586 294 2586 
Q 192 2586 96 2560 
L 96 2669 
Q 237 2694 301 2707 
Q 563 2758 986 2822 
L 1011 2822 
Q 1082 2822 1277 2227 
Q 1472 1632 1555 1190 
z
" transform="scale(0.015625)"/>
      </defs>
      <use xlink:href="#STIXGeneral-Italic-79" transform="translate(0 0.265625)"/>
      <use xlink:href="#TimesNewRomanPSMT-2c" transform="translate(44.399994 0.265625)"/>
      <use xlink:href="#TimesNewRomanPSMT-20" transform="translate(69.399994 0.265625)"/>
      <use xlink:href="#TimesNewRomanPSMT-43c" transform="translate(94.399994 0.265625)"/>
      <use xlink:href="#TimesNewRomanPSMT-43c" transform="translate(157.681244 0.265625)"/>
     </g>
    </g>
   </g>
   <g id="line2d_39">
    <path d="M 80.808571 241.818549 
L 88.461143 190.801406 
L 88.461143 139.784263 
L 88.461143 88.767121 
L 80.808571 37.749978 
" clip-path="url(#p70d6a35a4d)" style="fill: none; stroke-dasharray: 2.775,1.2; stroke-dashoffset: 0; stroke: #000000; stroke-width: 0.75"/>
    <defs>
     <path id="m343b3e6d7f" d="M 0 1 
C 0.265203 1 0.51958 0.894634 0.707107 0.707107 
C 0.894634 0.51958 1 0.265203 1 0 
C 1 -0.265203 0.894634 -0.51958 0.707107 -0.707107 
C 0.51958 -0.894634 0.265203 -1 0 -1 
C -0.265203 -1 -0.51958 -0.894634 -0.707107 -0.707107 
C -0.894634 -0.51958 -1 -0.265203 -1 0 
C -1 0.265203 -0.894634 0.51958 -0.707107 0.707107 
C -0.51958 0.894634 -0.265203 1 0 1 
z
" style="stroke: #000000"/>
    </defs>
    <g clip-path="url(#p70d6a35a4d)">
     <use xlink:href="#m343b3e6d7f" x="80.808571" y="241.818549" style="stroke: #000000"/>
     <use xlink:href="#m343b3e6d7f" x="88.461143" y="190.801406" style="stroke: #000000"/>
     <use xlink:href="#m343b3e6d7f" x="88.461143" y="139.784263" style="stroke: #000000"/>
     <use xlink:href="#m343b3e6d7f" x="88.461143" y="88.767121" style="stroke: #000000"/>
     <use xlink:href="#m343b3e6d7f" x="80.808571" y="37.749978" style="stroke: #000000"/>
    </g>
   </g>
   <g id="line2d_40">
    <path d="M 143.304571 241.818549 
L 143.304571 190.801406 
L 143.304571 139.784263 
L 143.304571 88.767121 
L 143.304571 37.749978 
" clip-path="url(#p70d6a35a4d)" style="fill: none; stroke-dasharray: 2.775,1.2; stroke-dashoffset: 0; stroke: #000000; stroke-width: 0.75"/>
    <g clip-path="url(#p70d6a35a4d)">
     <use xlink:href="#m343b3e6d7f" x="143.304571" y="241.818549" style="stroke: #000000"/>
     <use xlink:href="#m343b3e6d7f" x="143.304571" y="190.801406" style="stroke: #000000"/>
     <use xlink:href="#m343b3e6d7f" x="143.304571" y="139.784263" style="stroke: #000000"/>
     <use xlink:href="#m343b3e6d7f" x="143.304571" y="88.767121" style="stroke: #000000"/>
     <use xlink:href="#m343b3e6d7f" x="143.304571" y="37.749978" style="stroke: #000000"/>
    </g>
   </g>
   <g id="line2d_41">
    <path d="M 204.525143 241.818549 
L 204.525143 190.801406 
L 204.525143 139.784263 
L 204.525143 88.767121 
L 204.525143 37.749978 
" clip-path="url(#p70d6a35a4d)" style="fill: none; stroke-dasharray: 2.775,1.2; stroke-dashoffset: 0; stroke: #000000; stroke-width: 0.75"/>
    <g clip-path="url(#p70d6a35a4d)">
     <use xlink:href="#m343b3e6d7f" x="204.525143" y="241.818549" style="stroke: #000000"/>
     <use xlink:href="#m343b3e6d7f" x="204.525143" y="190.801406" style="stroke: #000000"/>
     <use xlink:href="#m343b3e6d7f" x="204.525143" y="139.784263" style="stroke: #000000"/>
     <use xlink:href="#m343b3e6d7f" x="204.525143" y="88.767121" style="stroke: #000000"/>
     <use xlink:href="#m343b3e6d7f" x="204.525143" y="37.749978" style="stroke: #000000"/>
    </g>
   </g>
   <g id="line2d_42">
    <path d="M 264.470286 241.818549 
L 264.470286 190.801406 
L 264.470286 139.784263 
L 264.470286 88.767121 
L 264.470286 37.749978 
" clip-path="url(#p70d6a35a4d)" style="fill: none; stroke-dasharray: 2.775,1.2; stroke-dashoffset: 0; stroke: #000000; stroke-width: 0.75"/>
    <g clip-path="url(#p70d6a35a4d)">
     <use xlink:href="#m343b3e6d7f" x="264.470286" y="241.818549" style="stroke: #000000"/>
     <use xlink:href="#m343b3e6d7f" x="264.470286" y="190.801406" style="stroke: #000000"/>
     <use xlink:href="#m343b3e6d7f" x="264.470286" y="139.784263" style="stroke: #000000"/>
     <use xlink:href="#m343b3e6d7f" x="264.470286" y="88.767121" style="stroke: #000000"/>
     <use xlink:href="#m343b3e6d7f" x="264.470286" y="37.749978" style="stroke: #000000"/>
    </g>
   </g>
   <g id="line2d_43">
    <path d="M 324.415429 241.818549 
L 324.415429 190.801406 
L 324.415429 139.784263 
L 324.415429 88.767121 
L 324.415429 37.749978 
" clip-path="url(#p70d6a35a4d)" style="fill: none; stroke-dasharray: 2.775,1.2; stroke-dashoffset: 0; stroke: #000000; stroke-width: 0.75"/>
    <g clip-path="url(#p70d6a35a4d)">
     <use xlink:href="#m343b3e6d7f" x="324.415429" y="241.818549" style="stroke: #000000"/>
     <use xlink:href="#m343b3e6d7f" x="324.415429" y="190.801406" style="stroke: #000000"/>
     <use xlink:href="#m343b3e6d7f" x="324.415429" y="139.784263" style="stroke: #000000"/>
     <use xlink:href="#m343b3e6d7f" x="324.415429" y="88.767121" style="stroke: #000000"/>
     <use xlink:href="#m343b3e6d7f" x="324.415429" y="37.749978" style="stroke: #000000"/>
    </g>
   </g>
   <g id="line2d_44">
    <path d="M 388.186857 241.818549 
L 384.360571 190.801406 
L 384.360571 139.784263 
L 384.360571 88.767121 
L 388.186857 37.749978 
" clip-path="url(#p70d6a35a4d)" style="fill: none; stroke-dasharray: 2.775,1.2; stroke-dashoffset: 0; stroke: #000000; stroke-width: 0.75"/>
    <g clip-path="url(#p70d6a35a4d)">
     <use xlink:href="#m343b3e6d7f" x="388.186857" y="241.818549" style="stroke: #000000"/>
     <use xlink:href="#m343b3e6d7f" x="384.360571" y="190.801406" style="stroke: #000000"/>
     <use xlink:href="#m343b3e6d7f" x="384.360571" y="139.784263" style="stroke: #000000"/>
     <use xlink:href="#m343b3e6d7f" x="384.360571" y="88.767121" style="stroke: #000000"/>
     <use xlink:href="#m343b3e6d7f" x="388.186857" y="37.749978" style="stroke: #000000"/>
    </g>
   </g>
   <g id="patch_27">
    <path d="M 55.3 267.327121 
L 55.3 12.241406 
" style="fill: none; stroke: #000000; stroke-width: 0.8; stroke-linejoin: miter; stroke-linecap: square"/>
   </g>
   <g id="patch_28">
    <path d="M 412.42 267.327121 
L 412.42 12.241406 
" style="fill: none; stroke: #000000; stroke-width: 0.8; stroke-linejoin: miter; stroke-linecap: square"/>
   </g>
   <g id="patch_29">
    <path d="M 55.3 267.327121 
L 412.42 267.327121 
" style="fill: none; stroke: #000000; stroke-width: 0.8; stroke-linejoin: miter; stroke-linecap: square"/>
   </g>
   <g id="patch_30">
    <path d="M 55.3 12.241406 
L 412.42 12.241406 
" style="fill: none; stroke: #000000; stroke-width: 0.8; stroke-linejoin: miter; stroke-linecap: square"/>
   </g>
   <g id="text_22">
    <!-- $\varphi=2$В -->
    <g transform="translate(65.808571 253.818549) scale(0.1 -0.1)">
     <defs>
      <path id="STIXGeneral-Italic-3c6" d="M 1402 64 
L 1702 1133 
Q 1792 1459 1894 1712 
Q 1997 1965 2147 2221 
Q 2298 2477 2509 2617 
Q 2720 2758 2970 2758 
Q 3776 2758 3776 1946 
Q 3776 1606 3625 1225 
Q 3475 845 3148 496 
Q 2822 147 2394 6 
Q 2144 -70 1850 -70 
L 1510 -1312 
L 1018 -1312 
L 1363 -70 
Q 832 -70 646 0 
Q 173 186 173 813 
Q 173 1306 489 1827 
Q 806 2349 1274 2618 
Q 1638 2822 1907 2822 
L 1907 2720 
Q 1581 2637 1299 2281 
Q 1018 1926 864 1481 
Q 710 1037 710 640 
Q 710 320 889 192 
Q 1069 64 1402 64 
z
M 2298 1594 
L 1888 64 
Q 2150 64 2330 160 
Q 2688 352 2963 969 
Q 3238 1587 3238 2099 
Q 3238 2330 3193 2451 
Q 3149 2573 3097 2598 
Q 3046 2624 2963 2624 
Q 2752 2624 2595 2365 
Q 2438 2106 2298 1594 
z
" transform="scale(0.015625)"/>
      <path id="STIXGeneral-Regular-3d" d="M 4077 2048 
L 307 2048 
L 307 2470 
L 4077 2470 
L 4077 2048 
z
M 4077 768 
L 307 768 
L 307 1190 
L 4077 1190 
L 4077 768 
z
" transform="scale(0.015625)"/>
      <path id="STIXGeneral-Regular-32" d="M 3034 877 
L 2688 0 
L 186 0 
L 186 77 
L 1325 1286 
Q 1773 1754 1965 2144 
Q 2157 2534 2157 2950 
Q 2157 3379 1920 3616 
Q 1683 3853 1267 3853 
Q 922 3853 720 3673 
Q 518 3494 326 3021 
L 192 3053 
Q 301 3648 630 3987 
Q 960 4326 1523 4326 
Q 2054 4326 2380 4006 
Q 2707 3686 2707 3200 
Q 2707 2477 1888 1613 
L 832 486 
L 2330 486 
Q 2541 486 2665 569 
Q 2790 653 2944 915 
L 3034 877 
z
" transform="scale(0.015625)"/>
      <path id="TimesNewRomanPSMT-412" d="M 2956 2163 
Q 3397 2069 3616 1863 
Q 3919 1575 3919 1159 
Q 3919 844 3719 555 
Q 3519 266 3170 133 
Q 2822 0 2106 0 
L 106 0 
L 106 116 
L 266 116 
Q 531 116 647 284 
Q 719 394 719 750 
L 719 3488 
Q 719 3881 628 3984 
Q 506 4122 266 4122 
L 106 4122 
L 106 4238 
L 1938 4238 
Q 2450 4238 2759 4163 
Q 3228 4050 3475 3764 
Q 3722 3478 3722 3106 
Q 3722 2788 3528 2536 
Q 3334 2284 2956 2163 
z
M 1319 2331 
Q 1434 2309 1582 2298 
Q 1731 2288 1909 2288 
Q 2366 2288 2595 2386 
Q 2825 2484 2947 2687 
Q 3069 2891 3069 3131 
Q 3069 3503 2766 3765 
Q 2463 4028 1881 4028 
Q 1569 4028 1319 3959 
L 1319 2331 
z
M 1319 306 
Q 1681 222 2034 222 
Q 2600 222 2897 476 
Q 3194 731 3194 1106 
Q 3194 1353 3059 1581 
Q 2925 1809 2622 1940 
Q 2319 2072 1872 2072 
Q 1678 2072 1540 2065 
Q 1403 2059 1319 2044 
L 1319 306 
z
" transform="scale(0.015625)"/>
     </defs>
     <use xlink:href="#STIXGeneral-Italic-3c6" transform="translate(0 0.40625)"/>
     <use xlink:href="#STIXGeneral-Regular-3d" transform="translate(76.639993 0.40625)"/>
     <use xlink:href="#STIXGeneral-Regular-32" transform="translate(159.579974 0.40625)"/>
     <use xlink:href="#TimesNewRomanPSMT-412" transform="translate(209.579959 0.40625)"/>
    </g>
   </g>
   <g id="text_23">
    <!-- $\varphi=3$В -->
    <g transform="translate(128.304571 258.818549) scale(0.1 -0.1)">
     <defs>
      <path id="STIXGeneral-Regular-33" d="M 390 3264 
L 288 3290 
Q 435 3770 748 4048 
Q 1062 4326 1542 4326 
Q 1990 4326 2265 4083 
Q 2541 3840 2541 3450 
Q 2541 2925 1946 2566 
Q 2298 2413 2477 2227 
Q 2758 1914 2758 1402 
Q 2758 890 2464 506 
Q 2246 211 1840 60 
Q 1434 -90 979 -90 
Q 262 -90 262 275 
Q 262 378 339 442 
Q 416 506 525 506 
Q 685 506 915 339 
Q 1197 141 1466 141 
Q 1818 141 2058 425 
Q 2298 710 2298 1120 
Q 2298 1856 1632 2048 
Q 1434 2112 979 2112 
L 979 2202 
Q 1338 2323 1517 2432 
Q 2035 2726 2035 3290 
Q 2035 3610 1852 3776 
Q 1670 3942 1344 3942 
Q 768 3942 390 3264 
z
" transform="scale(0.015625)"/>
     </defs>
     <use xlink:href="#STIXGeneral-Italic-3c6" transform="translate(0 0.40625)"/>
     <use xlink:href="#STIXGeneral-Regular-3d" transform="translate(76.639993 0.40625)"/>
     <use xlink:href="#STIXGeneral-Regular-33" transform="translate(159.579974 0.40625)"/>
     <use xlink:href="#TimesNewRomanPSMT-412" transform="translate(209.579959 0.40625)"/>
    </g>
   </g>
   <g id="text_24">
    <!-- $\varphi=4$В -->
    <g transform="translate(189.525143 253.818549) scale(0.1 -0.1)">
     <defs>
      <path id="STIXGeneral-Regular-34" d="M 3027 1069 
L 2368 1069 
L 2368 0 
L 1869 0 
L 1869 1069 
L 77 1069 
L 77 1478 
L 2086 4326 
L 2368 4326 
L 2368 1478 
L 3027 1478 
L 3027 1069 
z
M 1869 1478 
L 1869 3674 
L 333 1478 
L 1869 1478 
z
" transform="scale(0.015625)"/>
     </defs>
     <use xlink:href="#STIXGeneral-Italic-3c6" transform="translate(0 0.40625)"/>
     <use xlink:href="#STIXGeneral-Regular-3d" transform="translate(76.639993 0.40625)"/>
     <use xlink:href="#STIXGeneral-Regular-34" transform="translate(159.579974 0.40625)"/>
     <use xlink:href="#TimesNewRomanPSMT-412" transform="translate(209.579959 0.40625)"/>
    </g>
   </g>
   <g id="text_25">
    <!-- $\varphi=5$В -->
    <g transform="translate(249.470286 258.818549) scale(0.1 -0.1)">
     <defs>
      <path id="STIXGeneral-Regular-35" d="M 2803 4358 
L 2573 3814 
Q 2534 3731 2400 3731 
L 1158 3731 
L 902 3187 
Q 1606 3053 1920 2896 
Q 2234 2739 2502 2368 
Q 2726 2061 2726 1555 
Q 2726 1094 2576 780 
Q 2426 467 2099 224 
Q 1664 -90 1011 -90 
Q 646 -90 422 19 
Q 198 128 198 307 
Q 198 550 486 550 
Q 717 550 960 352 
Q 1210 147 1414 147 
Q 1747 147 2012 480 
Q 2278 813 2278 1229 
Q 2278 1843 1850 2189 
Q 1293 2637 486 2637 
Q 410 2637 410 2688 
L 416 2720 
L 1114 4237 
L 2438 4237 
Q 2547 4237 2608 4269 
Q 2669 4301 2746 4403 
L 2803 4358 
z
" transform="scale(0.015625)"/>
     </defs>
     <use xlink:href="#STIXGeneral-Italic-3c6" transform="translate(0 0.203125)"/>
     <use xlink:href="#STIXGeneral-Regular-3d" transform="translate(76.639993 0.203125)"/>
     <use xlink:href="#STIXGeneral-Regular-35" transform="translate(159.579974 0.203125)"/>
     <use xlink:href="#TimesNewRomanPSMT-412" transform="translate(209.579959 0.203125)"/>
    </g>
   </g>
   <g id="text_26">
    <!-- $\varphi=6$В -->
    <g transform="translate(309.415429 253.818549) scale(0.1 -0.1)">
     <defs>
      <path id="STIXGeneral-Regular-36" d="M 2854 4378 
L 2867 4275 
Q 2112 4154 1606 3664 
Q 1101 3174 973 2451 
Q 1344 2739 1786 2739 
Q 2349 2739 2672 2380 
Q 2995 2022 2995 1402 
Q 2995 774 2669 378 
Q 2291 -90 1651 -90 
Q 870 -90 518 557 
Q 218 1107 218 1786 
Q 218 2835 915 3552 
Q 1312 3962 1731 4131 
Q 2150 4301 2854 4378 
z
M 2419 1203 
Q 2419 2445 1555 2445 
Q 1235 2445 1024 2275 
Q 813 2106 813 1702 
Q 813 954 1046 522 
Q 1280 90 1722 90 
Q 2061 90 2240 394 
Q 2419 698 2419 1203 
z
" transform="scale(0.015625)"/>
     </defs>
     <use xlink:href="#STIXGeneral-Italic-3c6" transform="translate(0 0.59375)"/>
     <use xlink:href="#STIXGeneral-Regular-3d" transform="translate(76.639993 0.59375)"/>
     <use xlink:href="#STIXGeneral-Regular-36" transform="translate(159.579974 0.59375)"/>
     <use xlink:href="#TimesNewRomanPSMT-412" transform="translate(209.579959 0.59375)"/>
    </g>
   </g>
   <g id="text_27">
    <!-- $\varphi=7$В -->
    <g transform="translate(373.186857 258.818549) scale(0.1 -0.1)">
     <defs>
      <path id="STIXGeneral-Regular-37" d="M 2874 4134 
L 1517 -51 
L 1101 -51 
L 2368 3763 
L 992 3763 
Q 717 3763 582 3667 
Q 448 3571 243 3238 
L 128 3296 
L 512 4237 
L 2874 4237 
L 2874 4134 
z
" transform="scale(0.015625)"/>
     </defs>
     <use xlink:href="#STIXGeneral-Italic-3c6" transform="translate(0 0.78125)"/>
     <use xlink:href="#STIXGeneral-Regular-3d" transform="translate(76.639993 0.78125)"/>
     <use xlink:href="#STIXGeneral-Regular-37" transform="translate(159.579974 0.78125)"/>
     <use xlink:href="#TimesNewRomanPSMT-412" transform="translate(209.579959 0.78125)"/>
    </g>
   </g>
  </g>
 </g>
 <defs>
  <clipPath id="p70d6a35a4d">
   <rect x="55.3" y="12.241406" width="357.12" height="255.085714"/>
  </clipPath>
 </defs>
</svg>
