<?xml version="1.0" encoding="utf-8" standalone="no"?>
<!DOCTYPE svg PUBLIC "-//W3C//DTD SVG 1.1//EN"
  "http://www.w3.org/Graphics/SVG/1.1/DTD/svg11.dtd">
<svg xmlns:xlink="http://www.w3.org/1999/xlink" width="419.62pt" height="301.692469pt" viewBox="0 0 419.62 301.692469" xmlns="http://www.w3.org/2000/svg" version="1.1">
 <metadata>
  <rdf:RDF xmlns:dc="http://purl.org/dc/elements/1.1/" xmlns:cc="http://creativecommons.org/ns#" xmlns:rdf="http://www.w3.org/1999/02/22-rdf-syntax-ns#">
   <cc:Work>
    <dc:type rdf:resource="http://purl.org/dc/dcmitype/StillImage"/>
    <dc:date>2024-12-19T01:29:45.894239</dc:date>
    <dc:format>image/svg+xml</dc:format>
    <dc:creator>
     <cc:Agent>
      <dc:title>Matplotlib v3.8.4, https://matplotlib.org/</dc:title>
     </cc:Agent>
    </dc:creator>
   </cc:Work>
  </rdf:RDF>
 </metadata>
 <defs>
  <style type="text/css">*{stroke-linejoin: round; stroke-linecap: butt}</style>
 </defs>
 <g id="figure_1">
  <g id="patch_1">
   <path d="M 0 301.692469 
L 419.62 301.692469 
L 419.62 0 
L 0 0 
z
" style="fill: #ffffff"/>
  </g>
  <g id="axes_1">
   <g id="patch_2">
    <path d="M 55.3 250.321406 
L 412.42 250.321406 
L 412.42 12.241406 
L 55.3 12.241406 
z
" style="fill: #ffffff"/>
   </g>
   <g id="patch_3">
    <path d="M 221.956 196.753406 
C 239.319377 196.753406 255.973933 189.854863 268.251695 177.577101 
C 280.529457 165.29934 287.428 148.644784 287.428 131.281406 
C 287.428 113.918029 280.529457 97.263473 268.251695 84.985711 
C 255.973933 72.707949 239.319377 65.809406 221.956 65.809406 
C 204.592623 65.809406 187.938067 72.707949 175.660305 84.985711 
C 163.382543 97.263473 156.484 113.918029 156.484 131.281406 
C 156.484 148.644784 163.382543 165.29934 175.660305 177.577101 
C 187.938067 189.854863 204.592623 196.753406 221.956 196.753406 
L 221.956 196.753406 
z
" clip-path="url(#pf2e6346080)" style="fill: none; stroke: #808080; stroke-width: 10; stroke-linejoin: miter"/>
   </g>
   <g id="matplotlib.axis_1">
    <g id="xtick_1">
     <g id="line2d_1">
      <path d="M 79.108 250.321406 
L 79.108 12.241406 
" clip-path="url(#pf2e6346080)" style="fill: none; stroke: #b0b0b0; stroke-width: 0.8; stroke-linecap: square"/>
     </g>
     <g id="line2d_2">
      <defs>
       <path id="mf0ddbfbb9c" d="M 0 0 
L 0 3.5 
" style="stroke: #000000; stroke-width: 0.8"/>
      </defs>
      <g>
       <use xlink:href="#mf0ddbfbb9c" x="79.108" y="250.321406" style="stroke: #000000; stroke-width: 0.8"/>
      </g>
     </g>
     <g id="text_1">
      <!-- 20 -->
      <g transform="translate(74.108 264.265156) scale(0.1 -0.1)">
       <defs>
        <path id="TimesNewRomanPSMT-32" d="M 2934 816 
L 2638 0 
L 138 0 
L 138 116 
Q 1241 1122 1691 1759 
Q 2141 2397 2141 2925 
Q 2141 3328 1894 3587 
Q 1647 3847 1303 3847 
Q 991 3847 742 3664 
Q 494 3481 375 3128 
L 259 3128 
Q 338 3706 661 4015 
Q 984 4325 1469 4325 
Q 1984 4325 2329 3994 
Q 2675 3663 2675 3213 
Q 2675 2891 2525 2569 
Q 2294 2063 1775 1497 
Q 997 647 803 472 
L 1909 472 
Q 2247 472 2383 497 
Q 2519 522 2628 598 
Q 2738 675 2819 816 
L 2934 816 
z
" transform="scale(0.015625)"/>
        <path id="TimesNewRomanPSMT-30" d="M 231 2094 
Q 231 2819 450 3342 
Q 669 3866 1031 4122 
Q 1313 4325 1613 4325 
Q 2100 4325 2488 3828 
Q 2972 3213 2972 2159 
Q 2972 1422 2759 906 
Q 2547 391 2217 158 
Q 1888 -75 1581 -75 
Q 975 -75 572 641 
Q 231 1244 231 2094 
z
M 844 2016 
Q 844 1141 1059 588 
Q 1238 122 1591 122 
Q 1759 122 1940 273 
Q 2122 425 2216 781 
Q 2359 1319 2359 2297 
Q 2359 3022 2209 3506 
Q 2097 3866 1919 4016 
Q 1791 4119 1609 4119 
Q 1397 4119 1231 3928 
Q 1006 3669 925 3112 
Q 844 2556 844 2016 
z
" transform="scale(0.015625)"/>
       </defs>
       <use xlink:href="#TimesNewRomanPSMT-32"/>
       <use xlink:href="#TimesNewRomanPSMT-30" x="50"/>
      </g>
     </g>
    </g>
    <g id="xtick_2">
     <g id="line2d_3">
      <path d="M 102.916 250.321406 
L 102.916 12.241406 
" clip-path="url(#pf2e6346080)" style="fill: none; stroke: #b0b0b0; stroke-width: 0.8; stroke-linecap: square"/>
     </g>
     <g id="line2d_4">
      <g>
       <use xlink:href="#mf0ddbfbb9c" x="102.916" y="250.321406" style="stroke: #000000; stroke-width: 0.8"/>
      </g>
     </g>
     <g id="text_2">
      <!-- 40 -->
      <g transform="translate(97.916 264.265156) scale(0.1 -0.1)">
       <defs>
        <path id="TimesNewRomanPSMT-34" d="M 2978 1563 
L 2978 1119 
L 2409 1119 
L 2409 0 
L 1894 0 
L 1894 1119 
L 100 1119 
L 100 1519 
L 2066 4325 
L 2409 4325 
L 2409 1563 
L 2978 1563 
z
M 1894 1563 
L 1894 3666 
L 406 1563 
L 1894 1563 
z
" transform="scale(0.015625)"/>
       </defs>
       <use xlink:href="#TimesNewRomanPSMT-34"/>
       <use xlink:href="#TimesNewRomanPSMT-30" x="50"/>
      </g>
     </g>
    </g>
    <g id="xtick_3">
     <g id="line2d_5">
      <path d="M 126.724 250.321406 
L 126.724 12.241406 
" clip-path="url(#pf2e6346080)" style="fill: none; stroke: #b0b0b0; stroke-width: 0.8; stroke-linecap: square"/>
     </g>
     <g id="line2d_6">
      <g>
       <use xlink:href="#mf0ddbfbb9c" x="126.724" y="250.321406" style="stroke: #000000; stroke-width: 0.8"/>
      </g>
     </g>
     <g id="text_3">
      <!-- 60 -->
      <g transform="translate(121.724 264.265156) scale(0.1 -0.1)">
       <defs>
        <path id="TimesNewRomanPSMT-36" d="M 2869 4325 
L 2869 4209 
Q 2456 4169 2195 4045 
Q 1934 3922 1679 3669 
Q 1425 3416 1258 3105 
Q 1091 2794 978 2366 
Q 1428 2675 1881 2675 
Q 2316 2675 2634 2325 
Q 2953 1975 2953 1425 
Q 2953 894 2631 456 
Q 2244 -75 1606 -75 
Q 1172 -75 869 213 
Q 275 772 275 1663 
Q 275 2231 503 2743 
Q 731 3256 1154 3653 
Q 1578 4050 1965 4187 
Q 2353 4325 2688 4325 
L 2869 4325 
z
M 925 2138 
Q 869 1716 869 1456 
Q 869 1156 980 804 
Q 1091 453 1309 247 
Q 1469 100 1697 100 
Q 1969 100 2183 356 
Q 2397 613 2397 1088 
Q 2397 1622 2184 2012 
Q 1972 2403 1581 2403 
Q 1463 2403 1327 2353 
Q 1191 2303 925 2138 
z
" transform="scale(0.015625)"/>
       </defs>
       <use xlink:href="#TimesNewRomanPSMT-36"/>
       <use xlink:href="#TimesNewRomanPSMT-30" x="50"/>
      </g>
     </g>
    </g>
    <g id="xtick_4">
     <g id="line2d_7">
      <path d="M 150.532 250.321406 
L 150.532 12.241406 
" clip-path="url(#pf2e6346080)" style="fill: none; stroke: #b0b0b0; stroke-width: 0.8; stroke-linecap: square"/>
     </g>
     <g id="line2d_8">
      <g>
       <use xlink:href="#mf0ddbfbb9c" x="150.532" y="250.321406" style="stroke: #000000; stroke-width: 0.8"/>
      </g>
     </g>
     <g id="text_4">
      <!-- 80 -->
      <g transform="translate(145.532 264.265156) scale(0.1 -0.1)">
       <defs>
        <path id="TimesNewRomanPSMT-38" d="M 1228 2134 
Q 725 2547 579 2797 
Q 434 3047 434 3316 
Q 434 3728 753 4026 
Q 1072 4325 1600 4325 
Q 2113 4325 2425 4047 
Q 2738 3769 2738 3413 
Q 2738 3175 2569 2928 
Q 2400 2681 1866 2347 
Q 2416 1922 2594 1678 
Q 2831 1359 2831 1006 
Q 2831 559 2490 242 
Q 2150 -75 1597 -75 
Q 994 -75 656 303 
Q 388 606 388 966 
Q 388 1247 577 1523 
Q 766 1800 1228 2134 
z
M 1719 2469 
Q 2094 2806 2194 3001 
Q 2294 3197 2294 3444 
Q 2294 3772 2109 3958 
Q 1925 4144 1606 4144 
Q 1288 4144 1088 3959 
Q 888 3775 888 3528 
Q 888 3366 970 3203 
Q 1053 3041 1206 2894 
L 1719 2469 
z
M 1375 2016 
Q 1116 1797 991 1539 
Q 866 1281 866 981 
Q 866 578 1086 336 
Q 1306 94 1647 94 
Q 1984 94 2187 284 
Q 2391 475 2391 747 
Q 2391 972 2272 1150 
Q 2050 1481 1375 2016 
z
" transform="scale(0.015625)"/>
       </defs>
       <use xlink:href="#TimesNewRomanPSMT-38"/>
       <use xlink:href="#TimesNewRomanPSMT-30" x="50"/>
      </g>
     </g>
    </g>
    <g id="xtick_5">
     <g id="line2d_9">
      <path d="M 174.34 250.321406 
L 174.34 12.241406 
" clip-path="url(#pf2e6346080)" style="fill: none; stroke: #b0b0b0; stroke-width: 0.8; stroke-linecap: square"/>
     </g>
     <g id="line2d_10">
      <g>
       <use xlink:href="#mf0ddbfbb9c" x="174.34" y="250.321406" style="stroke: #000000; stroke-width: 0.8"/>
      </g>
     </g>
     <g id="text_5">
      <!-- 100 -->
      <g transform="translate(166.84 264.265156) scale(0.1 -0.1)">
       <defs>
        <path id="TimesNewRomanPSMT-31" d="M 750 3822 
L 1781 4325 
L 1884 4325 
L 1884 747 
Q 1884 391 1914 303 
Q 1944 216 2037 169 
Q 2131 122 2419 116 
L 2419 0 
L 825 0 
L 825 116 
Q 1125 122 1212 167 
Q 1300 213 1334 289 
Q 1369 366 1369 747 
L 1369 3034 
Q 1369 3497 1338 3628 
Q 1316 3728 1258 3775 
Q 1200 3822 1119 3822 
Q 1003 3822 797 3725 
L 750 3822 
z
" transform="scale(0.015625)"/>
       </defs>
       <use xlink:href="#TimesNewRomanPSMT-31"/>
       <use xlink:href="#TimesNewRomanPSMT-30" x="50"/>
       <use xlink:href="#TimesNewRomanPSMT-30" x="100"/>
      </g>
     </g>
    </g>
    <g id="xtick_6">
     <g id="line2d_11">
      <path d="M 198.148 250.321406 
L 198.148 12.241406 
" clip-path="url(#pf2e6346080)" style="fill: none; stroke: #b0b0b0; stroke-width: 0.8; stroke-linecap: square"/>
     </g>
     <g id="line2d_12">
      <g>
       <use xlink:href="#mf0ddbfbb9c" x="198.148" y="250.321406" style="stroke: #000000; stroke-width: 0.8"/>
      </g>
     </g>
     <g id="text_6">
      <!-- 120 -->
      <g transform="translate(190.648 264.265156) scale(0.1 -0.1)">
       <use xlink:href="#TimesNewRomanPSMT-31"/>
       <use xlink:href="#TimesNewRomanPSMT-32" x="50"/>
       <use xlink:href="#TimesNewRomanPSMT-30" x="100"/>
      </g>
     </g>
    </g>
    <g id="xtick_7">
     <g id="line2d_13">
      <path d="M 221.956 250.321406 
L 221.956 12.241406 
" clip-path="url(#pf2e6346080)" style="fill: none; stroke: #b0b0b0; stroke-width: 0.8; stroke-linecap: square"/>
     </g>
     <g id="line2d_14">
      <g>
       <use xlink:href="#mf0ddbfbb9c" x="221.956" y="250.321406" style="stroke: #000000; stroke-width: 0.8"/>
      </g>
     </g>
     <g id="text_7">
      <!-- 140 -->
      <g transform="translate(214.456 264.265156) scale(0.1 -0.1)">
       <use xlink:href="#TimesNewRomanPSMT-31"/>
       <use xlink:href="#TimesNewRomanPSMT-34" x="50"/>
       <use xlink:href="#TimesNewRomanPSMT-30" x="100"/>
      </g>
     </g>
    </g>
    <g id="xtick_8">
     <g id="line2d_15">
      <path d="M 245.764 250.321406 
L 245.764 12.241406 
" clip-path="url(#pf2e6346080)" style="fill: none; stroke: #b0b0b0; stroke-width: 0.8; stroke-linecap: square"/>
     </g>
     <g id="line2d_16">
      <g>
       <use xlink:href="#mf0ddbfbb9c" x="245.764" y="250.321406" style="stroke: #000000; stroke-width: 0.8"/>
      </g>
     </g>
     <g id="text_8">
      <!-- 160 -->
      <g transform="translate(238.264 264.265156) scale(0.1 -0.1)">
       <use xlink:href="#TimesNewRomanPSMT-31"/>
       <use xlink:href="#TimesNewRomanPSMT-36" x="50"/>
       <use xlink:href="#TimesNewRomanPSMT-30" x="100"/>
      </g>
     </g>
    </g>
    <g id="xtick_9">
     <g id="line2d_17">
      <path d="M 269.572 250.321406 
L 269.572 12.241406 
" clip-path="url(#pf2e6346080)" style="fill: none; stroke: #b0b0b0; stroke-width: 0.8; stroke-linecap: square"/>
     </g>
     <g id="line2d_18">
      <g>
       <use xlink:href="#mf0ddbfbb9c" x="269.572" y="250.321406" style="stroke: #000000; stroke-width: 0.8"/>
      </g>
     </g>
     <g id="text_9">
      <!-- 180 -->
      <g transform="translate(262.072 264.265156) scale(0.1 -0.1)">
       <use xlink:href="#TimesNewRomanPSMT-31"/>
       <use xlink:href="#TimesNewRomanPSMT-38" x="50"/>
       <use xlink:href="#TimesNewRomanPSMT-30" x="100"/>
      </g>
     </g>
    </g>
    <g id="xtick_10">
     <g id="line2d_19">
      <path d="M 293.38 250.321406 
L 293.38 12.241406 
" clip-path="url(#pf2e6346080)" style="fill: none; stroke: #b0b0b0; stroke-width: 0.8; stroke-linecap: square"/>
     </g>
     <g id="line2d_20">
      <g>
       <use xlink:href="#mf0ddbfbb9c" x="293.38" y="250.321406" style="stroke: #000000; stroke-width: 0.8"/>
      </g>
     </g>
     <g id="text_10">
      <!-- 200 -->
      <g transform="translate(285.88 264.265156) scale(0.1 -0.1)">
       <use xlink:href="#TimesNewRomanPSMT-32"/>
       <use xlink:href="#TimesNewRomanPSMT-30" x="50"/>
       <use xlink:href="#TimesNewRomanPSMT-30" x="100"/>
      </g>
     </g>
    </g>
    <g id="xtick_11">
     <g id="line2d_21">
      <path d="M 317.188 250.321406 
L 317.188 12.241406 
" clip-path="url(#pf2e6346080)" style="fill: none; stroke: #b0b0b0; stroke-width: 0.8; stroke-linecap: square"/>
     </g>
     <g id="line2d_22">
      <g>
       <use xlink:href="#mf0ddbfbb9c" x="317.188" y="250.321406" style="stroke: #000000; stroke-width: 0.8"/>
      </g>
     </g>
     <g id="text_11">
      <!-- 220 -->
      <g transform="translate(309.688 264.265156) scale(0.1 -0.1)">
       <use xlink:href="#TimesNewRomanPSMT-32"/>
       <use xlink:href="#TimesNewRomanPSMT-32" x="50"/>
       <use xlink:href="#TimesNewRomanPSMT-30" x="100"/>
      </g>
     </g>
    </g>
    <g id="xtick_12">
     <g id="line2d_23">
      <path d="M 340.996 250.321406 
L 340.996 12.241406 
" clip-path="url(#pf2e6346080)" style="fill: none; stroke: #b0b0b0; stroke-width: 0.8; stroke-linecap: square"/>
     </g>
     <g id="line2d_24">
      <g>
       <use xlink:href="#mf0ddbfbb9c" x="340.996" y="250.321406" style="stroke: #000000; stroke-width: 0.8"/>
      </g>
     </g>
     <g id="text_12">
      <!-- 240 -->
      <g transform="translate(333.496 264.265156) scale(0.1 -0.1)">
       <use xlink:href="#TimesNewRomanPSMT-32"/>
       <use xlink:href="#TimesNewRomanPSMT-34" x="50"/>
       <use xlink:href="#TimesNewRomanPSMT-30" x="100"/>
      </g>
     </g>
    </g>
    <g id="xtick_13">
     <g id="line2d_25">
      <path d="M 364.804 250.321406 
L 364.804 12.241406 
" clip-path="url(#pf2e6346080)" style="fill: none; stroke: #b0b0b0; stroke-width: 0.8; stroke-linecap: square"/>
     </g>
     <g id="line2d_26">
      <g>
       <use xlink:href="#mf0ddbfbb9c" x="364.804" y="250.321406" style="stroke: #000000; stroke-width: 0.8"/>
      </g>
     </g>
     <g id="text_13">
      <!-- 260 -->
      <g transform="translate(357.304 264.265156) scale(0.1 -0.1)">
       <use xlink:href="#TimesNewRomanPSMT-32"/>
       <use xlink:href="#TimesNewRomanPSMT-36" x="50"/>
       <use xlink:href="#TimesNewRomanPSMT-30" x="100"/>
      </g>
     </g>
    </g>
    <g id="xtick_14">
     <g id="line2d_27">
      <path d="M 388.612 250.321406 
L 388.612 12.241406 
" clip-path="url(#pf2e6346080)" style="fill: none; stroke: #b0b0b0; stroke-width: 0.8; stroke-linecap: square"/>
     </g>
     <g id="line2d_28">
      <g>
       <use xlink:href="#mf0ddbfbb9c" x="388.612" y="250.321406" style="stroke: #000000; stroke-width: 0.8"/>
      </g>
     </g>
     <g id="text_14">
      <!-- 280 -->
      <g transform="translate(381.112 264.265156) scale(0.1 -0.1)">
       <use xlink:href="#TimesNewRomanPSMT-32"/>
       <use xlink:href="#TimesNewRomanPSMT-38" x="50"/>
       <use xlink:href="#TimesNewRomanPSMT-30" x="100"/>
      </g>
     </g>
    </g>
    <g id="text_15">
     <!-- $x$, мм -->
     <g transform="translate(390.32 277.347969) scale(0.1 -0.1)">
      <defs>
       <path id="STIXGeneral-Italic-78" d="M 1555 2272 
L 1632 1907 
Q 1971 2426 2179 2624 
Q 2387 2822 2598 2822 
Q 2714 2822 2787 2755 
Q 2861 2688 2861 2585 
Q 2861 2483 2800 2419 
Q 2739 2355 2643 2355 
Q 2586 2355 2490 2409 
Q 2394 2464 2310 2464 
Q 2125 2464 1683 1690 
Q 1683 1606 1734 1402 
L 1939 544 
Q 2003 282 2131 282 
Q 2234 282 2432 538 
Q 2451 563 2476 598 
Q 2502 634 2521 662 
Q 2541 691 2566 717 
L 2662 659 
Q 2387 230 2227 80 
Q 2067 -70 1882 -70 
Q 1728 -70 1645 26 
Q 1562 122 1504 365 
L 1318 1126 
L 755 365 
Q 557 96 432 13 
Q 307 -70 147 -70 
Q 0 -70 -86 0 
Q -173 70 -173 198 
Q -173 294 -112 361 
Q -51 429 45 429 
Q 122 429 250 358 
Q 346 301 416 301 
Q 525 301 742 614 
L 1267 1357 
L 1088 2150 
Q 1024 2432 969 2509 
Q 915 2586 794 2586 
Q 717 2586 544 2541 
L 429 2509 
L 410 2611 
L 480 2637 
Q 992 2822 1229 2822 
Q 1350 2822 1420 2707 
Q 1491 2592 1555 2272 
z
" transform="scale(0.015625)"/>
       <path id="TimesNewRomanPSMT-2c" d="M 344 -1066 
L 344 -928 
Q 666 -822 842 -598 
Q 1019 -375 1019 -125 
Q 1019 -66 991 -25 
Q 969 3 947 3 
Q 913 3 797 -59 
Q 741 -88 678 -88 
Q 525 -88 434 3 
Q 344 94 344 253 
Q 344 406 461 515 
Q 578 625 747 625 
Q 953 625 1114 445 
Q 1275 266 1275 -31 
Q 1275 -353 1051 -629 
Q 828 -906 344 -1066 
z
" transform="scale(0.015625)"/>
       <path id="TimesNewRomanPSMT-20" transform="scale(0.015625)"/>
       <path id="TimesNewRomanPSMT-43c" d="M 2050 747 
L 2944 2863 
L 3909 2863 
L 3909 2744 
Q 3697 2744 3626 2701 
Q 3556 2659 3515 2596 
Q 3475 2534 3475 2191 
L 3475 672 
Q 3475 375 3504 289 
Q 3534 203 3626 159 
Q 3719 116 3909 116 
L 3909 0 
L 2525 0 
L 2525 116 
Q 2781 116 2868 211 
Q 2956 306 2956 672 
L 2956 2394 
L 1944 0 
L 1834 0 
L 803 2394 
L 803 672 
Q 803 375 834 289 
Q 866 203 956 159 
Q 1047 116 1238 116 
L 1238 0 
L 144 0 
L 144 116 
Q 422 116 500 217 
Q 578 319 578 672 
L 578 2191 
Q 578 2525 543 2586 
Q 509 2647 437 2695 
Q 366 2744 144 2744 
L 144 2863 
L 1150 2863 
L 2050 747 
z
" transform="scale(0.015625)"/>
      </defs>
      <use xlink:href="#STIXGeneral-Italic-78" transform="translate(0 0.265625)"/>
      <use xlink:href="#TimesNewRomanPSMT-2c" transform="translate(44.399994 0.265625)"/>
      <use xlink:href="#TimesNewRomanPSMT-20" transform="translate(69.399994 0.265625)"/>
      <use xlink:href="#TimesNewRomanPSMT-43c" transform="translate(94.399994 0.265625)"/>
      <use xlink:href="#TimesNewRomanPSMT-43c" transform="translate(157.681244 0.265625)"/>
     </g>
    </g>
   </g>
   <g id="matplotlib.axis_2">
    <g id="ytick_1">
     <g id="line2d_29">
      <path d="M 55.3 226.513406 
L 412.42 226.513406 
" clip-path="url(#pf2e6346080)" style="fill: none; stroke: #b0b0b0; stroke-width: 0.8; stroke-linecap: square"/>
     </g>
     <g id="line2d_30">
      <defs>
       <path id="m612b3cf58e" d="M 0 0 
L -3.5 0 
" style="stroke: #000000; stroke-width: 0.8"/>
      </defs>
      <g>
       <use xlink:href="#m612b3cf58e" x="55.3" y="226.513406" style="stroke: #000000; stroke-width: 0.8"/>
      </g>
     </g>
     <g id="text_16">
      <!-- 20 -->
      <g transform="translate(38.3 229.985281) scale(0.1 -0.1)">
       <use xlink:href="#TimesNewRomanPSMT-32"/>
       <use xlink:href="#TimesNewRomanPSMT-30" x="50"/>
      </g>
     </g>
    </g>
    <g id="ytick_2">
     <g id="line2d_31">
      <path d="M 55.3 214.609406 
L 412.42 214.609406 
" clip-path="url(#pf2e6346080)" style="fill: none; stroke: #b0b0b0; stroke-width: 0.8; stroke-linecap: square"/>
     </g>
     <g id="line2d_32">
      <g>
       <use xlink:href="#m612b3cf58e" x="55.3" y="214.609406" style="stroke: #000000; stroke-width: 0.8"/>
      </g>
     </g>
     <g id="text_17">
      <!-- 30 -->
      <g transform="translate(38.3 218.081281) scale(0.1 -0.1)">
       <defs>
        <path id="TimesNewRomanPSMT-33" d="M 325 3431 
Q 506 3859 782 4092 
Q 1059 4325 1472 4325 
Q 1981 4325 2253 3994 
Q 2459 3747 2459 3466 
Q 2459 3003 1878 2509 
Q 2269 2356 2469 2072 
Q 2669 1788 2669 1403 
Q 2669 853 2319 450 
Q 1863 -75 997 -75 
Q 569 -75 414 31 
Q 259 138 259 259 
Q 259 350 332 419 
Q 406 488 509 488 
Q 588 488 669 463 
Q 722 447 909 348 
Q 1097 250 1169 231 
Q 1284 197 1416 197 
Q 1734 197 1970 444 
Q 2206 691 2206 1028 
Q 2206 1275 2097 1509 
Q 2016 1684 1919 1775 
Q 1784 1900 1550 2001 
Q 1316 2103 1072 2103 
L 972 2103 
L 972 2197 
Q 1219 2228 1467 2375 
Q 1716 2522 1828 2728 
Q 1941 2934 1941 3181 
Q 1941 3503 1739 3701 
Q 1538 3900 1238 3900 
Q 753 3900 428 3381 
L 325 3431 
z
" transform="scale(0.015625)"/>
       </defs>
       <use xlink:href="#TimesNewRomanPSMT-33"/>
       <use xlink:href="#TimesNewRomanPSMT-30" x="50"/>
      </g>
     </g>
    </g>
    <g id="ytick_3">
     <g id="line2d_33">
      <path d="M 55.3 202.705406 
L 412.42 202.705406 
" clip-path="url(#pf2e6346080)" style="fill: none; stroke: #b0b0b0; stroke-width: 0.8; stroke-linecap: square"/>
     </g>
     <g id="line2d_34">
      <g>
       <use xlink:href="#m612b3cf58e" x="55.3" y="202.705406" style="stroke: #000000; stroke-width: 0.8"/>
      </g>
     </g>
     <g id="text_18">
      <!-- 40 -->
      <g transform="translate(38.3 206.177281) scale(0.1 -0.1)">
       <use xlink:href="#TimesNewRomanPSMT-34"/>
       <use xlink:href="#TimesNewRomanPSMT-30" x="50"/>
      </g>
     </g>
    </g>
    <g id="ytick_4">
     <g id="line2d_35">
      <path d="M 55.3 190.801406 
L 412.42 190.801406 
" clip-path="url(#pf2e6346080)" style="fill: none; stroke: #b0b0b0; stroke-width: 0.8; stroke-linecap: square"/>
     </g>
     <g id="line2d_36">
      <g>
       <use xlink:href="#m612b3cf58e" x="55.3" y="190.801406" style="stroke: #000000; stroke-width: 0.8"/>
      </g>
     </g>
     <g id="text_19">
      <!-- 50 -->
      <g transform="translate(38.3 194.273281) scale(0.1 -0.1)">
       <defs>
        <path id="TimesNewRomanPSMT-35" d="M 2778 4238 
L 2534 3706 
L 1259 3706 
L 981 3138 
Q 1809 3016 2294 2522 
Q 2709 2097 2709 1522 
Q 2709 1188 2573 903 
Q 2438 619 2231 419 
Q 2025 219 1772 97 
Q 1413 -75 1034 -75 
Q 653 -75 479 54 
Q 306 184 306 341 
Q 306 428 378 495 
Q 450 563 559 563 
Q 641 563 702 538 
Q 763 513 909 409 
Q 1144 247 1384 247 
Q 1750 247 2026 523 
Q 2303 800 2303 1197 
Q 2303 1581 2056 1914 
Q 1809 2247 1375 2428 
Q 1034 2569 447 2591 
L 1259 4238 
L 2778 4238 
z
" transform="scale(0.015625)"/>
       </defs>
       <use xlink:href="#TimesNewRomanPSMT-35"/>
       <use xlink:href="#TimesNewRomanPSMT-30" x="50"/>
      </g>
     </g>
    </g>
    <g id="ytick_5">
     <g id="line2d_37">
      <path d="M 55.3 178.897406 
L 412.42 178.897406 
" clip-path="url(#pf2e6346080)" style="fill: none; stroke: #b0b0b0; stroke-width: 0.8; stroke-linecap: square"/>
     </g>
     <g id="line2d_38">
      <g>
       <use xlink:href="#m612b3cf58e" x="55.3" y="178.897406" style="stroke: #000000; stroke-width: 0.8"/>
      </g>
     </g>
     <g id="text_20">
      <!-- 60 -->
      <g transform="translate(38.3 182.369281) scale(0.1 -0.1)">
       <use xlink:href="#TimesNewRomanPSMT-36"/>
       <use xlink:href="#TimesNewRomanPSMT-30" x="50"/>
      </g>
     </g>
    </g>
    <g id="ytick_6">
     <g id="line2d_39">
      <path d="M 55.3 166.993406 
L 412.42 166.993406 
" clip-path="url(#pf2e6346080)" style="fill: none; stroke: #b0b0b0; stroke-width: 0.8; stroke-linecap: square"/>
     </g>
     <g id="line2d_40">
      <g>
       <use xlink:href="#m612b3cf58e" x="55.3" y="166.993406" style="stroke: #000000; stroke-width: 0.8"/>
      </g>
     </g>
     <g id="text_21">
      <!-- 70 -->
      <g transform="translate(38.3 170.465281) scale(0.1 -0.1)">
       <defs>
        <path id="TimesNewRomanPSMT-37" d="M 644 4238 
L 2916 4238 
L 2916 4119 
L 1503 -88 
L 1153 -88 
L 2419 3728 
L 1253 3728 
Q 900 3728 750 3644 
Q 488 3500 328 3200 
L 238 3234 
L 644 4238 
z
" transform="scale(0.015625)"/>
       </defs>
       <use xlink:href="#TimesNewRomanPSMT-37"/>
       <use xlink:href="#TimesNewRomanPSMT-30" x="50"/>
      </g>
     </g>
    </g>
    <g id="ytick_7">
     <g id="line2d_41">
      <path d="M 55.3 155.089406 
L 412.42 155.089406 
" clip-path="url(#pf2e6346080)" style="fill: none; stroke: #b0b0b0; stroke-width: 0.8; stroke-linecap: square"/>
     </g>
     <g id="line2d_42">
      <g>
       <use xlink:href="#m612b3cf58e" x="55.3" y="155.089406" style="stroke: #000000; stroke-width: 0.8"/>
      </g>
     </g>
     <g id="text_22">
      <!-- 80 -->
      <g transform="translate(38.3 158.561281) scale(0.1 -0.1)">
       <use xlink:href="#TimesNewRomanPSMT-38"/>
       <use xlink:href="#TimesNewRomanPSMT-30" x="50"/>
      </g>
     </g>
    </g>
    <g id="ytick_8">
     <g id="line2d_43">
      <path d="M 55.3 143.185406 
L 412.42 143.185406 
" clip-path="url(#pf2e6346080)" style="fill: none; stroke: #b0b0b0; stroke-width: 0.8; stroke-linecap: square"/>
     </g>
     <g id="line2d_44">
      <g>
       <use xlink:href="#m612b3cf58e" x="55.3" y="143.185406" style="stroke: #000000; stroke-width: 0.8"/>
      </g>
     </g>
     <g id="text_23">
      <!-- 90 -->
      <g transform="translate(38.3 146.657281) scale(0.1 -0.1)">
       <defs>
        <path id="TimesNewRomanPSMT-39" d="M 338 -88 
L 338 28 
Q 744 34 1094 217 
Q 1444 400 1770 856 
Q 2097 1313 2225 1859 
Q 1734 1544 1338 1544 
Q 891 1544 572 1889 
Q 253 2234 253 2806 
Q 253 3363 572 3797 
Q 956 4325 1575 4325 
Q 2097 4325 2469 3894 
Q 2925 3359 2925 2575 
Q 2925 1869 2578 1258 
Q 2231 647 1613 244 
Q 1109 -88 516 -88 
L 338 -88 
z
M 2275 2091 
Q 2331 2497 2331 2741 
Q 2331 3044 2228 3395 
Q 2125 3747 1936 3934 
Q 1747 4122 1506 4122 
Q 1228 4122 1018 3872 
Q 809 3622 809 3128 
Q 809 2469 1088 2097 
Q 1291 1828 1588 1828 
Q 1731 1828 1928 1897 
Q 2125 1966 2275 2091 
z
" transform="scale(0.015625)"/>
       </defs>
       <use xlink:href="#TimesNewRomanPSMT-39"/>
       <use xlink:href="#TimesNewRomanPSMT-30" x="50"/>
      </g>
     </g>
    </g>
    <g id="ytick_9">
     <g id="line2d_45">
      <path d="M 55.3 131.281406 
L 412.42 131.281406 
" clip-path="url(#pf2e6346080)" style="fill: none; stroke: #b0b0b0; stroke-width: 0.8; stroke-linecap: square"/>
     </g>
     <g id="line2d_46">
      <g>
       <use xlink:href="#m612b3cf58e" x="55.3" y="131.281406" style="stroke: #000000; stroke-width: 0.8"/>
      </g>
     </g>
     <g id="text_24">
      <!-- 100 -->
      <g transform="translate(33.3 134.753281) scale(0.1 -0.1)">
       <use xlink:href="#TimesNewRomanPSMT-31"/>
       <use xlink:href="#TimesNewRomanPSMT-30" x="50"/>
       <use xlink:href="#TimesNewRomanPSMT-30" x="100"/>
      </g>
     </g>
    </g>
    <g id="ytick_10">
     <g id="line2d_47">
      <path d="M 55.3 119.377406 
L 412.42 119.377406 
" clip-path="url(#pf2e6346080)" style="fill: none; stroke: #b0b0b0; stroke-width: 0.8; stroke-linecap: square"/>
     </g>
     <g id="line2d_48">
      <g>
       <use xlink:href="#m612b3cf58e" x="55.3" y="119.377406" style="stroke: #000000; stroke-width: 0.8"/>
      </g>
     </g>
     <g id="text_25">
      <!-- 110 -->
      <g transform="translate(33.675 122.849281) scale(0.1 -0.1)">
       <use xlink:href="#TimesNewRomanPSMT-31"/>
       <use xlink:href="#TimesNewRomanPSMT-31" x="46.25"/>
       <use xlink:href="#TimesNewRomanPSMT-30" x="96.25"/>
      </g>
     </g>
    </g>
    <g id="ytick_11">
     <g id="line2d_49">
      <path d="M 55.3 107.473406 
L 412.42 107.473406 
" clip-path="url(#pf2e6346080)" style="fill: none; stroke: #b0b0b0; stroke-width: 0.8; stroke-linecap: square"/>
     </g>
     <g id="line2d_50">
      <g>
       <use xlink:href="#m612b3cf58e" x="55.3" y="107.473406" style="stroke: #000000; stroke-width: 0.8"/>
      </g>
     </g>
     <g id="text_26">
      <!-- 120 -->
      <g transform="translate(33.3 110.945281) scale(0.1 -0.1)">
       <use xlink:href="#TimesNewRomanPSMT-31"/>
       <use xlink:href="#TimesNewRomanPSMT-32" x="50"/>
       <use xlink:href="#TimesNewRomanPSMT-30" x="100"/>
      </g>
     </g>
    </g>
    <g id="ytick_12">
     <g id="line2d_51">
      <path d="M 55.3 95.569406 
L 412.42 95.569406 
" clip-path="url(#pf2e6346080)" style="fill: none; stroke: #b0b0b0; stroke-width: 0.8; stroke-linecap: square"/>
     </g>
     <g id="line2d_52">
      <g>
       <use xlink:href="#m612b3cf58e" x="55.3" y="95.569406" style="stroke: #000000; stroke-width: 0.8"/>
      </g>
     </g>
     <g id="text_27">
      <!-- 130 -->
      <g transform="translate(33.3 99.041281) scale(0.1 -0.1)">
       <use xlink:href="#TimesNewRomanPSMT-31"/>
       <use xlink:href="#TimesNewRomanPSMT-33" x="50"/>
       <use xlink:href="#TimesNewRomanPSMT-30" x="100"/>
      </g>
     </g>
    </g>
    <g id="ytick_13">
     <g id="line2d_53">
      <path d="M 55.3 83.665406 
L 412.42 83.665406 
" clip-path="url(#pf2e6346080)" style="fill: none; stroke: #b0b0b0; stroke-width: 0.8; stroke-linecap: square"/>
     </g>
     <g id="line2d_54">
      <g>
       <use xlink:href="#m612b3cf58e" x="55.3" y="83.665406" style="stroke: #000000; stroke-width: 0.8"/>
      </g>
     </g>
     <g id="text_28">
      <!-- 140 -->
      <g transform="translate(33.3 87.137281) scale(0.1 -0.1)">
       <use xlink:href="#TimesNewRomanPSMT-31"/>
       <use xlink:href="#TimesNewRomanPSMT-34" x="50"/>
       <use xlink:href="#TimesNewRomanPSMT-30" x="100"/>
      </g>
     </g>
    </g>
    <g id="ytick_14">
     <g id="line2d_55">
      <path d="M 55.3 71.761406 
L 412.42 71.761406 
" clip-path="url(#pf2e6346080)" style="fill: none; stroke: #b0b0b0; stroke-width: 0.8; stroke-linecap: square"/>
     </g>
     <g id="line2d_56">
      <g>
       <use xlink:href="#m612b3cf58e" x="55.3" y="71.761406" style="stroke: #000000; stroke-width: 0.8"/>
      </g>
     </g>
     <g id="text_29">
      <!-- 150 -->
      <g transform="translate(33.3 75.233281) scale(0.1 -0.1)">
       <use xlink:href="#TimesNewRomanPSMT-31"/>
       <use xlink:href="#TimesNewRomanPSMT-35" x="50"/>
       <use xlink:href="#TimesNewRomanPSMT-30" x="100"/>
      </g>
     </g>
    </g>
    <g id="ytick_15">
     <g id="line2d_57">
      <path d="M 55.3 59.857406 
L 412.42 59.857406 
" clip-path="url(#pf2e6346080)" style="fill: none; stroke: #b0b0b0; stroke-width: 0.8; stroke-linecap: square"/>
     </g>
     <g id="line2d_58">
      <g>
       <use xlink:href="#m612b3cf58e" x="55.3" y="59.857406" style="stroke: #000000; stroke-width: 0.8"/>
      </g>
     </g>
     <g id="text_30">
      <!-- 160 -->
      <g transform="translate(33.3 63.329281) scale(0.1 -0.1)">
       <use xlink:href="#TimesNewRomanPSMT-31"/>
       <use xlink:href="#TimesNewRomanPSMT-36" x="50"/>
       <use xlink:href="#TimesNewRomanPSMT-30" x="100"/>
      </g>
     </g>
    </g>
    <g id="ytick_16">
     <g id="line2d_59">
      <path d="M 55.3 47.953406 
L 412.42 47.953406 
" clip-path="url(#pf2e6346080)" style="fill: none; stroke: #b0b0b0; stroke-width: 0.8; stroke-linecap: square"/>
     </g>
     <g id="line2d_60">
      <g>
       <use xlink:href="#m612b3cf58e" x="55.3" y="47.953406" style="stroke: #000000; stroke-width: 0.8"/>
      </g>
     </g>
     <g id="text_31">
      <!-- 170 -->
      <g transform="translate(33.3 51.425281) scale(0.1 -0.1)">
       <use xlink:href="#TimesNewRomanPSMT-31"/>
       <use xlink:href="#TimesNewRomanPSMT-37" x="50"/>
       <use xlink:href="#TimesNewRomanPSMT-30" x="100"/>
      </g>
     </g>
    </g>
    <g id="ytick_17">
     <g id="line2d_61">
      <path d="M 55.3 36.049406 
L 412.42 36.049406 
" clip-path="url(#pf2e6346080)" style="fill: none; stroke: #b0b0b0; stroke-width: 0.8; stroke-linecap: square"/>
     </g>
     <g id="line2d_62">
      <g>
       <use xlink:href="#m612b3cf58e" x="55.3" y="36.049406" style="stroke: #000000; stroke-width: 0.8"/>
      </g>
     </g>
     <g id="text_32">
      <!-- 180 -->
      <g transform="translate(33.3 39.521281) scale(0.1 -0.1)">
       <use xlink:href="#TimesNewRomanPSMT-31"/>
       <use xlink:href="#TimesNewRomanPSMT-38" x="50"/>
       <use xlink:href="#TimesNewRomanPSMT-30" x="100"/>
      </g>
     </g>
    </g>
    <g id="text_33">
     <!-- $y$, мм -->
     <g transform="translate(7.2 10.102344) scale(0.1 -0.1)">
      <defs>
       <path id="STIXGeneral-Italic-79" d="M 1555 1190 
L 1690 486 
Q 2118 1190 2294 1558 
Q 2470 1926 2470 2131 
Q 2470 2234 2304 2336 
Q 2138 2445 2138 2586 
Q 2138 2688 2211 2755 
Q 2285 2822 2394 2822 
Q 2534 2822 2630 2720 
Q 2726 2618 2726 2470 
Q 2726 1914 1888 518 
Q 1389 -307 918 -812 
Q 448 -1318 173 -1318 
Q 26 -1318 -64 -1241 
Q -154 -1165 -154 -1043 
Q -154 -934 -80 -860 
Q -6 -787 96 -787 
Q 218 -787 314 -876 
Q 410 -966 486 -966 
Q 602 -966 794 -755 
Q 877 -672 1040 -457 
Q 1203 -243 1248 -173 
Q 1312 -45 1312 51 
Q 1312 243 1113 1046 
Q 915 1850 787 2176 
Q 698 2413 592 2499 
Q 486 2586 294 2586 
Q 192 2586 96 2560 
L 96 2669 
Q 237 2694 301 2707 
Q 563 2758 986 2822 
L 1011 2822 
Q 1082 2822 1277 2227 
Q 1472 1632 1555 1190 
z
" transform="scale(0.015625)"/>
      </defs>
      <use xlink:href="#STIXGeneral-Italic-79" transform="translate(0 0.265625)"/>
      <use xlink:href="#TimesNewRomanPSMT-2c" transform="translate(44.399994 0.265625)"/>
      <use xlink:href="#TimesNewRomanPSMT-20" transform="translate(69.399994 0.265625)"/>
      <use xlink:href="#TimesNewRomanPSMT-43c" transform="translate(94.399994 0.265625)"/>
      <use xlink:href="#TimesNewRomanPSMT-43c" transform="translate(157.681244 0.265625)"/>
     </g>
    </g>
   </g>
   <g id="line2d_63">
    <path d="M 79.108 226.513406 
L 81.4888 214.609406 
L 82.6792 202.705406 
L 82.6792 190.801406 
L 83.8696 178.897406 
L 83.8696 166.993406 
L 83.8696 155.089406 
L 83.8696 143.185406 
L 83.8696 131.281406 
L 83.8696 119.377406 
L 83.8696 107.473406 
L 83.8696 95.569406 
L 82.6792 83.665406 
L 82.6792 71.761406 
L 82.6792 59.857406 
L 81.4888 47.953406 
L 80.2984 36.049406 
" clip-path="url(#pf2e6346080)" style="fill: none; stroke-dasharray: 2.775,1.2; stroke-dashoffset: 0; stroke: #000000; stroke-width: 0.75"/>
    <defs>
     <path id="m548a39668f" d="M 0 1 
C 0.265203 1 0.51958 0.894634 0.707107 0.707107 
C 0.894634 0.51958 1 0.265203 1 0 
C 1 -0.265203 0.894634 -0.51958 0.707107 -0.707107 
C 0.51958 -0.894634 0.265203 -1 0 -1 
C -0.265203 -1 -0.51958 -0.894634 -0.707107 -0.707107 
C -0.894634 -0.51958 -1 -0.265203 -1 0 
C -1 0.265203 -0.894634 0.51958 -0.707107 0.707107 
C -0.51958 0.894634 -0.265203 1 0 1 
z
" style="stroke: #000000"/>
    </defs>
    <g clip-path="url(#pf2e6346080)">
     <use xlink:href="#m548a39668f" x="79.108" y="226.513406" style="stroke: #000000"/>
     <use xlink:href="#m548a39668f" x="81.4888" y="214.609406" style="stroke: #000000"/>
     <use xlink:href="#m548a39668f" x="82.6792" y="202.705406" style="stroke: #000000"/>
     <use xlink:href="#m548a39668f" x="82.6792" y="190.801406" style="stroke: #000000"/>
     <use xlink:href="#m548a39668f" x="83.8696" y="178.897406" style="stroke: #000000"/>
     <use xlink:href="#m548a39668f" x="83.8696" y="166.993406" style="stroke: #000000"/>
     <use xlink:href="#m548a39668f" x="83.8696" y="155.089406" style="stroke: #000000"/>
     <use xlink:href="#m548a39668f" x="83.8696" y="143.185406" style="stroke: #000000"/>
     <use xlink:href="#m548a39668f" x="83.8696" y="131.281406" style="stroke: #000000"/>
     <use xlink:href="#m548a39668f" x="83.8696" y="119.377406" style="stroke: #000000"/>
     <use xlink:href="#m548a39668f" x="83.8696" y="107.473406" style="stroke: #000000"/>
     <use xlink:href="#m548a39668f" x="83.8696" y="95.569406" style="stroke: #000000"/>
     <use xlink:href="#m548a39668f" x="82.6792" y="83.665406" style="stroke: #000000"/>
     <use xlink:href="#m548a39668f" x="82.6792" y="71.761406" style="stroke: #000000"/>
     <use xlink:href="#m548a39668f" x="82.6792" y="59.857406" style="stroke: #000000"/>
     <use xlink:href="#m548a39668f" x="81.4888" y="47.953406" style="stroke: #000000"/>
     <use xlink:href="#m548a39668f" x="80.2984" y="36.049406" style="stroke: #000000"/>
    </g>
   </g>
   <g id="line2d_64">
    <path d="M 102.916 226.513406 
L 102.916 214.609406 
L 102.916 202.705406 
L 102.916 190.801406 
L 101.7256 178.897406 
L 101.7256 166.993406 
L 101.7256 155.089406 
L 100.5352 143.185406 
L 100.5352 131.281406 
L 100.5352 119.377406 
L 100.5352 107.473406 
L 101.7256 95.569406 
L 102.916 83.665406 
L 102.916 71.761406 
L 102.916 59.857406 
L 102.916 47.953406 
L 102.916 36.049406 
" clip-path="url(#pf2e6346080)" style="fill: none; stroke-dasharray: 2.775,1.2; stroke-dashoffset: 0; stroke: #000000; stroke-width: 0.75"/>
    <g clip-path="url(#pf2e6346080)">
     <use xlink:href="#m548a39668f" x="102.916" y="226.513406" style="stroke: #000000"/>
     <use xlink:href="#m548a39668f" x="102.916" y="214.609406" style="stroke: #000000"/>
     <use xlink:href="#m548a39668f" x="102.916" y="202.705406" style="stroke: #000000"/>
     <use xlink:href="#m548a39668f" x="102.916" y="190.801406" style="stroke: #000000"/>
     <use xlink:href="#m548a39668f" x="101.7256" y="178.897406" style="stroke: #000000"/>
     <use xlink:href="#m548a39668f" x="101.7256" y="166.993406" style="stroke: #000000"/>
     <use xlink:href="#m548a39668f" x="101.7256" y="155.089406" style="stroke: #000000"/>
     <use xlink:href="#m548a39668f" x="100.5352" y="143.185406" style="stroke: #000000"/>
     <use xlink:href="#m548a39668f" x="100.5352" y="131.281406" style="stroke: #000000"/>
     <use xlink:href="#m548a39668f" x="100.5352" y="119.377406" style="stroke: #000000"/>
     <use xlink:href="#m548a39668f" x="100.5352" y="107.473406" style="stroke: #000000"/>
     <use xlink:href="#m548a39668f" x="101.7256" y="95.569406" style="stroke: #000000"/>
     <use xlink:href="#m548a39668f" x="102.916" y="83.665406" style="stroke: #000000"/>
     <use xlink:href="#m548a39668f" x="102.916" y="71.761406" style="stroke: #000000"/>
     <use xlink:href="#m548a39668f" x="102.916" y="59.857406" style="stroke: #000000"/>
     <use xlink:href="#m548a39668f" x="102.916" y="47.953406" style="stroke: #000000"/>
     <use xlink:href="#m548a39668f" x="102.916" y="36.049406" style="stroke: #000000"/>
    </g>
   </g>
   <g id="line2d_65">
    <path d="M 127.9144 226.513406 
L 126.724 214.609406 
L 125.5336 202.705406 
L 123.1528 190.801406 
L 120.772 178.897406 
L 119.5816 166.993406 
L 118.3912 155.089406 
L 117.2008 143.185406 
L 117.2008 131.281406 
L 117.2008 119.377406 
L 118.3912 107.473406 
L 119.5816 95.569406 
L 120.772 83.665406 
L 123.1528 71.761406 
L 125.5336 59.857406 
L 126.724 47.953406 
L 127.9144 36.049406 
" clip-path="url(#pf2e6346080)" style="fill: none; stroke-dasharray: 2.775,1.2; stroke-dashoffset: 0; stroke: #000000; stroke-width: 0.75"/>
    <g clip-path="url(#pf2e6346080)">
     <use xlink:href="#m548a39668f" x="127.9144" y="226.513406" style="stroke: #000000"/>
     <use xlink:href="#m548a39668f" x="126.724" y="214.609406" style="stroke: #000000"/>
     <use xlink:href="#m548a39668f" x="125.5336" y="202.705406" style="stroke: #000000"/>
     <use xlink:href="#m548a39668f" x="123.1528" y="190.801406" style="stroke: #000000"/>
     <use xlink:href="#m548a39668f" x="120.772" y="178.897406" style="stroke: #000000"/>
     <use xlink:href="#m548a39668f" x="119.5816" y="166.993406" style="stroke: #000000"/>
     <use xlink:href="#m548a39668f" x="118.3912" y="155.089406" style="stroke: #000000"/>
     <use xlink:href="#m548a39668f" x="117.2008" y="143.185406" style="stroke: #000000"/>
     <use xlink:href="#m548a39668f" x="117.2008" y="131.281406" style="stroke: #000000"/>
     <use xlink:href="#m548a39668f" x="117.2008" y="119.377406" style="stroke: #000000"/>
     <use xlink:href="#m548a39668f" x="118.3912" y="107.473406" style="stroke: #000000"/>
     <use xlink:href="#m548a39668f" x="119.5816" y="95.569406" style="stroke: #000000"/>
     <use xlink:href="#m548a39668f" x="120.772" y="83.665406" style="stroke: #000000"/>
     <use xlink:href="#m548a39668f" x="123.1528" y="71.761406" style="stroke: #000000"/>
     <use xlink:href="#m548a39668f" x="125.5336" y="59.857406" style="stroke: #000000"/>
     <use xlink:href="#m548a39668f" x="126.724" y="47.953406" style="stroke: #000000"/>
     <use xlink:href="#m548a39668f" x="127.9144" y="36.049406" style="stroke: #000000"/>
    </g>
   </g>
   <g id="line2d_66">
    <path d="M 156.484 226.513406 
L 151.7224 214.609406 
L 148.1512 202.705406 
L 144.58 190.801406 
L 141.0088 178.897406 
L 137.4376 166.993406 
L 136.2472 155.089406 
L 135.0568 143.185406 
L 133.8664 131.281406 
L 135.0568 119.377406 
L 136.2472 107.473406 
L 138.628 95.569406 
L 141.0088 83.665406 
L 144.58 71.761406 
L 149.3416 59.857406 
L 152.9128 47.953406 
L 156.484 36.049406 
" clip-path="url(#pf2e6346080)" style="fill: none; stroke-dasharray: 2.775,1.2; stroke-dashoffset: 0; stroke: #000000; stroke-width: 0.75"/>
    <g clip-path="url(#pf2e6346080)">
     <use xlink:href="#m548a39668f" x="156.484" y="226.513406" style="stroke: #000000"/>
     <use xlink:href="#m548a39668f" x="151.7224" y="214.609406" style="stroke: #000000"/>
     <use xlink:href="#m548a39668f" x="148.1512" y="202.705406" style="stroke: #000000"/>
     <use xlink:href="#m548a39668f" x="144.58" y="190.801406" style="stroke: #000000"/>
     <use xlink:href="#m548a39668f" x="141.0088" y="178.897406" style="stroke: #000000"/>
     <use xlink:href="#m548a39668f" x="137.4376" y="166.993406" style="stroke: #000000"/>
     <use xlink:href="#m548a39668f" x="136.2472" y="155.089406" style="stroke: #000000"/>
     <use xlink:href="#m548a39668f" x="135.0568" y="143.185406" style="stroke: #000000"/>
     <use xlink:href="#m548a39668f" x="133.8664" y="131.281406" style="stroke: #000000"/>
     <use xlink:href="#m548a39668f" x="135.0568" y="119.377406" style="stroke: #000000"/>
     <use xlink:href="#m548a39668f" x="136.2472" y="107.473406" style="stroke: #000000"/>
     <use xlink:href="#m548a39668f" x="138.628" y="95.569406" style="stroke: #000000"/>
     <use xlink:href="#m548a39668f" x="141.0088" y="83.665406" style="stroke: #000000"/>
     <use xlink:href="#m548a39668f" x="144.58" y="71.761406" style="stroke: #000000"/>
     <use xlink:href="#m548a39668f" x="149.3416" y="59.857406" style="stroke: #000000"/>
     <use xlink:href="#m548a39668f" x="152.9128" y="47.953406" style="stroke: #000000"/>
     <use xlink:href="#m548a39668f" x="156.484" y="36.049406" style="stroke: #000000"/>
    </g>
   </g>
   <g id="line2d_67">
    <path d="M 192.196 226.513406 
L 187.4344 214.609406 
L 177.9112 202.705406 
L 168.388 190.801406 
L 161.2456 178.897406 
L 154.1032 166.993406 
L 151.7224 155.089406 
L 149.3416 143.185406 
L 148.1512 131.281406 
L 149.3416 119.377406 
L 151.7224 107.473406 
L 154.1032 95.569406 
L 161.2456 83.665406 
L 168.388 71.761406 
L 177.9112 59.857406 
L 187.4344 47.953406 
L 192.196 36.049406 
" clip-path="url(#pf2e6346080)" style="fill: none; stroke-dasharray: 2.775,1.2; stroke-dashoffset: 0; stroke: #000000; stroke-width: 0.75"/>
    <g clip-path="url(#pf2e6346080)">
     <use xlink:href="#m548a39668f" x="192.196" y="226.513406" style="stroke: #000000"/>
     <use xlink:href="#m548a39668f" x="187.4344" y="214.609406" style="stroke: #000000"/>
     <use xlink:href="#m548a39668f" x="177.9112" y="202.705406" style="stroke: #000000"/>
     <use xlink:href="#m548a39668f" x="168.388" y="190.801406" style="stroke: #000000"/>
     <use xlink:href="#m548a39668f" x="161.2456" y="178.897406" style="stroke: #000000"/>
     <use xlink:href="#m548a39668f" x="154.1032" y="166.993406" style="stroke: #000000"/>
     <use xlink:href="#m548a39668f" x="151.7224" y="155.089406" style="stroke: #000000"/>
     <use xlink:href="#m548a39668f" x="149.3416" y="143.185406" style="stroke: #000000"/>
     <use xlink:href="#m548a39668f" x="148.1512" y="131.281406" style="stroke: #000000"/>
     <use xlink:href="#m548a39668f" x="149.3416" y="119.377406" style="stroke: #000000"/>
     <use xlink:href="#m548a39668f" x="151.7224" y="107.473406" style="stroke: #000000"/>
     <use xlink:href="#m548a39668f" x="154.1032" y="95.569406" style="stroke: #000000"/>
     <use xlink:href="#m548a39668f" x="161.2456" y="83.665406" style="stroke: #000000"/>
     <use xlink:href="#m548a39668f" x="168.388" y="71.761406" style="stroke: #000000"/>
     <use xlink:href="#m548a39668f" x="177.9112" y="59.857406" style="stroke: #000000"/>
     <use xlink:href="#m548a39668f" x="187.4344" y="47.953406" style="stroke: #000000"/>
     <use xlink:href="#m548a39668f" x="192.196" y="36.049406" style="stroke: #000000"/>
    </g>
   </g>
   <g id="line2d_68">
    <path d="M 251.716 226.513406 
L 257.668 214.609406 
L 266.0008 202.705406 
L 274.3336 190.801406 
L 282.6664 178.897406 
L 288.6184 166.993406 
L 293.38 155.089406 
L 295.7608 143.185406 
L 296.9512 131.281406 
L 295.7608 119.377406 
L 293.38 107.473406 
L 288.6184 95.569406 
L 282.6664 83.665406 
L 274.3336 71.761406 
L 266.0008 59.857406 
L 257.668 47.953406 
L 251.716 36.049406 
" clip-path="url(#pf2e6346080)" style="fill: none; stroke-dasharray: 2.775,1.2; stroke-dashoffset: 0; stroke: #000000; stroke-width: 0.75"/>
    <g clip-path="url(#pf2e6346080)">
     <use xlink:href="#m548a39668f" x="251.716" y="226.513406" style="stroke: #000000"/>
     <use xlink:href="#m548a39668f" x="257.668" y="214.609406" style="stroke: #000000"/>
     <use xlink:href="#m548a39668f" x="266.0008" y="202.705406" style="stroke: #000000"/>
     <use xlink:href="#m548a39668f" x="274.3336" y="190.801406" style="stroke: #000000"/>
     <use xlink:href="#m548a39668f" x="282.6664" y="178.897406" style="stroke: #000000"/>
     <use xlink:href="#m548a39668f" x="288.6184" y="166.993406" style="stroke: #000000"/>
     <use xlink:href="#m548a39668f" x="293.38" y="155.089406" style="stroke: #000000"/>
     <use xlink:href="#m548a39668f" x="295.7608" y="143.185406" style="stroke: #000000"/>
     <use xlink:href="#m548a39668f" x="296.9512" y="131.281406" style="stroke: #000000"/>
     <use xlink:href="#m548a39668f" x="295.7608" y="119.377406" style="stroke: #000000"/>
     <use xlink:href="#m548a39668f" x="293.38" y="107.473406" style="stroke: #000000"/>
     <use xlink:href="#m548a39668f" x="288.6184" y="95.569406" style="stroke: #000000"/>
     <use xlink:href="#m548a39668f" x="282.6664" y="83.665406" style="stroke: #000000"/>
     <use xlink:href="#m548a39668f" x="274.3336" y="71.761406" style="stroke: #000000"/>
     <use xlink:href="#m548a39668f" x="266.0008" y="59.857406" style="stroke: #000000"/>
     <use xlink:href="#m548a39668f" x="257.668" y="47.953406" style="stroke: #000000"/>
     <use xlink:href="#m548a39668f" x="251.716" y="36.049406" style="stroke: #000000"/>
    </g>
   </g>
   <g id="line2d_69">
    <path d="M 287.428 226.513406 
L 290.9992 214.609406 
L 294.5704 202.705406 
L 299.332 190.801406 
L 304.0936 178.897406 
L 307.6648 166.993406 
L 310.0456 155.089406 
L 312.4264 143.185406 
L 313.6168 131.281406 
L 312.4264 119.377406 
L 310.0456 107.473406 
L 307.6648 95.569406 
L 304.0936 83.665406 
L 299.332 71.761406 
L 294.5704 59.857406 
L 290.9992 47.953406 
L 287.428 36.049406 
" clip-path="url(#pf2e6346080)" style="fill: none; stroke-dasharray: 2.775,1.2; stroke-dashoffset: 0; stroke: #000000; stroke-width: 0.75"/>
    <g clip-path="url(#pf2e6346080)">
     <use xlink:href="#m548a39668f" x="287.428" y="226.513406" style="stroke: #000000"/>
     <use xlink:href="#m548a39668f" x="290.9992" y="214.609406" style="stroke: #000000"/>
     <use xlink:href="#m548a39668f" x="294.5704" y="202.705406" style="stroke: #000000"/>
     <use xlink:href="#m548a39668f" x="299.332" y="190.801406" style="stroke: #000000"/>
     <use xlink:href="#m548a39668f" x="304.0936" y="178.897406" style="stroke: #000000"/>
     <use xlink:href="#m548a39668f" x="307.6648" y="166.993406" style="stroke: #000000"/>
     <use xlink:href="#m548a39668f" x="310.0456" y="155.089406" style="stroke: #000000"/>
     <use xlink:href="#m548a39668f" x="312.4264" y="143.185406" style="stroke: #000000"/>
     <use xlink:href="#m548a39668f" x="313.6168" y="131.281406" style="stroke: #000000"/>
     <use xlink:href="#m548a39668f" x="312.4264" y="119.377406" style="stroke: #000000"/>
     <use xlink:href="#m548a39668f" x="310.0456" y="107.473406" style="stroke: #000000"/>
     <use xlink:href="#m548a39668f" x="307.6648" y="95.569406" style="stroke: #000000"/>
     <use xlink:href="#m548a39668f" x="304.0936" y="83.665406" style="stroke: #000000"/>
     <use xlink:href="#m548a39668f" x="299.332" y="71.761406" style="stroke: #000000"/>
     <use xlink:href="#m548a39668f" x="294.5704" y="59.857406" style="stroke: #000000"/>
     <use xlink:href="#m548a39668f" x="290.9992" y="47.953406" style="stroke: #000000"/>
     <use xlink:href="#m548a39668f" x="287.428" y="36.049406" style="stroke: #000000"/>
    </g>
   </g>
   <g id="line2d_70">
    <path d="M 317.188 226.513406 
L 318.3784 214.609406 
L 319.5688 202.705406 
L 321.9496 190.801406 
L 325.5208 178.897406 
L 326.7112 166.993406 
L 327.9016 155.089406 
L 329.092 143.185406 
L 330.2824 131.281406 
L 329.092 119.377406 
L 327.9016 107.473406 
L 326.7112 95.569406 
L 325.5208 83.665406 
L 321.9496 71.761406 
L 319.5688 59.857406 
L 318.3784 47.953406 
L 317.188 36.049406 
" clip-path="url(#pf2e6346080)" style="fill: none; stroke-dasharray: 2.775,1.2; stroke-dashoffset: 0; stroke: #000000; stroke-width: 0.75"/>
    <g clip-path="url(#pf2e6346080)">
     <use xlink:href="#m548a39668f" x="317.188" y="226.513406" style="stroke: #000000"/>
     <use xlink:href="#m548a39668f" x="318.3784" y="214.609406" style="stroke: #000000"/>
     <use xlink:href="#m548a39668f" x="319.5688" y="202.705406" style="stroke: #000000"/>
     <use xlink:href="#m548a39668f" x="321.9496" y="190.801406" style="stroke: #000000"/>
     <use xlink:href="#m548a39668f" x="325.5208" y="178.897406" style="stroke: #000000"/>
     <use xlink:href="#m548a39668f" x="326.7112" y="166.993406" style="stroke: #000000"/>
     <use xlink:href="#m548a39668f" x="327.9016" y="155.089406" style="stroke: #000000"/>
     <use xlink:href="#m548a39668f" x="329.092" y="143.185406" style="stroke: #000000"/>
     <use xlink:href="#m548a39668f" x="330.2824" y="131.281406" style="stroke: #000000"/>
     <use xlink:href="#m548a39668f" x="329.092" y="119.377406" style="stroke: #000000"/>
     <use xlink:href="#m548a39668f" x="327.9016" y="107.473406" style="stroke: #000000"/>
     <use xlink:href="#m548a39668f" x="326.7112" y="95.569406" style="stroke: #000000"/>
     <use xlink:href="#m548a39668f" x="325.5208" y="83.665406" style="stroke: #000000"/>
     <use xlink:href="#m548a39668f" x="321.9496" y="71.761406" style="stroke: #000000"/>
     <use xlink:href="#m548a39668f" x="319.5688" y="59.857406" style="stroke: #000000"/>
     <use xlink:href="#m548a39668f" x="318.3784" y="47.953406" style="stroke: #000000"/>
     <use xlink:href="#m548a39668f" x="317.188" y="36.049406" style="stroke: #000000"/>
    </g>
   </g>
   <g id="line2d_71">
    <path d="M 340.996 226.513406 
L 340.996 214.609406 
L 342.1864 202.705406 
L 343.3768 190.801406 
L 344.5672 178.897406 
L 345.7576 166.993406 
L 346.948 155.089406 
L 348.1384 143.185406 
L 349.3288 131.281406 
L 348.1384 119.377406 
L 346.948 107.473406 
L 345.7576 95.569406 
L 344.5672 83.665406 
L 343.3768 71.761406 
L 342.1864 59.857406 
L 340.996 47.953406 
L 340.996 36.049406 
" clip-path="url(#pf2e6346080)" style="fill: none; stroke-dasharray: 2.775,1.2; stroke-dashoffset: 0; stroke: #000000; stroke-width: 0.75"/>
    <g clip-path="url(#pf2e6346080)">
     <use xlink:href="#m548a39668f" x="340.996" y="226.513406" style="stroke: #000000"/>
     <use xlink:href="#m548a39668f" x="340.996" y="214.609406" style="stroke: #000000"/>
     <use xlink:href="#m548a39668f" x="342.1864" y="202.705406" style="stroke: #000000"/>
     <use xlink:href="#m548a39668f" x="343.3768" y="190.801406" style="stroke: #000000"/>
     <use xlink:href="#m548a39668f" x="344.5672" y="178.897406" style="stroke: #000000"/>
     <use xlink:href="#m548a39668f" x="345.7576" y="166.993406" style="stroke: #000000"/>
     <use xlink:href="#m548a39668f" x="346.948" y="155.089406" style="stroke: #000000"/>
     <use xlink:href="#m548a39668f" x="348.1384" y="143.185406" style="stroke: #000000"/>
     <use xlink:href="#m548a39668f" x="349.3288" y="131.281406" style="stroke: #000000"/>
     <use xlink:href="#m548a39668f" x="348.1384" y="119.377406" style="stroke: #000000"/>
     <use xlink:href="#m548a39668f" x="346.948" y="107.473406" style="stroke: #000000"/>
     <use xlink:href="#m548a39668f" x="345.7576" y="95.569406" style="stroke: #000000"/>
     <use xlink:href="#m548a39668f" x="344.5672" y="83.665406" style="stroke: #000000"/>
     <use xlink:href="#m548a39668f" x="343.3768" y="71.761406" style="stroke: #000000"/>
     <use xlink:href="#m548a39668f" x="342.1864" y="59.857406" style="stroke: #000000"/>
     <use xlink:href="#m548a39668f" x="340.996" y="47.953406" style="stroke: #000000"/>
     <use xlink:href="#m548a39668f" x="340.996" y="36.049406" style="stroke: #000000"/>
    </g>
   </g>
   <g id="line2d_72">
    <path d="M 364.804 226.513406 
L 364.804 214.609406 
L 364.804 202.705406 
L 364.804 190.801406 
L 364.804 178.897406 
L 364.804 166.993406 
L 364.804 155.089406 
L 364.804 143.185406 
L 364.804 131.281406 
L 364.804 119.377406 
L 364.804 107.473406 
L 364.804 95.569406 
L 364.804 83.665406 
L 364.804 71.761406 
L 364.804 59.857406 
L 365.9944 47.953406 
L 364.804 36.049406 
" clip-path="url(#pf2e6346080)" style="fill: none; stroke-dasharray: 2.775,1.2; stroke-dashoffset: 0; stroke: #000000; stroke-width: 0.75"/>
    <g clip-path="url(#pf2e6346080)">
     <use xlink:href="#m548a39668f" x="364.804" y="226.513406" style="stroke: #000000"/>
     <use xlink:href="#m548a39668f" x="364.804" y="214.609406" style="stroke: #000000"/>
     <use xlink:href="#m548a39668f" x="364.804" y="202.705406" style="stroke: #000000"/>
     <use xlink:href="#m548a39668f" x="364.804" y="190.801406" style="stroke: #000000"/>
     <use xlink:href="#m548a39668f" x="364.804" y="178.897406" style="stroke: #000000"/>
     <use xlink:href="#m548a39668f" x="364.804" y="166.993406" style="stroke: #000000"/>
     <use xlink:href="#m548a39668f" x="364.804" y="155.089406" style="stroke: #000000"/>
     <use xlink:href="#m548a39668f" x="364.804" y="143.185406" style="stroke: #000000"/>
     <use xlink:href="#m548a39668f" x="364.804" y="131.281406" style="stroke: #000000"/>
     <use xlink:href="#m548a39668f" x="364.804" y="119.377406" style="stroke: #000000"/>
     <use xlink:href="#m548a39668f" x="364.804" y="107.473406" style="stroke: #000000"/>
     <use xlink:href="#m548a39668f" x="364.804" y="95.569406" style="stroke: #000000"/>
     <use xlink:href="#m548a39668f" x="364.804" y="83.665406" style="stroke: #000000"/>
     <use xlink:href="#m548a39668f" x="364.804" y="71.761406" style="stroke: #000000"/>
     <use xlink:href="#m548a39668f" x="364.804" y="59.857406" style="stroke: #000000"/>
     <use xlink:href="#m548a39668f" x="365.9944" y="47.953406" style="stroke: #000000"/>
     <use xlink:href="#m548a39668f" x="364.804" y="36.049406" style="stroke: #000000"/>
    </g>
   </g>
   <g id="line2d_73">
    <path d="M 388.612 226.513406 
L 387.4216 214.609406 
L 386.2312 202.705406 
L 383.8504 190.801406 
L 383.8504 178.897406 
L 383.8504 166.993406 
L 383.8504 155.089406 
L 383.8504 143.185406 
L 382.66 131.281406 
L 383.8504 119.377406 
L 383.8504 107.473406 
L 383.8504 95.569406 
L 383.8504 83.665406 
L 383.8504 71.761406 
L 386.2312 59.857406 
L 387.4216 47.953406 
L 388.612 36.049406 
" clip-path="url(#pf2e6346080)" style="fill: none; stroke-dasharray: 2.775,1.2; stroke-dashoffset: 0; stroke: #000000; stroke-width: 0.75"/>
    <g clip-path="url(#pf2e6346080)">
     <use xlink:href="#m548a39668f" x="388.612" y="226.513406" style="stroke: #000000"/>
     <use xlink:href="#m548a39668f" x="387.4216" y="214.609406" style="stroke: #000000"/>
     <use xlink:href="#m548a39668f" x="386.2312" y="202.705406" style="stroke: #000000"/>
     <use xlink:href="#m548a39668f" x="383.8504" y="190.801406" style="stroke: #000000"/>
     <use xlink:href="#m548a39668f" x="383.8504" y="178.897406" style="stroke: #000000"/>
     <use xlink:href="#m548a39668f" x="383.8504" y="166.993406" style="stroke: #000000"/>
     <use xlink:href="#m548a39668f" x="383.8504" y="155.089406" style="stroke: #000000"/>
     <use xlink:href="#m548a39668f" x="383.8504" y="143.185406" style="stroke: #000000"/>
     <use xlink:href="#m548a39668f" x="382.66" y="131.281406" style="stroke: #000000"/>
     <use xlink:href="#m548a39668f" x="383.8504" y="119.377406" style="stroke: #000000"/>
     <use xlink:href="#m548a39668f" x="383.8504" y="107.473406" style="stroke: #000000"/>
     <use xlink:href="#m548a39668f" x="383.8504" y="95.569406" style="stroke: #000000"/>
     <use xlink:href="#m548a39668f" x="383.8504" y="83.665406" style="stroke: #000000"/>
     <use xlink:href="#m548a39668f" x="383.8504" y="71.761406" style="stroke: #000000"/>
     <use xlink:href="#m548a39668f" x="386.2312" y="59.857406" style="stroke: #000000"/>
     <use xlink:href="#m548a39668f" x="387.4216" y="47.953406" style="stroke: #000000"/>
     <use xlink:href="#m548a39668f" x="388.612" y="36.049406" style="stroke: #000000"/>
    </g>
   </g>
   <g id="patch_4">
    <path d="M 55.3 250.321406 
L 55.3 12.241406 
" style="fill: none; stroke: #000000; stroke-width: 0.8; stroke-linejoin: miter; stroke-linecap: square"/>
   </g>
   <g id="patch_5">
    <path d="M 412.42 250.321406 
L 412.42 12.241406 
" style="fill: none; stroke: #000000; stroke-width: 0.8; stroke-linejoin: miter; stroke-linecap: square"/>
   </g>
   <g id="patch_6">
    <path d="M 55.3 250.321406 
L 412.42 250.321406 
" style="fill: none; stroke: #000000; stroke-width: 0.8; stroke-linejoin: miter; stroke-linecap: square"/>
   </g>
   <g id="patch_7">
    <path d="M 55.3 12.241406 
L 412.42 12.241406 
" style="fill: none; stroke: #000000; stroke-width: 0.8; stroke-linejoin: miter; stroke-linecap: square"/>
   </g>
   <g id="text_34">
    <!-- $\varphi=2$В -->
    <g transform="translate(64.108 238.513406) scale(0.1 -0.1)">
     <defs>
      <path id="STIXGeneral-Italic-3c6" d="M 1402 64 
L 1702 1133 
Q 1792 1459 1894 1712 
Q 1997 1965 2147 2221 
Q 2298 2477 2509 2617 
Q 2720 2758 2970 2758 
Q 3776 2758 3776 1946 
Q 3776 1606 3625 1225 
Q 3475 845 3148 496 
Q 2822 147 2394 6 
Q 2144 -70 1850 -70 
L 1510 -1312 
L 1018 -1312 
L 1363 -70 
Q 832 -70 646 0 
Q 173 186 173 813 
Q 173 1306 489 1827 
Q 806 2349 1274 2618 
Q 1638 2822 1907 2822 
L 1907 2720 
Q 1581 2637 1299 2281 
Q 1018 1926 864 1481 
Q 710 1037 710 640 
Q 710 320 889 192 
Q 1069 64 1402 64 
z
M 2298 1594 
L 1888 64 
Q 2150 64 2330 160 
Q 2688 352 2963 969 
Q 3238 1587 3238 2099 
Q 3238 2330 3193 2451 
Q 3149 2573 3097 2598 
Q 3046 2624 2963 2624 
Q 2752 2624 2595 2365 
Q 2438 2106 2298 1594 
z
" transform="scale(0.015625)"/>
      <path id="STIXGeneral-Regular-3d" d="M 4077 2048 
L 307 2048 
L 307 2470 
L 4077 2470 
L 4077 2048 
z
M 4077 768 
L 307 768 
L 307 1190 
L 4077 1190 
L 4077 768 
z
" transform="scale(0.015625)"/>
      <path id="STIXGeneral-Regular-32" d="M 3034 877 
L 2688 0 
L 186 0 
L 186 77 
L 1325 1286 
Q 1773 1754 1965 2144 
Q 2157 2534 2157 2950 
Q 2157 3379 1920 3616 
Q 1683 3853 1267 3853 
Q 922 3853 720 3673 
Q 518 3494 326 3021 
L 192 3053 
Q 301 3648 630 3987 
Q 960 4326 1523 4326 
Q 2054 4326 2380 4006 
Q 2707 3686 2707 3200 
Q 2707 2477 1888 1613 
L 832 486 
L 2330 486 
Q 2541 486 2665 569 
Q 2790 653 2944 915 
L 3034 877 
z
" transform="scale(0.015625)"/>
      <path id="TimesNewRomanPSMT-412" d="M 2956 2163 
Q 3397 2069 3616 1863 
Q 3919 1575 3919 1159 
Q 3919 844 3719 555 
Q 3519 266 3170 133 
Q 2822 0 2106 0 
L 106 0 
L 106 116 
L 266 116 
Q 531 116 647 284 
Q 719 394 719 750 
L 719 3488 
Q 719 3881 628 3984 
Q 506 4122 266 4122 
L 106 4122 
L 106 4238 
L 1938 4238 
Q 2450 4238 2759 4163 
Q 3228 4050 3475 3764 
Q 3722 3478 3722 3106 
Q 3722 2788 3528 2536 
Q 3334 2284 2956 2163 
z
M 1319 2331 
Q 1434 2309 1582 2298 
Q 1731 2288 1909 2288 
Q 2366 2288 2595 2386 
Q 2825 2484 2947 2687 
Q 3069 2891 3069 3131 
Q 3069 3503 2766 3765 
Q 2463 4028 1881 4028 
Q 1569 4028 1319 3959 
L 1319 2331 
z
M 1319 306 
Q 1681 222 2034 222 
Q 2600 222 2897 476 
Q 3194 731 3194 1106 
Q 3194 1353 3059 1581 
Q 2925 1809 2622 1940 
Q 2319 2072 1872 2072 
Q 1678 2072 1540 2065 
Q 1403 2059 1319 2044 
L 1319 306 
z
" transform="scale(0.015625)"/>
     </defs>
     <use xlink:href="#STIXGeneral-Italic-3c6" transform="translate(0 0.40625)"/>
     <use xlink:href="#STIXGeneral-Regular-3d" transform="translate(76.639993 0.40625)"/>
     <use xlink:href="#STIXGeneral-Regular-32" transform="translate(159.579974 0.40625)"/>
     <use xlink:href="#TimesNewRomanPSMT-412" transform="translate(209.579959 0.40625)"/>
    </g>
   </g>
   <g id="text_35">
    <!-- $\varphi=3$В -->
    <g transform="translate(87.916 248.513406) scale(0.1 -0.1)">
     <defs>
      <path id="STIXGeneral-Regular-33" d="M 390 3264 
L 288 3290 
Q 435 3770 748 4048 
Q 1062 4326 1542 4326 
Q 1990 4326 2265 4083 
Q 2541 3840 2541 3450 
Q 2541 2925 1946 2566 
Q 2298 2413 2477 2227 
Q 2758 1914 2758 1402 
Q 2758 890 2464 506 
Q 2246 211 1840 60 
Q 1434 -90 979 -90 
Q 262 -90 262 275 
Q 262 378 339 442 
Q 416 506 525 506 
Q 685 506 915 339 
Q 1197 141 1466 141 
Q 1818 141 2058 425 
Q 2298 710 2298 1120 
Q 2298 1856 1632 2048 
Q 1434 2112 979 2112 
L 979 2202 
Q 1338 2323 1517 2432 
Q 2035 2726 2035 3290 
Q 2035 3610 1852 3776 
Q 1670 3942 1344 3942 
Q 768 3942 390 3264 
z
" transform="scale(0.015625)"/>
     </defs>
     <use xlink:href="#STIXGeneral-Italic-3c6" transform="translate(0 0.40625)"/>
     <use xlink:href="#STIXGeneral-Regular-3d" transform="translate(76.639993 0.40625)"/>
     <use xlink:href="#STIXGeneral-Regular-33" transform="translate(159.579974 0.40625)"/>
     <use xlink:href="#TimesNewRomanPSMT-412" transform="translate(209.579959 0.40625)"/>
    </g>
   </g>
   <g id="text_36">
    <!-- $\varphi=4$В -->
    <g transform="translate(112.9144 238.513406) scale(0.1 -0.1)">
     <defs>
      <path id="STIXGeneral-Regular-34" d="M 3027 1069 
L 2368 1069 
L 2368 0 
L 1869 0 
L 1869 1069 
L 77 1069 
L 77 1478 
L 2086 4326 
L 2368 4326 
L 2368 1478 
L 3027 1478 
L 3027 1069 
z
M 1869 1478 
L 1869 3674 
L 333 1478 
L 1869 1478 
z
" transform="scale(0.015625)"/>
     </defs>
     <use xlink:href="#STIXGeneral-Italic-3c6" transform="translate(0 0.40625)"/>
     <use xlink:href="#STIXGeneral-Regular-3d" transform="translate(76.639993 0.40625)"/>
     <use xlink:href="#STIXGeneral-Regular-34" transform="translate(159.579974 0.40625)"/>
     <use xlink:href="#TimesNewRomanPSMT-412" transform="translate(209.579959 0.40625)"/>
    </g>
   </g>
   <g id="text_37">
    <!-- $\varphi=5$В -->
    <g transform="translate(141.484 248.513406) scale(0.1 -0.1)">
     <defs>
      <path id="STIXGeneral-Regular-35" d="M 2803 4358 
L 2573 3814 
Q 2534 3731 2400 3731 
L 1158 3731 
L 902 3187 
Q 1606 3053 1920 2896 
Q 2234 2739 2502 2368 
Q 2726 2061 2726 1555 
Q 2726 1094 2576 780 
Q 2426 467 2099 224 
Q 1664 -90 1011 -90 
Q 646 -90 422 19 
Q 198 128 198 307 
Q 198 550 486 550 
Q 717 550 960 352 
Q 1210 147 1414 147 
Q 1747 147 2012 480 
Q 2278 813 2278 1229 
Q 2278 1843 1850 2189 
Q 1293 2637 486 2637 
Q 410 2637 410 2688 
L 416 2720 
L 1114 4237 
L 2438 4237 
Q 2547 4237 2608 4269 
Q 2669 4301 2746 4403 
L 2803 4358 
z
" transform="scale(0.015625)"/>
     </defs>
     <use xlink:href="#STIXGeneral-Italic-3c6" transform="translate(0 0.203125)"/>
     <use xlink:href="#STIXGeneral-Regular-3d" transform="translate(76.639993 0.203125)"/>
     <use xlink:href="#STIXGeneral-Regular-35" transform="translate(159.579974 0.203125)"/>
     <use xlink:href="#TimesNewRomanPSMT-412" transform="translate(209.579959 0.203125)"/>
    </g>
   </g>
   <g id="text_38">
    <!-- $\varphi=6$В -->
    <g transform="translate(177.196 238.513406) scale(0.1 -0.1)">
     <defs>
      <path id="STIXGeneral-Regular-36" d="M 2854 4378 
L 2867 4275 
Q 2112 4154 1606 3664 
Q 1101 3174 973 2451 
Q 1344 2739 1786 2739 
Q 2349 2739 2672 2380 
Q 2995 2022 2995 1402 
Q 2995 774 2669 378 
Q 2291 -90 1651 -90 
Q 870 -90 518 557 
Q 218 1107 218 1786 
Q 218 2835 915 3552 
Q 1312 3962 1731 4131 
Q 2150 4301 2854 4378 
z
M 2419 1203 
Q 2419 2445 1555 2445 
Q 1235 2445 1024 2275 
Q 813 2106 813 1702 
Q 813 954 1046 522 
Q 1280 90 1722 90 
Q 2061 90 2240 394 
Q 2419 698 2419 1203 
z
" transform="scale(0.015625)"/>
     </defs>
     <use xlink:href="#STIXGeneral-Italic-3c6" transform="translate(0 0.59375)"/>
     <use xlink:href="#STIXGeneral-Regular-3d" transform="translate(76.639993 0.59375)"/>
     <use xlink:href="#STIXGeneral-Regular-36" transform="translate(159.579974 0.59375)"/>
     <use xlink:href="#TimesNewRomanPSMT-412" transform="translate(209.579959 0.59375)"/>
    </g>
   </g>
   <g id="text_39">
    <!-- $\varphi=7$В -->
    <g transform="translate(236.716 248.513406) scale(0.1 -0.1)">
     <defs>
      <path id="STIXGeneral-Regular-37" d="M 2874 4134 
L 1517 -51 
L 1101 -51 
L 2368 3763 
L 992 3763 
Q 717 3763 582 3667 
Q 448 3571 243 3238 
L 128 3296 
L 512 4237 
L 2874 4237 
L 2874 4134 
z
" transform="scale(0.015625)"/>
     </defs>
     <use xlink:href="#STIXGeneral-Italic-3c6" transform="translate(0 0.78125)"/>
     <use xlink:href="#STIXGeneral-Regular-3d" transform="translate(76.639993 0.78125)"/>
     <use xlink:href="#STIXGeneral-Regular-37" transform="translate(159.579974 0.78125)"/>
     <use xlink:href="#TimesNewRomanPSMT-412" transform="translate(209.579959 0.78125)"/>
    </g>
   </g>
   <g id="text_40">
    <!-- $\varphi=8$В -->
    <g transform="translate(272.428 238.513406) scale(0.1 -0.1)">
     <defs>
      <path id="STIXGeneral-Regular-38" d="M 2848 992 
Q 2848 499 2505 204 
Q 2163 -90 1587 -90 
Q 1050 -90 704 204 
Q 358 499 358 954 
Q 358 1293 524 1533 
Q 691 1773 1190 2125 
Q 710 2522 553 2765 
Q 397 3008 397 3328 
Q 397 3782 745 4054 
Q 1094 4326 1638 4326 
Q 2106 4326 2410 4060 
Q 2714 3795 2714 3411 
Q 2714 3059 2531 2848 
Q 2349 2637 1856 2374 
Q 2432 1990 2640 1689 
Q 2848 1389 2848 992 
z
M 2272 3411 
Q 2272 3744 2086 3945 
Q 1901 4147 1574 4147 
Q 1248 4147 1059 3977 
Q 870 3808 870 3513 
Q 870 3219 1059 2979 
Q 1248 2739 1670 2490 
Q 1997 2682 2134 2896 
Q 2272 3110 2272 3411 
z
M 1734 1741 
L 1357 1997 
Q 1075 1766 960 1545 
Q 845 1325 845 1011 
Q 845 576 1065 333 
Q 1286 90 1658 90 
Q 1971 90 2166 285 
Q 2362 480 2362 794 
Q 2362 1082 2214 1299 
Q 2067 1517 1734 1741 
z
" transform="scale(0.015625)"/>
     </defs>
     <use xlink:href="#STIXGeneral-Italic-3c6" transform="translate(0 0.40625)"/>
     <use xlink:href="#STIXGeneral-Regular-3d" transform="translate(76.639993 0.40625)"/>
     <use xlink:href="#STIXGeneral-Regular-38" transform="translate(159.579974 0.40625)"/>
     <use xlink:href="#TimesNewRomanPSMT-412" transform="translate(209.579959 0.40625)"/>
    </g>
   </g>
   <g id="text_41">
    <!-- $\varphi=9$В -->
    <g transform="translate(302.188 248.513406) scale(0.1 -0.1)">
     <defs>
      <path id="STIXGeneral-Regular-39" d="M 378 -141 
L 358 -13 
Q 1094 115 1603 608 
Q 2112 1101 2304 1882 
Q 1933 1517 1344 1517 
Q 826 1517 509 1875 
Q 192 2234 192 2816 
Q 192 3462 573 3894 
Q 954 4326 1523 4326 
Q 2131 4326 2528 3840 
Q 2938 3328 2938 2522 
Q 2938 1958 2742 1462 
Q 2547 966 2170 621 
Q 1773 262 1395 105 
Q 1018 -51 378 -141 
z
M 2317 2272 
L 2317 2522 
Q 2317 4147 1472 4147 
Q 1171 4147 1005 3930 
Q 909 3802 845 3546 
Q 781 3290 781 3034 
Q 781 2464 995 2128 
Q 1210 1792 1568 1792 
Q 1824 1792 2070 1917 
Q 2317 2042 2317 2272 
z
" transform="scale(0.015625)"/>
     </defs>
     <use xlink:href="#STIXGeneral-Italic-3c6" transform="translate(0 0.40625)"/>
     <use xlink:href="#STIXGeneral-Regular-3d" transform="translate(76.639993 0.40625)"/>
     <use xlink:href="#STIXGeneral-Regular-39" transform="translate(159.579974 0.40625)"/>
     <use xlink:href="#TimesNewRomanPSMT-412" transform="translate(209.579959 0.40625)"/>
    </g>
   </g>
   <g id="text_42">
    <!-- $\varphi=10$В -->
    <g transform="translate(325.996 238.513406) scale(0.1 -0.1)">
     <defs>
      <path id="STIXGeneral-Regular-31" d="M 2522 0 
L 755 0 
L 755 96 
Q 1107 115 1235 227 
Q 1363 339 1363 608 
L 1363 3482 
Q 1363 3795 1171 3795 
Q 1082 3795 883 3718 
L 710 3654 
L 710 3744 
L 1856 4326 
L 1914 4307 
L 1914 486 
Q 1914 275 2042 185 
Q 2170 96 2522 96 
L 2522 0 
z
" transform="scale(0.015625)"/>
      <path id="STIXGeneral-Regular-30" d="M 3046 2112 
Q 3046 1683 2963 1302 
Q 2880 922 2717 602 
Q 2554 282 2266 96 
Q 1978 -90 1600 -90 
Q 1210 -90 915 108 
Q 621 307 461 640 
Q 301 973 227 1350 
Q 154 1728 154 2150 
Q 154 2746 301 3222 
Q 448 3699 790 4012 
Q 1133 4326 1626 4326 
Q 2253 4326 2649 3712 
Q 3046 3098 3046 2112 
z
M 2432 2080 
Q 2432 3091 2217 3625 
Q 2003 4160 1587 4160 
Q 1190 4160 979 3622 
Q 768 3085 768 2106 
Q 768 1120 979 598 
Q 1190 77 1600 77 
Q 2003 77 2217 598 
Q 2432 1120 2432 2080 
z
" transform="scale(0.015625)"/>
     </defs>
     <use xlink:href="#STIXGeneral-Italic-3c6" transform="translate(0 0.40625)"/>
     <use xlink:href="#STIXGeneral-Regular-3d" transform="translate(76.639993 0.40625)"/>
     <use xlink:href="#STIXGeneral-Regular-31" transform="translate(159.579974 0.40625)"/>
     <use xlink:href="#STIXGeneral-Regular-30" transform="translate(209.579959 0.40625)"/>
     <use xlink:href="#TimesNewRomanPSMT-412" transform="translate(259.579944 0.40625)"/>
    </g>
   </g>
   <g id="text_43">
    <!-- $\varphi=11$В -->
    <g transform="translate(349.804 248.513406) scale(0.1 -0.1)">
     <use xlink:href="#STIXGeneral-Italic-3c6" transform="translate(0 0.40625)"/>
     <use xlink:href="#STIXGeneral-Regular-3d" transform="translate(76.639993 0.40625)"/>
     <use xlink:href="#STIXGeneral-Regular-31" transform="translate(159.579974 0.40625)"/>
     <use xlink:href="#STIXGeneral-Regular-31" transform="translate(209.579959 0.40625)"/>
     <use xlink:href="#TimesNewRomanPSMT-412" transform="translate(259.579944 0.40625)"/>
    </g>
   </g>
   <g id="text_44">
    <!-- $\varphi=12$В -->
    <g transform="translate(373.612 238.513406) scale(0.1 -0.1)">
     <use xlink:href="#STIXGeneral-Italic-3c6" transform="translate(0 0.40625)"/>
     <use xlink:href="#STIXGeneral-Regular-3d" transform="translate(76.639993 0.40625)"/>
     <use xlink:href="#STIXGeneral-Regular-31" transform="translate(159.579974 0.40625)"/>
     <use xlink:href="#STIXGeneral-Regular-32" transform="translate(209.579959 0.40625)"/>
     <use xlink:href="#TimesNewRomanPSMT-412" transform="translate(259.579944 0.40625)"/>
    </g>
   </g>
   <g id="patch_8">
    <path d="M 224.866898 39.998112 
Q 223.939172 49.939395 223.011445 59.880679 
L 224.504956 60.020054 
Q 223.230478 62.91473 221.956 65.809406 
Q 221.23913 62.728896 220.52226 59.648386 
L 222.015771 59.787762 
Q 222.943498 49.846478 223.871225 39.905195 
L 224.866898 39.998112 
z
"/>
   </g>
   <g id="text_45">
    <!-- $\varphi=6.5$В -->
    <g transform="translate(206.956 35.809406) scale(0.1 -0.1)">
     <defs>
      <path id="STIXGeneral-Regular-2e" d="M 1158 275 
Q 1158 134 1052 32 
Q 947 -70 800 -70 
Q 653 -70 550 32 
Q 448 134 448 281 
Q 448 429 553 534 
Q 659 640 806 640 
Q 947 640 1052 531 
Q 1158 422 1158 275 
z
" transform="scale(0.015625)"/>
     </defs>
     <use xlink:href="#STIXGeneral-Italic-3c6" transform="translate(0 0.203125)"/>
     <use xlink:href="#STIXGeneral-Regular-3d" transform="translate(76.639993 0.203125)"/>
     <use xlink:href="#STIXGeneral-Regular-36" transform="translate(159.579974 0.203125)"/>
     <use xlink:href="#STIXGeneral-Regular-2e" transform="translate(209.579959 0.203125)"/>
     <use xlink:href="#STIXGeneral-Regular-35" transform="translate(234.579944 0.203125)"/>
     <use xlink:href="#TimesNewRomanPSMT-412" transform="translate(284.579929 0.203125)"/>
    </g>
   </g>
   <g id="patch_9">
    <path d="M 183.733769 272.85422 
Q 179.419426 252.669579 175.105084 232.484939 
L 173.638218 232.798472 
Q 173.989109 229.655939 174.34 226.513406 
Q 175.944931 229.237894 177.549861 231.962383 
L 176.082995 232.275916 
Q 180.397337 252.460557 184.711679 272.645198 
L 183.733769 272.85422 
z
"/>
   </g>
   <g id="text_46">
    <!-- $E_{min}=0.033$ -->
    <g transform="translate(160 281.692469) scale(0.1 -0.1)">
     <defs>
      <path id="STIXGeneral-Italic-45" d="M 4058 4179 
L 3859 3194 
L 3718 3206 
Q 3738 3366 3738 3501 
Q 3738 3789 3501 3878 
Q 3264 3968 2509 3968 
Q 2240 3968 2157 3939 
Q 2074 3910 2042 3802 
L 1619 2310 
L 2118 2310 
Q 2541 2310 2681 2412 
Q 2822 2515 3008 2931 
L 3123 2906 
L 2688 1421 
L 2560 1453 
Q 2605 1651 2605 1786 
Q 2605 1939 2560 1984 
Q 2451 2080 2061 2080 
L 1562 2080 
L 1357 1363 
Q 1126 550 1126 429 
Q 1126 211 1632 211 
Q 2458 211 2931 461 
Q 3174 589 3533 1088 
L 3635 1037 
L 3238 0 
L -6 0 
L -6 102 
Q 269 154 352 227 
Q 435 301 512 576 
L 1299 3405 
Q 1370 3642 1370 3814 
Q 1370 3942 1270 3996 
Q 1171 4051 877 4077 
L 877 4179 
L 4058 4179 
z
" transform="scale(0.015625)"/>
      <path id="STIXGeneral-Italic-6d" d="M 4506 672 
L 4474 627 
Q 3981 -58 3552 -58 
Q 3296 -58 3296 237 
Q 3296 333 3379 659 
L 3750 2112 
Q 3795 2291 3795 2355 
Q 3795 2413 3756 2451 
Q 3718 2490 3667 2490 
Q 3366 2490 2829 1741 
Q 2592 1408 2457 1072 
Q 2323 736 2138 0 
L 1658 0 
L 1830 595 
Q 2266 2099 2266 2330 
Q 2266 2490 2125 2490 
Q 1965 2490 1702 2237 
Q 1440 1984 1171 1574 
Q 1011 1325 899 1043 
Q 787 762 557 0 
L 77 0 
L 352 922 
Q 704 2093 704 2381 
Q 704 2522 442 2522 
L 282 2522 
L 282 2624 
L 1318 2822 
L 1338 2810 
L 966 1472 
Q 1798 2822 2374 2822 
Q 2560 2822 2659 2720 
Q 2758 2618 2758 2438 
Q 2758 2195 2502 1466 
Q 2842 2003 3069 2275 
Q 3296 2547 3526 2694 
Q 3731 2822 3930 2822 
Q 4102 2822 4201 2710 
Q 4301 2598 4301 2419 
Q 4301 2336 4282 2240 
L 3846 634 
Q 3782 390 3782 346 
Q 3782 243 3859 243 
Q 4000 243 4275 582 
L 4410 749 
L 4506 672 
z
" transform="scale(0.015625)"/>
      <path id="STIXGeneral-Italic-69" d="M 1690 3834 
Q 1690 3699 1597 3603 
Q 1504 3507 1376 3507 
Q 1235 3507 1152 3600 
Q 1069 3693 1069 3846 
Q 1069 3994 1155 4090 
Q 1242 4186 1370 4186 
Q 1498 4186 1594 4080 
Q 1690 3974 1690 3834 
z
M 1421 730 
L 1504 659 
Q 1235 243 1049 86 
Q 864 -70 627 -70 
Q 314 -70 314 282 
Q 314 467 454 992 
L 762 2125 
Q 819 2330 819 2406 
Q 819 2502 745 2528 
Q 672 2554 410 2560 
L 410 2662 
Q 704 2688 1434 2822 
L 1459 2803 
L 858 608 
Q 794 390 794 326 
Q 794 230 883 230 
Q 1043 230 1421 730 
z
" transform="scale(0.015625)"/>
      <path id="STIXGeneral-Italic-6e" d="M 2944 749 
L 3034 666 
Q 2707 218 2534 80 
Q 2362 -58 2138 -58 
Q 2010 -58 1923 28 
Q 1837 115 1837 288 
Q 1837 390 1939 768 
L 2221 1805 
Q 2310 2150 2310 2310 
Q 2310 2496 2157 2496 
Q 1971 2496 1750 2275 
Q 1530 2054 1210 1587 
Q 998 1274 899 1024 
Q 800 774 570 0 
L 90 0 
L 704 2240 
Q 717 2304 717 2349 
Q 717 2445 630 2480 
Q 544 2515 301 2522 
L 301 2624 
Q 550 2675 857 2729 
Q 1165 2784 1338 2822 
L 1363 2810 
L 934 1414 
Q 1408 2170 1753 2496 
Q 2099 2822 2413 2822 
Q 2611 2822 2720 2716 
Q 2829 2611 2829 2432 
Q 2829 2272 2765 2048 
L 2406 749 
Q 2317 429 2317 358 
Q 2317 243 2419 243 
Q 2541 243 2810 582 
Q 2854 634 2944 749 
z
" transform="scale(0.015625)"/>
     </defs>
     <use xlink:href="#STIXGeneral-Italic-45" transform="translate(0 0.40625)"/>
     <use xlink:href="#STIXGeneral-Italic-6d" transform="translate(61.099991 -12.821875) scale(0.7)"/>
     <use xlink:href="#STIXGeneral-Italic-69" transform="translate(111.639978 -12.821875) scale(0.7)"/>
     <use xlink:href="#STIXGeneral-Italic-6e" transform="translate(131.099969 -12.821875) scale(0.7)"/>
     <use xlink:href="#STIXGeneral-Regular-3d" transform="translate(184.94933 0.40625)"/>
     <use xlink:href="#STIXGeneral-Regular-30" transform="translate(267.889311 0.40625)"/>
     <use xlink:href="#STIXGeneral-Regular-2e" transform="translate(317.889296 0.40625)"/>
     <use xlink:href="#STIXGeneral-Regular-30" transform="translate(342.889281 0.40625)"/>
     <use xlink:href="#STIXGeneral-Regular-33" transform="translate(392.889265 0.40625)"/>
     <use xlink:href="#STIXGeneral-Regular-33" transform="translate(442.88925 0.40625)"/>
    </g>
   </g>
   <g id="patch_10">
    <path d="M 140.024045 282.742479 
Q 140.825625 215.961497 141.627204 149.180515 
L 140.127312 149.162512 
Q 141.163256 146.173959 142.1992 143.185406 
Q 143.163112 146.197963 144.127024 149.210521 
L 142.627132 149.192517 
Q 141.825553 215.973499 141.023973 282.754481 
L 140.024045 282.742479 
z
"/>
   </g>
   <g id="text_47">
    <!-- $E_{max}=0.083$ -->
    <g transform="translate(90 291.692469) scale(0.1 -0.1)">
     <defs>
      <path id="STIXGeneral-Italic-61" d="M 2963 710 
L 3046 640 
Q 2688 205 2518 70 
Q 2349 -64 2157 -64 
Q 1901 -64 1901 198 
Q 1901 358 2048 934 
Q 1690 397 1389 163 
Q 1088 -70 749 -70 
Q 467 -70 288 125 
Q 109 320 109 672 
Q 109 1158 387 1664 
Q 666 2170 1094 2496 
Q 1523 2822 1939 2822 
Q 2368 2822 2451 2451 
L 2522 2758 
L 2541 2778 
L 2931 2822 
L 2976 2803 
Q 2970 2778 2938 2669 
Q 2368 595 2368 346 
Q 2368 262 2458 262 
Q 2554 262 2790 525 
L 2963 710 
z
M 2336 2310 
Q 2336 2477 2240 2579 
Q 2144 2682 1978 2682 
Q 1542 2682 1139 2093 
Q 928 1779 787 1395 
Q 646 1011 646 717 
Q 646 243 1030 243 
Q 1408 243 1843 870 
Q 2336 1581 2336 2310 
z
" transform="scale(0.015625)"/>
     </defs>
     <use xlink:href="#STIXGeneral-Italic-45" transform="translate(0 0.40625)"/>
     <use xlink:href="#STIXGeneral-Italic-6d" transform="translate(61.099991 -12.821875) scale(0.7)"/>
     <use xlink:href="#STIXGeneral-Italic-61" transform="translate(111.639978 -12.821875) scale(0.7)"/>
     <use xlink:href="#STIXGeneral-Italic-78" transform="translate(146.709972 -12.821875) scale(0.7)"/>
     <use xlink:href="#STIXGeneral-Regular-3d" transform="translate(196.639339 0.40625)"/>
     <use xlink:href="#STIXGeneral-Regular-30" transform="translate(279.57932 0.40625)"/>
     <use xlink:href="#STIXGeneral-Regular-2e" transform="translate(329.579305 0.40625)"/>
     <use xlink:href="#STIXGeneral-Regular-30" transform="translate(354.579289 0.40625)"/>
     <use xlink:href="#STIXGeneral-Regular-38" transform="translate(404.579274 0.40625)"/>
     <use xlink:href="#STIXGeneral-Regular-33" transform="translate(454.579259 0.40625)"/>
    </g>
   </g>
  </g>
 </g>
 <defs>
  <clipPath id="pf2e6346080">
   <rect x="55.3" y="12.241406" width="357.12" height="238.08"/>
  </clipPath>
 </defs>
</svg>
