<?xml version="1.0" encoding="utf-8" standalone="no"?>
<!DOCTYPE svg PUBLIC "-//W3C//DTD SVG 1.1//EN"
  "http://www.w3.org/Graphics/SVG/1.1/DTD/svg11.dtd">
<svg xmlns:xlink="http://www.w3.org/1999/xlink" width="410.42pt" height="314.597937pt" viewBox="0 0 410.42 314.597937" xmlns="http://www.w3.org/2000/svg" version="1.1">
 <metadata>
  <rdf:RDF xmlns:dc="http://purl.org/dc/elements/1.1/" xmlns:cc="http://creativecommons.org/ns#" xmlns:rdf="http://www.w3.org/1999/02/22-rdf-syntax-ns#">
   <cc:Work>
    <dc:type rdf:resource="http://purl.org/dc/dcmitype/StillImage"/>
    <dc:date>2024-12-18T21:55:37.694616</dc:date>
    <dc:format>image/svg+xml</dc:format>
    <dc:creator>
     <cc:Agent>
      <dc:title>Matplotlib v3.9.3, https://matplotlib.org/</dc:title>
     </cc:Agent>
    </dc:creator>
   </cc:Work>
  </rdf:RDF>
 </metadata>
 <defs>
  <style type="text/css">*{stroke-linejoin: round; stroke-linecap: butt}</style>
 </defs>
 <g id="figure_1">
  <g id="patch_1">
   <path d="M 0 314.597937 
L 410.42 314.597937 
L 410.42 0 
L 0 0 
z
" style="fill: #ffffff"/>
  </g>
  <g id="axes_1">
   <g id="patch_2">
    <path d="M 46.1 278.329187 
L 403.22 278.329187 
L 403.22 12.217187 
L 46.1 12.217187 
z
" style="fill: #ffffff"/>
   </g>
   <g id="matplotlib.axis_1">
    <g id="xtick_1">
     <g id="line2d_1">
      <path d="M 57.15895 278.329187 
L 57.15895 12.217187 
" clip-path="url(#pee8cd89ec4)" style="fill: none; stroke: #b0b0b0; stroke-width: 0.8; stroke-linecap: square"/>
     </g>
     <g id="line2d_2">
      <defs>
       <path id="m3a3d2824ca" d="M 0 0 
L 0 3.5 
" style="stroke: #000000; stroke-width: 0.8"/>
      </defs>
      <g>
       <use xlink:href="#m3a3d2824ca" x="57.15895" y="278.329187" style="stroke: #000000; stroke-width: 0.8"/>
      </g>
     </g>
     <g id="text_1">
      <!-- 20 -->
      <g transform="translate(52.15895 292.185437) scale(0.1 -0.1)">
       <defs>
        <path id="Times-Roman-32" d="M 191 72 
Q 1334 1259 1743 1815 
Q 2153 2372 2153 2900 
Q 2153 3363 1903 3605 
Q 1653 3847 1306 3847 
Q 878 3847 613 3534 
Q 466 3363 331 3006 
L 197 3034 
Q 353 3753 726 4033 
Q 1100 4313 1528 4313 
Q 2056 4313 2382 3980 
Q 2709 3647 2709 3166 
Q 2709 2653 2356 2178 
Q 2003 1703 822 488 
L 2256 488 
Q 2556 488 2678 559 
Q 2800 631 2953 909 
L 3034 872 
L 2688 0 
L 191 0 
L 191 72 
z
" transform="scale(0.015625)"/>
        <path id="Times-Roman-30" d="M 1531 116 
Q 1991 116 2162 619 
Q 2334 1122 2334 2075 
Q 2334 2834 2231 3288 
Q 2038 4131 1506 4131 
Q 975 4131 778 3263 
Q 675 2800 675 2044 
Q 675 1334 781 909 
Q 981 116 1531 116 
z
M 1522 4300 
Q 2241 4300 2638 3547 
Q 2953 2938 2953 2147 
Q 2953 1525 2759 975 
Q 2394 -59 1494 -59 
Q 878 -59 481 500 
Q 56 1097 56 2122 
Q 56 2928 341 3509 
Q 725 4300 1522 4300 
z
" transform="scale(0.015625)"/>
       </defs>
       <use xlink:href="#Times-Roman-32"/>
       <use xlink:href="#Times-Roman-30" x="50"/>
      </g>
     </g>
    </g>
    <g id="xtick_2">
     <g id="line2d_3">
      <path d="M 83.027838 278.329187 
L 83.027838 12.217187 
" clip-path="url(#pee8cd89ec4)" style="fill: none; stroke: #b0b0b0; stroke-width: 0.8; stroke-linecap: square"/>
     </g>
     <g id="line2d_4">
      <g>
       <use xlink:href="#m3a3d2824ca" x="83.027838" y="278.329187" style="stroke: #000000; stroke-width: 0.8"/>
      </g>
     </g>
     <g id="text_2">
      <!-- 40 -->
      <g transform="translate(78.027838 292.185437) scale(0.1 -0.1)">
       <defs>
        <path id="Times-Roman-34" d="M 1866 3650 
L 331 1481 
L 1866 1481 
L 1866 3650 
z
M 2072 4294 
L 2369 4294 
L 2369 1481 
L 3022 1481 
L 3022 1066 
L 2369 1066 
L 2369 0 
L 1872 0 
L 1872 1066 
L 72 1066 
L 72 1481 
L 2072 4294 
z
" transform="scale(0.015625)"/>
       </defs>
       <use xlink:href="#Times-Roman-34"/>
       <use xlink:href="#Times-Roman-30" x="50"/>
      </g>
     </g>
    </g>
    <g id="xtick_3">
     <g id="line2d_5">
      <path d="M 108.896726 278.329187 
L 108.896726 12.217187 
" clip-path="url(#pee8cd89ec4)" style="fill: none; stroke: #b0b0b0; stroke-width: 0.8; stroke-linecap: square"/>
     </g>
     <g id="line2d_6">
      <g>
       <use xlink:href="#m3a3d2824ca" x="108.896726" y="278.329187" style="stroke: #000000; stroke-width: 0.8"/>
      </g>
     </g>
     <g id="text_3">
      <!-- 60 -->
      <g transform="translate(103.896726 292.185437) scale(0.1 -0.1)">
       <defs>
        <path id="Times-Roman-36" d="M 2994 1422 
Q 2994 850 2626 390 
Q 2259 -69 1672 -69 
Q 1122 -69 670 447 
Q 219 963 219 1819 
Q 219 2922 1094 3713 
Q 1875 4375 2850 4375 
L 2866 4272 
Q 2475 4200 2192 4076 
Q 1909 3953 1688 3731 
Q 1459 3506 1259 3159 
Q 1059 2813 984 2472 
Q 1178 2591 1319 2647 
Q 1569 2747 1822 2747 
Q 2319 2747 2656 2403 
Q 2994 2059 2994 1422 
z
M 2422 1181 
Q 2422 1597 2291 1919 
Q 2072 2456 1547 2456 
Q 1063 2456 903 2169 
Q 809 2000 809 1606 
Q 809 1097 1026 609 
Q 1244 122 1713 122 
Q 2084 122 2253 439 
Q 2422 756 2422 1181 
z
" transform="scale(0.015625)"/>
       </defs>
       <use xlink:href="#Times-Roman-36"/>
       <use xlink:href="#Times-Roman-30" x="50"/>
      </g>
     </g>
    </g>
    <g id="xtick_4">
     <g id="line2d_7">
      <path d="M 134.765614 278.329187 
L 134.765614 12.217187 
" clip-path="url(#pee8cd89ec4)" style="fill: none; stroke: #b0b0b0; stroke-width: 0.8; stroke-linecap: square"/>
     </g>
     <g id="line2d_8">
      <g>
       <use xlink:href="#m3a3d2824ca" x="134.765614" y="278.329187" style="stroke: #000000; stroke-width: 0.8"/>
      </g>
     </g>
     <g id="text_4">
      <!-- 80 -->
      <g transform="translate(129.765614 292.185437) scale(0.1 -0.1)">
       <defs>
        <path id="Times-Roman-38" d="M 1609 106 
Q 1969 106 2153 306 
Q 2338 506 2338 806 
Q 2338 1147 2142 1358 
Q 1947 1569 1341 1997 
Q 1072 1828 950 1559 
Q 828 1291 828 1041 
Q 828 613 1048 359 
Q 1269 106 1609 106 
z
M 1650 2494 
Q 1944 2700 2056 2841 
Q 2250 3081 2250 3422 
Q 2250 3719 2067 3926 
Q 1884 4134 1513 4134 
Q 1225 4134 1037 3953 
Q 850 3772 850 3513 
Q 850 3219 1070 2967 
Q 1291 2716 1650 2494 
z
M 1169 2131 
Q 756 2463 606 2659 
Q 375 2959 375 3322 
Q 375 3734 717 4021 
Q 1059 4309 1606 4309 
Q 2109 4309 2406 4037 
Q 2703 3766 2703 3406 
Q 2703 3041 2400 2750 
Q 2225 2584 1834 2369 
Q 2366 1975 2595 1683 
Q 2825 1391 2825 994 
Q 2825 544 2486 237 
Q 2147 -69 1578 -69 
Q 1069 -69 705 214 
Q 341 497 341 959 
Q 341 1356 594 1659 
Q 759 1856 1169 2131 
z
" transform="scale(0.015625)"/>
       </defs>
       <use xlink:href="#Times-Roman-38"/>
       <use xlink:href="#Times-Roman-30" x="50"/>
      </g>
     </g>
    </g>
    <g id="xtick_5">
     <g id="line2d_9">
      <path d="M 160.634502 278.329187 
L 160.634502 12.217187 
" clip-path="url(#pee8cd89ec4)" style="fill: none; stroke: #b0b0b0; stroke-width: 0.8; stroke-linecap: square"/>
     </g>
     <g id="line2d_10">
      <g>
       <use xlink:href="#m3a3d2824ca" x="160.634502" y="278.329187" style="stroke: #000000; stroke-width: 0.8"/>
      </g>
     </g>
     <g id="text_5">
      <!-- 100 -->
      <g transform="translate(153.134502 292.185437) scale(0.1 -0.1)">
       <defs>
        <path id="Times-Roman-31" d="M 1894 4294 
Q 1906 4278 1907 4270 
Q 1909 4263 1909 4234 
L 1909 472 
Q 1909 231 2037 165 
Q 2166 100 2516 88 
L 2516 0 
L 753 0 
L 753 94 
Q 1131 113 1247 197 
Q 1363 281 1363 563 
L 1363 3456 
Q 1363 3606 1325 3684 
Q 1288 3763 1163 3763 
Q 1081 3763 951 3717 
Q 822 3672 709 3622 
L 709 3709 
L 1856 4294 
L 1894 4294 
z
" transform="scale(0.015625)"/>
       </defs>
       <use xlink:href="#Times-Roman-31"/>
       <use xlink:href="#Times-Roman-30" x="50"/>
       <use xlink:href="#Times-Roman-30" x="100"/>
      </g>
     </g>
    </g>
    <g id="xtick_6">
     <g id="line2d_11">
      <path d="M 186.50339 278.329187 
L 186.50339 12.217187 
" clip-path="url(#pee8cd89ec4)" style="fill: none; stroke: #b0b0b0; stroke-width: 0.8; stroke-linecap: square"/>
     </g>
     <g id="line2d_12">
      <g>
       <use xlink:href="#m3a3d2824ca" x="186.50339" y="278.329187" style="stroke: #000000; stroke-width: 0.8"/>
      </g>
     </g>
     <g id="text_6">
      <!-- 120 -->
      <g transform="translate(179.00339 292.185437) scale(0.1 -0.1)">
       <use xlink:href="#Times-Roman-31"/>
       <use xlink:href="#Times-Roman-32" x="50"/>
       <use xlink:href="#Times-Roman-30" x="100"/>
      </g>
     </g>
    </g>
    <g id="xtick_7">
     <g id="line2d_13">
      <path d="M 212.372278 278.329187 
L 212.372278 12.217187 
" clip-path="url(#pee8cd89ec4)" style="fill: none; stroke: #b0b0b0; stroke-width: 0.8; stroke-linecap: square"/>
     </g>
     <g id="line2d_14">
      <g>
       <use xlink:href="#m3a3d2824ca" x="212.372278" y="278.329187" style="stroke: #000000; stroke-width: 0.8"/>
      </g>
     </g>
     <g id="text_7">
      <!-- 140 -->
      <g transform="translate(204.872278 292.185437) scale(0.1 -0.1)">
       <use xlink:href="#Times-Roman-31"/>
       <use xlink:href="#Times-Roman-34" x="50"/>
       <use xlink:href="#Times-Roman-30" x="100"/>
      </g>
     </g>
    </g>
    <g id="xtick_8">
     <g id="line2d_15">
      <path d="M 238.241166 278.329187 
L 238.241166 12.217187 
" clip-path="url(#pee8cd89ec4)" style="fill: none; stroke: #b0b0b0; stroke-width: 0.8; stroke-linecap: square"/>
     </g>
     <g id="line2d_16">
      <g>
       <use xlink:href="#m3a3d2824ca" x="238.241166" y="278.329187" style="stroke: #000000; stroke-width: 0.8"/>
      </g>
     </g>
     <g id="text_8">
      <!-- 160 -->
      <g transform="translate(230.741166 292.185437) scale(0.1 -0.1)">
       <use xlink:href="#Times-Roman-31"/>
       <use xlink:href="#Times-Roman-36" x="50"/>
       <use xlink:href="#Times-Roman-30" x="100"/>
      </g>
     </g>
    </g>
    <g id="xtick_9">
     <g id="line2d_17">
      <path d="M 264.110054 278.329187 
L 264.110054 12.217187 
" clip-path="url(#pee8cd89ec4)" style="fill: none; stroke: #b0b0b0; stroke-width: 0.8; stroke-linecap: square"/>
     </g>
     <g id="line2d_18">
      <g>
       <use xlink:href="#m3a3d2824ca" x="264.110054" y="278.329187" style="stroke: #000000; stroke-width: 0.8"/>
      </g>
     </g>
     <g id="text_9">
      <!-- 180 -->
      <g transform="translate(256.610054 292.185437) scale(0.1 -0.1)">
       <use xlink:href="#Times-Roman-31"/>
       <use xlink:href="#Times-Roman-38" x="50"/>
       <use xlink:href="#Times-Roman-30" x="100"/>
      </g>
     </g>
    </g>
    <g id="xtick_10">
     <g id="line2d_19">
      <path d="M 289.978942 278.329187 
L 289.978942 12.217187 
" clip-path="url(#pee8cd89ec4)" style="fill: none; stroke: #b0b0b0; stroke-width: 0.8; stroke-linecap: square"/>
     </g>
     <g id="line2d_20">
      <g>
       <use xlink:href="#m3a3d2824ca" x="289.978942" y="278.329187" style="stroke: #000000; stroke-width: 0.8"/>
      </g>
     </g>
     <g id="text_10">
      <!-- 200 -->
      <g transform="translate(282.478942 292.185437) scale(0.1 -0.1)">
       <use xlink:href="#Times-Roman-32"/>
       <use xlink:href="#Times-Roman-30" x="50"/>
       <use xlink:href="#Times-Roman-30" x="100"/>
      </g>
     </g>
    </g>
    <g id="xtick_11">
     <g id="line2d_21">
      <path d="M 315.84783 278.329187 
L 315.84783 12.217187 
" clip-path="url(#pee8cd89ec4)" style="fill: none; stroke: #b0b0b0; stroke-width: 0.8; stroke-linecap: square"/>
     </g>
     <g id="line2d_22">
      <g>
       <use xlink:href="#m3a3d2824ca" x="315.84783" y="278.329187" style="stroke: #000000; stroke-width: 0.8"/>
      </g>
     </g>
     <g id="text_11">
      <!-- 220 -->
      <g transform="translate(308.34783 292.185437) scale(0.1 -0.1)">
       <use xlink:href="#Times-Roman-32"/>
       <use xlink:href="#Times-Roman-32" x="50"/>
       <use xlink:href="#Times-Roman-30" x="100"/>
      </g>
     </g>
    </g>
    <g id="xtick_12">
     <g id="line2d_23">
      <path d="M 341.716719 278.329187 
L 341.716719 12.217187 
" clip-path="url(#pee8cd89ec4)" style="fill: none; stroke: #b0b0b0; stroke-width: 0.8; stroke-linecap: square"/>
     </g>
     <g id="line2d_24">
      <g>
       <use xlink:href="#m3a3d2824ca" x="341.716719" y="278.329187" style="stroke: #000000; stroke-width: 0.8"/>
      </g>
     </g>
     <g id="text_12">
      <!-- 240 -->
      <g transform="translate(334.216719 292.185437) scale(0.1 -0.1)">
       <use xlink:href="#Times-Roman-32"/>
       <use xlink:href="#Times-Roman-34" x="50"/>
       <use xlink:href="#Times-Roman-30" x="100"/>
      </g>
     </g>
    </g>
    <g id="xtick_13">
     <g id="line2d_25">
      <path d="M 367.585607 278.329187 
L 367.585607 12.217187 
" clip-path="url(#pee8cd89ec4)" style="fill: none; stroke: #b0b0b0; stroke-width: 0.8; stroke-linecap: square"/>
     </g>
     <g id="line2d_26">
      <g>
       <use xlink:href="#m3a3d2824ca" x="367.585607" y="278.329187" style="stroke: #000000; stroke-width: 0.8"/>
      </g>
     </g>
     <g id="text_13">
      <!-- 260 -->
      <g transform="translate(360.085607 292.185437) scale(0.1 -0.1)">
       <use xlink:href="#Times-Roman-32"/>
       <use xlink:href="#Times-Roman-36" x="50"/>
       <use xlink:href="#Times-Roman-30" x="100"/>
      </g>
     </g>
    </g>
    <g id="xtick_14">
     <g id="line2d_27">
      <path d="M 393.454495 278.329187 
L 393.454495 12.217187 
" clip-path="url(#pee8cd89ec4)" style="fill: none; stroke: #b0b0b0; stroke-width: 0.8; stroke-linecap: square"/>
     </g>
     <g id="line2d_28">
      <g>
       <use xlink:href="#m3a3d2824ca" x="393.454495" y="278.329187" style="stroke: #000000; stroke-width: 0.8"/>
      </g>
     </g>
     <g id="text_14">
      <!-- 280 -->
      <g transform="translate(385.954495 292.185437) scale(0.1 -0.1)">
       <use xlink:href="#Times-Roman-32"/>
       <use xlink:href="#Times-Roman-38" x="50"/>
       <use xlink:href="#Times-Roman-30" x="100"/>
      </g>
     </g>
    </g>
    <g id="text_15">
     <!-- $x$, мм -->
     <g transform="translate(381.62 305.219812) scale(0.1 -0.1)">
      <defs>
       <path id="STIXGeneral-Italic-78" d="M 1555 2272 
L 1632 1907 
Q 1971 2426 2179 2624 
Q 2387 2822 2598 2822 
Q 2714 2822 2787 2755 
Q 2861 2688 2861 2585 
Q 2861 2483 2800 2419 
Q 2739 2355 2643 2355 
Q 2586 2355 2490 2409 
Q 2394 2464 2310 2464 
Q 2125 2464 1683 1690 
Q 1683 1606 1734 1402 
L 1939 544 
Q 2003 282 2131 282 
Q 2234 282 2432 538 
Q 2451 563 2476 598 
Q 2502 634 2521 662 
Q 2541 691 2566 717 
L 2662 659 
Q 2387 230 2227 80 
Q 2067 -70 1882 -70 
Q 1728 -70 1645 26 
Q 1562 122 1504 365 
L 1318 1126 
L 755 365 
Q 557 96 432 13 
Q 307 -70 147 -70 
Q 0 -70 -86 0 
Q -173 70 -173 198 
Q -173 294 -112 361 
Q -51 429 45 429 
Q 122 429 250 358 
Q 346 301 416 301 
Q 525 301 742 614 
L 1267 1357 
L 1088 2150 
Q 1024 2432 969 2509 
Q 915 2586 794 2586 
Q 717 2586 544 2541 
L 429 2509 
L 410 2611 
L 480 2637 
Q 992 2822 1229 2822 
Q 1350 2822 1420 2707 
Q 1491 2592 1555 2272 
z
" transform="scale(0.015625)"/>
       <path id="Times-Roman-2c" d="M 1569 66 
Q 1569 -250 1341 -522 
Q 1113 -794 850 -913 
L 791 -788 
Q 1091 -619 1205 -422 
Q 1319 -225 1319 -94 
Q 1319 -50 1291 -37 
Q 1263 -25 1231 -25 
L 1022 -47 
Q 891 -47 781 39 
Q 672 125 672 288 
Q 672 413 762 531 
Q 853 650 1059 650 
Q 1256 650 1412 495 
Q 1569 341 1569 66 
z
" transform="scale(0.015625)"/>
       <path id="Times-Roman-20" transform="scale(0.015625)"/>
       <path id="Times-Roman-43c" d="M 63 91 
Q 306 94 388 153 
Q 488 225 488 447 
L 488 2419 
Q 488 2644 388 2716 
Q 309 2772 63 2778 
L 63 2869 
L 959 2869 
L 1978 769 
L 2859 2869 
L 3822 2869 
L 3822 2778 
Q 3575 2772 3494 2716 
Q 3391 2644 3391 2419 
L 3391 447 
Q 3391 222 3494 150 
Q 3575 94 3822 91 
L 3822 0 
L 2438 0 
L 2438 91 
Q 2675 94 2756 150 
Q 2859 222 2859 447 
L 2859 2316 
L 2847 2316 
L 1819 0 
L 1753 0 
L 722 2156 
L 716 2156 
L 716 447 
Q 716 225 816 153 
Q 897 94 1141 91 
L 1141 0 
L 63 0 
L 63 91 
z
" transform="scale(0.015625)"/>
      </defs>
      <use xlink:href="#STIXGeneral-Italic-78" transform="translate(0 0.171875)"/>
      <use xlink:href="#Times-Roman-2c" transform="translate(44.399994 0.171875)"/>
      <use xlink:href="#Times-Roman-20" transform="translate(69.399994 0.171875)"/>
      <use xlink:href="#Times-Roman-43c" transform="translate(94.399994 0.171875)"/>
      <use xlink:href="#Times-Roman-43c" transform="translate(155.093353 0.171875)"/>
     </g>
    </g>
   </g>
   <g id="matplotlib.axis_2">
    <g id="ytick_1">
     <g id="line2d_29">
      <path d="M 46.1 258.052318 
L 403.22 258.052318 
" clip-path="url(#pee8cd89ec4)" style="fill: none; stroke: #b0b0b0; stroke-width: 0.8; stroke-linecap: square"/>
     </g>
     <g id="line2d_30">
      <defs>
       <path id="m0883411854" d="M 0 0 
L -3.5 0 
" style="stroke: #000000; stroke-width: 0.8"/>
      </defs>
      <g>
       <use xlink:href="#m0883411854" x="46.1" y="258.052318" style="stroke: #000000; stroke-width: 0.8"/>
      </g>
     </g>
     <g id="text_16">
      <!-- 2 -->
      <g transform="translate(34.1 261.480443) scale(0.1 -0.1)">
       <use xlink:href="#Times-Roman-32"/>
      </g>
     </g>
    </g>
    <g id="ytick_2">
     <g id="line2d_31">
      <path d="M 46.1 211.304492 
L 403.22 211.304492 
" clip-path="url(#pee8cd89ec4)" style="fill: none; stroke: #b0b0b0; stroke-width: 0.8; stroke-linecap: square"/>
     </g>
     <g id="line2d_32">
      <g>
       <use xlink:href="#m0883411854" x="46.1" y="211.304492" style="stroke: #000000; stroke-width: 0.8"/>
      </g>
     </g>
     <g id="text_17">
      <!-- 4 -->
      <g transform="translate(34.1 214.732617) scale(0.1 -0.1)">
       <use xlink:href="#Times-Roman-34"/>
      </g>
     </g>
    </g>
    <g id="ytick_3">
     <g id="line2d_33">
      <path d="M 46.1 164.556666 
L 403.22 164.556666 
" clip-path="url(#pee8cd89ec4)" style="fill: none; stroke: #b0b0b0; stroke-width: 0.8; stroke-linecap: square"/>
     </g>
     <g id="line2d_34">
      <g>
       <use xlink:href="#m0883411854" x="46.1" y="164.556666" style="stroke: #000000; stroke-width: 0.8"/>
      </g>
     </g>
     <g id="text_18">
      <!-- 6 -->
      <g transform="translate(34.1 167.984791) scale(0.1 -0.1)">
       <use xlink:href="#Times-Roman-36"/>
      </g>
     </g>
    </g>
    <g id="ytick_4">
     <g id="line2d_35">
      <path d="M 46.1 117.80884 
L 403.22 117.80884 
" clip-path="url(#pee8cd89ec4)" style="fill: none; stroke: #b0b0b0; stroke-width: 0.8; stroke-linecap: square"/>
     </g>
     <g id="line2d_36">
      <g>
       <use xlink:href="#m0883411854" x="46.1" y="117.80884" style="stroke: #000000; stroke-width: 0.8"/>
      </g>
     </g>
     <g id="text_19">
      <!-- 8 -->
      <g transform="translate(34.1 121.236965) scale(0.1 -0.1)">
       <use xlink:href="#Times-Roman-38"/>
      </g>
     </g>
    </g>
    <g id="ytick_5">
     <g id="line2d_37">
      <path d="M 46.1 71.061014 
L 403.22 71.061014 
" clip-path="url(#pee8cd89ec4)" style="fill: none; stroke: #b0b0b0; stroke-width: 0.8; stroke-linecap: square"/>
     </g>
     <g id="line2d_38">
      <g>
       <use xlink:href="#m0883411854" x="46.1" y="71.061014" style="stroke: #000000; stroke-width: 0.8"/>
      </g>
     </g>
     <g id="text_20">
      <!-- 10 -->
      <g transform="translate(29.1 74.489139) scale(0.1 -0.1)">
       <use xlink:href="#Times-Roman-31"/>
       <use xlink:href="#Times-Roman-30" x="50"/>
      </g>
     </g>
    </g>
    <g id="ytick_6">
     <g id="line2d_39">
      <path d="M 46.1 24.313187 
L 403.22 24.313187 
" clip-path="url(#pee8cd89ec4)" style="fill: none; stroke: #b0b0b0; stroke-width: 0.8; stroke-linecap: square"/>
     </g>
     <g id="line2d_40">
      <g>
       <use xlink:href="#m0883411854" x="46.1" y="24.313187" style="stroke: #000000; stroke-width: 0.8"/>
      </g>
     </g>
     <g id="text_21">
      <!-- 12 -->
      <g transform="translate(29.1 27.741312) scale(0.1 -0.1)">
       <use xlink:href="#Times-Roman-31"/>
       <use xlink:href="#Times-Roman-32" x="50"/>
      </g>
     </g>
    </g>
    <g id="text_22">
     <!-- $\varphi$, В -->
     <g transform="translate(7.2 10.039062) scale(0.1 -0.1)">
      <defs>
       <path id="STIXGeneral-Italic-3c6" d="M 1402 64 
L 1702 1133 
Q 1792 1459 1894 1712 
Q 1997 1965 2147 2221 
Q 2298 2477 2509 2617 
Q 2720 2758 2970 2758 
Q 3776 2758 3776 1946 
Q 3776 1606 3625 1225 
Q 3475 845 3148 496 
Q 2822 147 2394 6 
Q 2144 -70 1850 -70 
L 1510 -1312 
L 1018 -1312 
L 1363 -70 
Q 832 -70 646 0 
Q 173 186 173 813 
Q 173 1306 489 1827 
Q 806 2349 1274 2618 
Q 1638 2822 1907 2822 
L 1907 2720 
Q 1581 2637 1299 2281 
Q 1018 1926 864 1481 
Q 710 1037 710 640 
Q 710 320 889 192 
Q 1069 64 1402 64 
z
M 2298 1594 
L 1888 64 
Q 2150 64 2330 160 
Q 2688 352 2963 969 
Q 3238 1587 3238 2099 
Q 3238 2330 3193 2451 
Q 3149 2573 3097 2598 
Q 3046 2624 2963 2624 
Q 2752 2624 2595 2365 
Q 2438 2106 2298 1594 
z
" transform="scale(0.015625)"/>
       <path id="Times-Roman-412" d="M 128 122 
Q 744 141 744 513 
L 744 3725 
Q 744 4097 128 4116 
L 128 4238 
L 1844 4238 
Q 3597 4238 3597 3163 
Q 3597 2722 3291 2472 
Q 3109 2325 2747 2228 
Q 3103 2138 3303 2016 
Q 3816 1709 3816 1153 
Q 3816 534 3259 234 
Q 2822 0 2144 0 
L 128 0 
L 128 122 
z
M 1394 2088 
L 1394 575 
Q 1394 344 1569 275 
Q 1669 238 1953 238 
Q 3078 238 3078 1166 
Q 3078 2088 1716 2088 
L 1394 2088 
z
M 1394 2344 
L 1919 2344 
Q 2944 2344 2944 3138 
Q 2944 3584 2600 3809 
Q 2309 4000 1838 4000 
Q 1394 4000 1394 3794 
L 1394 2344 
z
" transform="scale(0.015625)"/>
      </defs>
      <use xlink:href="#STIXGeneral-Italic-3c6" transform="translate(0 0.78125)"/>
      <use xlink:href="#Times-Roman-2c" transform="translate(62.199997 0.78125)"/>
      <use xlink:href="#Times-Roman-20" transform="translate(87.199997 0.78125)"/>
      <use xlink:href="#Times-Roman-412" transform="translate(112.199997 0.78125)"/>
     </g>
    </g>
   </g>
   <g id="line2d_41">
    <path d="M 64.919616 266.233187 
L 120.537725 219.485361 
L 182.623057 172.737535 
L 243.414944 125.989709 
L 304.206831 79.241883 
L 364.998718 32.494057 
" clip-path="url(#pee8cd89ec4)" style="fill: none; stroke: #000000; stroke-width: 1.5; stroke-linecap: square"/>
   </g>
   <g id="line2d_42">
    <path d="M 62.332727 258.052318 
L 80.440949 234.678405 
L 98.549171 211.304492 
L 116.657392 187.930579 
L 132.178725 164.556666 
L 293.859276 141.182753 
L 311.967497 117.80884 
L 330.075719 94.434927 
L 350.770829 71.061014 
L 367.585607 47.687101 
L 386.987273 24.313187 
" clip-path="url(#pee8cd89ec4)" style="fill: none; stroke-dasharray: 5.55,2.4; stroke-dashoffset: 0; stroke: #000000; stroke-width: 1.5"/>
   </g>
   <g id="patch_3">
    <path d="M 46.1 278.329187 
L 46.1 12.217187 
" style="fill: none; stroke: #000000; stroke-width: 0.8; stroke-linejoin: miter; stroke-linecap: square"/>
   </g>
   <g id="patch_4">
    <path d="M 403.22 278.329187 
L 403.22 12.217187 
" style="fill: none; stroke: #000000; stroke-width: 0.8; stroke-linejoin: miter; stroke-linecap: square"/>
   </g>
   <g id="patch_5">
    <path d="M 46.1 278.329187 
L 403.22 278.329187 
" style="fill: none; stroke: #000000; stroke-width: 0.8; stroke-linejoin: miter; stroke-linecap: square"/>
   </g>
   <g id="patch_6">
    <path d="M 46.1 12.217187 
L 403.22 12.217187 
" style="fill: none; stroke: #000000; stroke-width: 0.8; stroke-linejoin: miter; stroke-linecap: square"/>
   </g>
  </g>
 </g>
 <defs>
  <clipPath id="pee8cd89ec4">
   <rect x="46.1" y="12.217187" width="357.12" height="266.112"/>
  </clipPath>
 </defs>
</svg>
