<?xml version="1.0" encoding="utf-8" standalone="no"?>
<!DOCTYPE svg PUBLIC "-//W3C//DTD SVG 1.1//EN"
  "http://www.w3.org/Graphics/SVG/1.1/DTD/svg11.dtd">
<svg xmlns:xlink="http://www.w3.org/1999/xlink" width="426.62pt" height="303.571652pt" viewBox="0 0 426.62 303.571652" xmlns="http://www.w3.org/2000/svg" version="1.1">
 <metadata>
  <rdf:RDF xmlns:dc="http://purl.org/dc/elements/1.1/" xmlns:cc="http://creativecommons.org/ns#" xmlns:rdf="http://www.w3.org/1999/02/22-rdf-syntax-ns#">
   <cc:Work>
    <dc:type rdf:resource="http://purl.org/dc/dcmitype/StillImage"/>
    <dc:date>2024-12-18T21:55:36.263513</dc:date>
    <dc:format>image/svg+xml</dc:format>
    <dc:creator>
     <cc:Agent>
      <dc:title>Matplotlib v3.9.3, https://matplotlib.org/</dc:title>
     </cc:Agent>
    </dc:creator>
   </cc:Work>
  </rdf:RDF>
 </metadata>
 <defs>
  <style type="text/css">*{stroke-linejoin: round; stroke-linecap: butt}</style>
 </defs>
 <g id="figure_1">
  <g id="patch_1">
   <path d="M 0 303.571652 
L 426.62 303.571652 
L 426.62 0 
L 0 0 
z
" style="fill: #ffffff"/>
  </g>
  <g id="axes_1">
   <g id="patch_2">
    <path d="M 54.8 267.302902 
L 411.92 267.302902 
L 411.92 12.217188 
L 54.8 12.217188 
z
" style="fill: #ffffff"/>
   </g>
   <g id="matplotlib.axis_1">
    <g id="xtick_1">
     <g id="line2d_1">
      <path d="M 80.308571 267.302902 
L 80.308571 12.217188 
" clip-path="url(#p6baebf515f)" style="fill: none; stroke: #b0b0b0; stroke-width: 0.8; stroke-linecap: square"/>
     </g>
     <g id="line2d_2">
      <defs>
       <path id="m4e4cdd7bf2" d="M 0 0 
L 0 3.5 
" style="stroke: #000000; stroke-width: 0.8"/>
      </defs>
      <g>
       <use xlink:href="#m4e4cdd7bf2" x="80.308571" y="267.302902" style="stroke: #000000; stroke-width: 0.8"/>
      </g>
     </g>
     <g id="text_1">
      <!-- 20 -->
      <g transform="translate(75.308571 281.159152) scale(0.1 -0.1)">
       <defs>
        <path id="Times-Roman-32" d="M 191 72 
Q 1334 1259 1743 1815 
Q 2153 2372 2153 2900 
Q 2153 3363 1903 3605 
Q 1653 3847 1306 3847 
Q 878 3847 613 3534 
Q 466 3363 331 3006 
L 197 3034 
Q 353 3753 726 4033 
Q 1100 4313 1528 4313 
Q 2056 4313 2382 3980 
Q 2709 3647 2709 3166 
Q 2709 2653 2356 2178 
Q 2003 1703 822 488 
L 2256 488 
Q 2556 488 2678 559 
Q 2800 631 2953 909 
L 3034 872 
L 2688 0 
L 191 0 
L 191 72 
z
" transform="scale(0.015625)"/>
        <path id="Times-Roman-30" d="M 1531 116 
Q 1991 116 2162 619 
Q 2334 1122 2334 2075 
Q 2334 2834 2231 3288 
Q 2038 4131 1506 4131 
Q 975 4131 778 3263 
Q 675 2800 675 2044 
Q 675 1334 781 909 
Q 981 116 1531 116 
z
M 1522 4300 
Q 2241 4300 2638 3547 
Q 2953 2938 2953 2147 
Q 2953 1525 2759 975 
Q 2394 -59 1494 -59 
Q 878 -59 481 500 
Q 56 1097 56 2122 
Q 56 2928 341 3509 
Q 725 4300 1522 4300 
z
" transform="scale(0.015625)"/>
       </defs>
       <use xlink:href="#Times-Roman-32"/>
       <use xlink:href="#Times-Roman-30" x="50"/>
      </g>
     </g>
    </g>
    <g id="xtick_2">
     <g id="line2d_3">
      <path d="M 105.817143 267.302902 
L 105.817143 12.217188 
" clip-path="url(#p6baebf515f)" style="fill: none; stroke: #b0b0b0; stroke-width: 0.8; stroke-linecap: square"/>
     </g>
     <g id="line2d_4">
      <g>
       <use xlink:href="#m4e4cdd7bf2" x="105.817143" y="267.302902" style="stroke: #000000; stroke-width: 0.8"/>
      </g>
     </g>
     <g id="text_2">
      <!-- 40 -->
      <g transform="translate(100.817143 281.159152) scale(0.1 -0.1)">
       <defs>
        <path id="Times-Roman-34" d="M 1866 3650 
L 331 1481 
L 1866 1481 
L 1866 3650 
z
M 2072 4294 
L 2369 4294 
L 2369 1481 
L 3022 1481 
L 3022 1066 
L 2369 1066 
L 2369 0 
L 1872 0 
L 1872 1066 
L 72 1066 
L 72 1481 
L 2072 4294 
z
" transform="scale(0.015625)"/>
       </defs>
       <use xlink:href="#Times-Roman-34"/>
       <use xlink:href="#Times-Roman-30" x="50"/>
      </g>
     </g>
    </g>
    <g id="xtick_3">
     <g id="line2d_5">
      <path d="M 131.325714 267.302902 
L 131.325714 12.217188 
" clip-path="url(#p6baebf515f)" style="fill: none; stroke: #b0b0b0; stroke-width: 0.8; stroke-linecap: square"/>
     </g>
     <g id="line2d_6">
      <g>
       <use xlink:href="#m4e4cdd7bf2" x="131.325714" y="267.302902" style="stroke: #000000; stroke-width: 0.8"/>
      </g>
     </g>
     <g id="text_3">
      <!-- 60 -->
      <g transform="translate(126.325714 281.159152) scale(0.1 -0.1)">
       <defs>
        <path id="Times-Roman-36" d="M 2994 1422 
Q 2994 850 2626 390 
Q 2259 -69 1672 -69 
Q 1122 -69 670 447 
Q 219 963 219 1819 
Q 219 2922 1094 3713 
Q 1875 4375 2850 4375 
L 2866 4272 
Q 2475 4200 2192 4076 
Q 1909 3953 1688 3731 
Q 1459 3506 1259 3159 
Q 1059 2813 984 2472 
Q 1178 2591 1319 2647 
Q 1569 2747 1822 2747 
Q 2319 2747 2656 2403 
Q 2994 2059 2994 1422 
z
M 2422 1181 
Q 2422 1597 2291 1919 
Q 2072 2456 1547 2456 
Q 1063 2456 903 2169 
Q 809 2000 809 1606 
Q 809 1097 1026 609 
Q 1244 122 1713 122 
Q 2084 122 2253 439 
Q 2422 756 2422 1181 
z
" transform="scale(0.015625)"/>
       </defs>
       <use xlink:href="#Times-Roman-36"/>
       <use xlink:href="#Times-Roman-30" x="50"/>
      </g>
     </g>
    </g>
    <g id="xtick_4">
     <g id="line2d_7">
      <path d="M 156.834286 267.302902 
L 156.834286 12.217188 
" clip-path="url(#p6baebf515f)" style="fill: none; stroke: #b0b0b0; stroke-width: 0.8; stroke-linecap: square"/>
     </g>
     <g id="line2d_8">
      <g>
       <use xlink:href="#m4e4cdd7bf2" x="156.834286" y="267.302902" style="stroke: #000000; stroke-width: 0.8"/>
      </g>
     </g>
     <g id="text_4">
      <!-- 80 -->
      <g transform="translate(151.834286 281.159152) scale(0.1 -0.1)">
       <defs>
        <path id="Times-Roman-38" d="M 1609 106 
Q 1969 106 2153 306 
Q 2338 506 2338 806 
Q 2338 1147 2142 1358 
Q 1947 1569 1341 1997 
Q 1072 1828 950 1559 
Q 828 1291 828 1041 
Q 828 613 1048 359 
Q 1269 106 1609 106 
z
M 1650 2494 
Q 1944 2700 2056 2841 
Q 2250 3081 2250 3422 
Q 2250 3719 2067 3926 
Q 1884 4134 1513 4134 
Q 1225 4134 1037 3953 
Q 850 3772 850 3513 
Q 850 3219 1070 2967 
Q 1291 2716 1650 2494 
z
M 1169 2131 
Q 756 2463 606 2659 
Q 375 2959 375 3322 
Q 375 3734 717 4021 
Q 1059 4309 1606 4309 
Q 2109 4309 2406 4037 
Q 2703 3766 2703 3406 
Q 2703 3041 2400 2750 
Q 2225 2584 1834 2369 
Q 2366 1975 2595 1683 
Q 2825 1391 2825 994 
Q 2825 544 2486 237 
Q 2147 -69 1578 -69 
Q 1069 -69 705 214 
Q 341 497 341 959 
Q 341 1356 594 1659 
Q 759 1856 1169 2131 
z
" transform="scale(0.015625)"/>
       </defs>
       <use xlink:href="#Times-Roman-38"/>
       <use xlink:href="#Times-Roman-30" x="50"/>
      </g>
     </g>
    </g>
    <g id="xtick_5">
     <g id="line2d_9">
      <path d="M 182.342857 267.302902 
L 182.342857 12.217188 
" clip-path="url(#p6baebf515f)" style="fill: none; stroke: #b0b0b0; stroke-width: 0.8; stroke-linecap: square"/>
     </g>
     <g id="line2d_10">
      <g>
       <use xlink:href="#m4e4cdd7bf2" x="182.342857" y="267.302902" style="stroke: #000000; stroke-width: 0.8"/>
      </g>
     </g>
     <g id="text_5">
      <!-- 100 -->
      <g transform="translate(174.842857 281.159152) scale(0.1 -0.1)">
       <defs>
        <path id="Times-Roman-31" d="M 1894 4294 
Q 1906 4278 1907 4270 
Q 1909 4263 1909 4234 
L 1909 472 
Q 1909 231 2037 165 
Q 2166 100 2516 88 
L 2516 0 
L 753 0 
L 753 94 
Q 1131 113 1247 197 
Q 1363 281 1363 563 
L 1363 3456 
Q 1363 3606 1325 3684 
Q 1288 3763 1163 3763 
Q 1081 3763 951 3717 
Q 822 3672 709 3622 
L 709 3709 
L 1856 4294 
L 1894 4294 
z
" transform="scale(0.015625)"/>
       </defs>
       <use xlink:href="#Times-Roman-31"/>
       <use xlink:href="#Times-Roman-30" x="50"/>
       <use xlink:href="#Times-Roman-30" x="100"/>
      </g>
     </g>
    </g>
    <g id="xtick_6">
     <g id="line2d_11">
      <path d="M 207.851429 267.302902 
L 207.851429 12.217188 
" clip-path="url(#p6baebf515f)" style="fill: none; stroke: #b0b0b0; stroke-width: 0.8; stroke-linecap: square"/>
     </g>
     <g id="line2d_12">
      <g>
       <use xlink:href="#m4e4cdd7bf2" x="207.851429" y="267.302902" style="stroke: #000000; stroke-width: 0.8"/>
      </g>
     </g>
     <g id="text_6">
      <!-- 120 -->
      <g transform="translate(200.351429 281.159152) scale(0.1 -0.1)">
       <use xlink:href="#Times-Roman-31"/>
       <use xlink:href="#Times-Roman-32" x="50"/>
       <use xlink:href="#Times-Roman-30" x="100"/>
      </g>
     </g>
    </g>
    <g id="xtick_7">
     <g id="line2d_13">
      <path d="M 233.36 267.302902 
L 233.36 12.217188 
" clip-path="url(#p6baebf515f)" style="fill: none; stroke: #b0b0b0; stroke-width: 0.8; stroke-linecap: square"/>
     </g>
     <g id="line2d_14">
      <g>
       <use xlink:href="#m4e4cdd7bf2" x="233.36" y="267.302902" style="stroke: #000000; stroke-width: 0.8"/>
      </g>
     </g>
     <g id="text_7">
      <!-- 140 -->
      <g transform="translate(225.86 281.159152) scale(0.1 -0.1)">
       <use xlink:href="#Times-Roman-31"/>
       <use xlink:href="#Times-Roman-34" x="50"/>
       <use xlink:href="#Times-Roman-30" x="100"/>
      </g>
     </g>
    </g>
    <g id="xtick_8">
     <g id="line2d_15">
      <path d="M 258.868571 267.302902 
L 258.868571 12.217188 
" clip-path="url(#p6baebf515f)" style="fill: none; stroke: #b0b0b0; stroke-width: 0.8; stroke-linecap: square"/>
     </g>
     <g id="line2d_16">
      <g>
       <use xlink:href="#m4e4cdd7bf2" x="258.868571" y="267.302902" style="stroke: #000000; stroke-width: 0.8"/>
      </g>
     </g>
     <g id="text_8">
      <!-- 160 -->
      <g transform="translate(251.368571 281.159152) scale(0.1 -0.1)">
       <use xlink:href="#Times-Roman-31"/>
       <use xlink:href="#Times-Roman-36" x="50"/>
       <use xlink:href="#Times-Roman-30" x="100"/>
      </g>
     </g>
    </g>
    <g id="xtick_9">
     <g id="line2d_17">
      <path d="M 284.377143 267.302902 
L 284.377143 12.217188 
" clip-path="url(#p6baebf515f)" style="fill: none; stroke: #b0b0b0; stroke-width: 0.8; stroke-linecap: square"/>
     </g>
     <g id="line2d_18">
      <g>
       <use xlink:href="#m4e4cdd7bf2" x="284.377143" y="267.302902" style="stroke: #000000; stroke-width: 0.8"/>
      </g>
     </g>
     <g id="text_9">
      <!-- 180 -->
      <g transform="translate(276.877143 281.159152) scale(0.1 -0.1)">
       <use xlink:href="#Times-Roman-31"/>
       <use xlink:href="#Times-Roman-38" x="50"/>
       <use xlink:href="#Times-Roman-30" x="100"/>
      </g>
     </g>
    </g>
    <g id="xtick_10">
     <g id="line2d_19">
      <path d="M 309.885714 267.302902 
L 309.885714 12.217188 
" clip-path="url(#p6baebf515f)" style="fill: none; stroke: #b0b0b0; stroke-width: 0.8; stroke-linecap: square"/>
     </g>
     <g id="line2d_20">
      <g>
       <use xlink:href="#m4e4cdd7bf2" x="309.885714" y="267.302902" style="stroke: #000000; stroke-width: 0.8"/>
      </g>
     </g>
     <g id="text_10">
      <!-- 200 -->
      <g transform="translate(302.385714 281.159152) scale(0.1 -0.1)">
       <use xlink:href="#Times-Roman-32"/>
       <use xlink:href="#Times-Roman-30" x="50"/>
       <use xlink:href="#Times-Roman-30" x="100"/>
      </g>
     </g>
    </g>
    <g id="xtick_11">
     <g id="line2d_21">
      <path d="M 335.394286 267.302902 
L 335.394286 12.217188 
" clip-path="url(#p6baebf515f)" style="fill: none; stroke: #b0b0b0; stroke-width: 0.8; stroke-linecap: square"/>
     </g>
     <g id="line2d_22">
      <g>
       <use xlink:href="#m4e4cdd7bf2" x="335.394286" y="267.302902" style="stroke: #000000; stroke-width: 0.8"/>
      </g>
     </g>
     <g id="text_11">
      <!-- 220 -->
      <g transform="translate(327.894286 281.159152) scale(0.1 -0.1)">
       <use xlink:href="#Times-Roman-32"/>
       <use xlink:href="#Times-Roman-32" x="50"/>
       <use xlink:href="#Times-Roman-30" x="100"/>
      </g>
     </g>
    </g>
    <g id="xtick_12">
     <g id="line2d_23">
      <path d="M 360.902857 267.302902 
L 360.902857 12.217188 
" clip-path="url(#p6baebf515f)" style="fill: none; stroke: #b0b0b0; stroke-width: 0.8; stroke-linecap: square"/>
     </g>
     <g id="line2d_24">
      <g>
       <use xlink:href="#m4e4cdd7bf2" x="360.902857" y="267.302902" style="stroke: #000000; stroke-width: 0.8"/>
      </g>
     </g>
     <g id="text_12">
      <!-- 240 -->
      <g transform="translate(353.402857 281.159152) scale(0.1 -0.1)">
       <use xlink:href="#Times-Roman-32"/>
       <use xlink:href="#Times-Roman-34" x="50"/>
       <use xlink:href="#Times-Roman-30" x="100"/>
      </g>
     </g>
    </g>
    <g id="xtick_13">
     <g id="line2d_25">
      <path d="M 386.411429 267.302902 
L 386.411429 12.217188 
" clip-path="url(#p6baebf515f)" style="fill: none; stroke: #b0b0b0; stroke-width: 0.8; stroke-linecap: square"/>
     </g>
     <g id="line2d_26">
      <g>
       <use xlink:href="#m4e4cdd7bf2" x="386.411429" y="267.302902" style="stroke: #000000; stroke-width: 0.8"/>
      </g>
     </g>
     <g id="text_13">
      <!-- 260 -->
      <g transform="translate(378.911429 281.159152) scale(0.1 -0.1)">
       <use xlink:href="#Times-Roman-32"/>
       <use xlink:href="#Times-Roman-36" x="50"/>
       <use xlink:href="#Times-Roman-30" x="100"/>
      </g>
     </g>
    </g>
    <g id="xtick_14">
     <g id="line2d_27">
      <path d="M 411.92 267.302902 
L 411.92 12.217188 
" clip-path="url(#p6baebf515f)" style="fill: none; stroke: #b0b0b0; stroke-width: 0.8; stroke-linecap: square"/>
     </g>
     <g id="line2d_28">
      <g>
       <use xlink:href="#m4e4cdd7bf2" x="411.92" y="267.302902" style="stroke: #000000; stroke-width: 0.8"/>
      </g>
     </g>
     <g id="text_14">
      <!-- 280 -->
      <g transform="translate(404.42 281.159152) scale(0.1 -0.1)">
       <use xlink:href="#Times-Roman-32"/>
       <use xlink:href="#Times-Roman-38" x="50"/>
       <use xlink:href="#Times-Roman-30" x="100"/>
      </g>
     </g>
    </g>
    <g id="text_15">
     <!-- $x$, мм -->
     <g transform="translate(390.32 294.193527) scale(0.1 -0.1)">
      <defs>
       <path id="STIXGeneral-Italic-78" d="M 1555 2272 
L 1632 1907 
Q 1971 2426 2179 2624 
Q 2387 2822 2598 2822 
Q 2714 2822 2787 2755 
Q 2861 2688 2861 2585 
Q 2861 2483 2800 2419 
Q 2739 2355 2643 2355 
Q 2586 2355 2490 2409 
Q 2394 2464 2310 2464 
Q 2125 2464 1683 1690 
Q 1683 1606 1734 1402 
L 1939 544 
Q 2003 282 2131 282 
Q 2234 282 2432 538 
Q 2451 563 2476 598 
Q 2502 634 2521 662 
Q 2541 691 2566 717 
L 2662 659 
Q 2387 230 2227 80 
Q 2067 -70 1882 -70 
Q 1728 -70 1645 26 
Q 1562 122 1504 365 
L 1318 1126 
L 755 365 
Q 557 96 432 13 
Q 307 -70 147 -70 
Q 0 -70 -86 0 
Q -173 70 -173 198 
Q -173 294 -112 361 
Q -51 429 45 429 
Q 122 429 250 358 
Q 346 301 416 301 
Q 525 301 742 614 
L 1267 1357 
L 1088 2150 
Q 1024 2432 969 2509 
Q 915 2586 794 2586 
Q 717 2586 544 2541 
L 429 2509 
L 410 2611 
L 480 2637 
Q 992 2822 1229 2822 
Q 1350 2822 1420 2707 
Q 1491 2592 1555 2272 
z
" transform="scale(0.015625)"/>
       <path id="Times-Roman-2c" d="M 1569 66 
Q 1569 -250 1341 -522 
Q 1113 -794 850 -913 
L 791 -788 
Q 1091 -619 1205 -422 
Q 1319 -225 1319 -94 
Q 1319 -50 1291 -37 
Q 1263 -25 1231 -25 
L 1022 -47 
Q 891 -47 781 39 
Q 672 125 672 288 
Q 672 413 762 531 
Q 853 650 1059 650 
Q 1256 650 1412 495 
Q 1569 341 1569 66 
z
" transform="scale(0.015625)"/>
       <path id="Times-Roman-20" transform="scale(0.015625)"/>
       <path id="Times-Roman-43c" d="M 63 91 
Q 306 94 388 153 
Q 488 225 488 447 
L 488 2419 
Q 488 2644 388 2716 
Q 309 2772 63 2778 
L 63 2869 
L 959 2869 
L 1978 769 
L 2859 2869 
L 3822 2869 
L 3822 2778 
Q 3575 2772 3494 2716 
Q 3391 2644 3391 2419 
L 3391 447 
Q 3391 222 3494 150 
Q 3575 94 3822 91 
L 3822 0 
L 2438 0 
L 2438 91 
Q 2675 94 2756 150 
Q 2859 222 2859 447 
L 2859 2316 
L 2847 2316 
L 1819 0 
L 1753 0 
L 722 2156 
L 716 2156 
L 716 447 
Q 716 225 816 153 
Q 897 94 1141 91 
L 1141 0 
L 63 0 
L 63 91 
z
" transform="scale(0.015625)"/>
      </defs>
      <use xlink:href="#STIXGeneral-Italic-78" transform="translate(0 0.171875)"/>
      <use xlink:href="#Times-Roman-2c" transform="translate(44.399994 0.171875)"/>
      <use xlink:href="#Times-Roman-20" transform="translate(69.399994 0.171875)"/>
      <use xlink:href="#Times-Roman-43c" transform="translate(94.399994 0.171875)"/>
      <use xlink:href="#Times-Roman-43c" transform="translate(155.093353 0.171875)"/>
     </g>
    </g>
   </g>
   <g id="matplotlib.axis_2">
    <g id="ytick_1">
     <g id="line2d_29">
      <path d="M 54.8 241.79433 
L 411.92 241.79433 
" clip-path="url(#p6baebf515f)" style="fill: none; stroke: #b0b0b0; stroke-width: 0.8; stroke-linecap: square"/>
     </g>
     <g id="line2d_30">
      <defs>
       <path id="md15e440e54" d="M 0 0 
L -3.5 0 
" style="stroke: #000000; stroke-width: 0.8"/>
      </defs>
      <g>
       <use xlink:href="#md15e440e54" x="54.8" y="241.79433" style="stroke: #000000; stroke-width: 0.8"/>
      </g>
     </g>
     <g id="text_16">
      <!-- 20 -->
      <g transform="translate(37.8 245.222455) scale(0.1 -0.1)">
       <use xlink:href="#Times-Roman-32"/>
       <use xlink:href="#Times-Roman-30" x="50"/>
      </g>
     </g>
    </g>
    <g id="ytick_2">
     <g id="line2d_31">
      <path d="M 54.8 190.777188 
L 411.92 190.777188 
" clip-path="url(#p6baebf515f)" style="fill: none; stroke: #b0b0b0; stroke-width: 0.8; stroke-linecap: square"/>
     </g>
     <g id="line2d_32">
      <g>
       <use xlink:href="#md15e440e54" x="54.8" y="190.777188" style="stroke: #000000; stroke-width: 0.8"/>
      </g>
     </g>
     <g id="text_17">
      <!-- 60 -->
      <g transform="translate(37.8 194.205313) scale(0.1 -0.1)">
       <use xlink:href="#Times-Roman-36"/>
       <use xlink:href="#Times-Roman-30" x="50"/>
      </g>
     </g>
    </g>
    <g id="ytick_3">
     <g id="line2d_33">
      <path d="M 54.8 139.760045 
L 411.92 139.760045 
" clip-path="url(#p6baebf515f)" style="fill: none; stroke: #b0b0b0; stroke-width: 0.8; stroke-linecap: square"/>
     </g>
     <g id="line2d_34">
      <g>
       <use xlink:href="#md15e440e54" x="54.8" y="139.760045" style="stroke: #000000; stroke-width: 0.8"/>
      </g>
     </g>
     <g id="text_18">
      <!-- 100 -->
      <g transform="translate(32.8 143.18817) scale(0.1 -0.1)">
       <use xlink:href="#Times-Roman-31"/>
       <use xlink:href="#Times-Roman-30" x="50"/>
       <use xlink:href="#Times-Roman-30" x="100"/>
      </g>
     </g>
    </g>
    <g id="ytick_4">
     <g id="line2d_35">
      <path d="M 54.8 88.742902 
L 411.92 88.742902 
" clip-path="url(#p6baebf515f)" style="fill: none; stroke: #b0b0b0; stroke-width: 0.8; stroke-linecap: square"/>
     </g>
     <g id="line2d_36">
      <g>
       <use xlink:href="#md15e440e54" x="54.8" y="88.742902" style="stroke: #000000; stroke-width: 0.8"/>
      </g>
     </g>
     <g id="text_19">
      <!-- 140 -->
      <g transform="translate(32.8 92.171027) scale(0.1 -0.1)">
       <use xlink:href="#Times-Roman-31"/>
       <use xlink:href="#Times-Roman-34" x="50"/>
       <use xlink:href="#Times-Roman-30" x="100"/>
      </g>
     </g>
    </g>
    <g id="ytick_5">
     <g id="line2d_37">
      <path d="M 54.8 37.725759 
L 411.92 37.725759 
" clip-path="url(#p6baebf515f)" style="fill: none; stroke: #b0b0b0; stroke-width: 0.8; stroke-linecap: square"/>
     </g>
     <g id="line2d_38">
      <g>
       <use xlink:href="#md15e440e54" x="54.8" y="37.725759" style="stroke: #000000; stroke-width: 0.8"/>
      </g>
     </g>
     <g id="text_20">
      <!-- 180 -->
      <g transform="translate(32.8 41.153884) scale(0.1 -0.1)">
       <use xlink:href="#Times-Roman-31"/>
       <use xlink:href="#Times-Roman-38" x="50"/>
       <use xlink:href="#Times-Roman-30" x="100"/>
      </g>
     </g>
    </g>
    <g id="text_21">
     <!-- $y$, мм -->
     <g transform="translate(7.2 10.039062) scale(0.1 -0.1)">
      <defs>
       <path id="STIXGeneral-Italic-79" d="M 1555 1190 
L 1690 486 
Q 2118 1190 2294 1558 
Q 2470 1926 2470 2131 
Q 2470 2234 2304 2336 
Q 2138 2445 2138 2586 
Q 2138 2688 2211 2755 
Q 2285 2822 2394 2822 
Q 2534 2822 2630 2720 
Q 2726 2618 2726 2470 
Q 2726 1914 1888 518 
Q 1389 -307 918 -812 
Q 448 -1318 173 -1318 
Q 26 -1318 -64 -1241 
Q -154 -1165 -154 -1043 
Q -154 -934 -80 -860 
Q -6 -787 96 -787 
Q 218 -787 314 -876 
Q 410 -966 486 -966 
Q 602 -966 794 -755 
Q 877 -672 1040 -457 
Q 1203 -243 1248 -173 
Q 1312 -45 1312 51 
Q 1312 243 1113 1046 
Q 915 1850 787 2176 
Q 698 2413 592 2499 
Q 486 2586 294 2586 
Q 192 2586 96 2560 
L 96 2669 
Q 237 2694 301 2707 
Q 563 2758 986 2822 
L 1011 2822 
Q 1082 2822 1277 2227 
Q 1472 1632 1555 1190 
z
" transform="scale(0.015625)"/>
      </defs>
      <use xlink:href="#STIXGeneral-Italic-79" transform="translate(0 0.171875)"/>
      <use xlink:href="#Times-Roman-2c" transform="translate(44.399994 0.171875)"/>
      <use xlink:href="#Times-Roman-20" transform="translate(69.399994 0.171875)"/>
      <use xlink:href="#Times-Roman-43c" transform="translate(94.399994 0.171875)"/>
      <use xlink:href="#Times-Roman-43c" transform="translate(155.093353 0.171875)"/>
     </g>
    </g>
   </g>
   <g id="line2d_39">
    <path d="M 80.308571 241.79433 
L 87.961143 190.777188 
L 87.961143 139.760045 
L 87.961143 88.742902 
L 80.308571 37.725759 
" clip-path="url(#p6baebf515f)" style="fill: none; stroke-dasharray: 2.775,1.2; stroke-dashoffset: 0; stroke: #000000; stroke-width: 0.75"/>
    <defs>
     <path id="m87d8027754" d="M 0 1 
C 0.265203 1 0.51958 0.894634 0.707107 0.707107 
C 0.894634 0.51958 1 0.265203 1 0 
C 1 -0.265203 0.894634 -0.51958 0.707107 -0.707107 
C 0.51958 -0.894634 0.265203 -1 0 -1 
C -0.265203 -1 -0.51958 -0.894634 -0.707107 -0.707107 
C -0.894634 -0.51958 -1 -0.265203 -1 0 
C -1 0.265203 -0.894634 0.51958 -0.707107 0.707107 
C -0.51958 0.894634 -0.265203 1 0 1 
z
" style="stroke: #000000"/>
    </defs>
    <g clip-path="url(#p6baebf515f)">
     <use xlink:href="#m87d8027754" x="80.308571" y="241.79433" style="stroke: #000000"/>
     <use xlink:href="#m87d8027754" x="87.961143" y="190.777188" style="stroke: #000000"/>
     <use xlink:href="#m87d8027754" x="87.961143" y="139.760045" style="stroke: #000000"/>
     <use xlink:href="#m87d8027754" x="87.961143" y="88.742902" style="stroke: #000000"/>
     <use xlink:href="#m87d8027754" x="80.308571" y="37.725759" style="stroke: #000000"/>
    </g>
   </g>
   <g id="line2d_40">
    <path d="M 142.804571 241.79433 
L 142.804571 190.777188 
L 142.804571 139.760045 
L 142.804571 88.742902 
L 142.804571 37.725759 
" clip-path="url(#p6baebf515f)" style="fill: none; stroke-dasharray: 2.775,1.2; stroke-dashoffset: 0; stroke: #000000; stroke-width: 0.75"/>
    <g clip-path="url(#p6baebf515f)">
     <use xlink:href="#m87d8027754" x="142.804571" y="241.79433" style="stroke: #000000"/>
     <use xlink:href="#m87d8027754" x="142.804571" y="190.777188" style="stroke: #000000"/>
     <use xlink:href="#m87d8027754" x="142.804571" y="139.760045" style="stroke: #000000"/>
     <use xlink:href="#m87d8027754" x="142.804571" y="88.742902" style="stroke: #000000"/>
     <use xlink:href="#m87d8027754" x="142.804571" y="37.725759" style="stroke: #000000"/>
    </g>
   </g>
   <g id="line2d_41">
    <path d="M 204.025143 241.79433 
L 204.025143 190.777188 
L 204.025143 139.760045 
L 204.025143 88.742902 
L 204.025143 37.725759 
" clip-path="url(#p6baebf515f)" style="fill: none; stroke-dasharray: 2.775,1.2; stroke-dashoffset: 0; stroke: #000000; stroke-width: 0.75"/>
    <g clip-path="url(#p6baebf515f)">
     <use xlink:href="#m87d8027754" x="204.025143" y="241.79433" style="stroke: #000000"/>
     <use xlink:href="#m87d8027754" x="204.025143" y="190.777188" style="stroke: #000000"/>
     <use xlink:href="#m87d8027754" x="204.025143" y="139.760045" style="stroke: #000000"/>
     <use xlink:href="#m87d8027754" x="204.025143" y="88.742902" style="stroke: #000000"/>
     <use xlink:href="#m87d8027754" x="204.025143" y="37.725759" style="stroke: #000000"/>
    </g>
   </g>
   <g id="line2d_42">
    <path d="M 263.970286 241.79433 
L 263.970286 190.777188 
L 263.970286 139.760045 
L 263.970286 88.742902 
L 263.970286 37.725759 
" clip-path="url(#p6baebf515f)" style="fill: none; stroke-dasharray: 2.775,1.2; stroke-dashoffset: 0; stroke: #000000; stroke-width: 0.75"/>
    <g clip-path="url(#p6baebf515f)">
     <use xlink:href="#m87d8027754" x="263.970286" y="241.79433" style="stroke: #000000"/>
     <use xlink:href="#m87d8027754" x="263.970286" y="190.777188" style="stroke: #000000"/>
     <use xlink:href="#m87d8027754" x="263.970286" y="139.760045" style="stroke: #000000"/>
     <use xlink:href="#m87d8027754" x="263.970286" y="88.742902" style="stroke: #000000"/>
     <use xlink:href="#m87d8027754" x="263.970286" y="37.725759" style="stroke: #000000"/>
    </g>
   </g>
   <g id="line2d_43">
    <path d="M 323.915429 241.79433 
L 323.915429 190.777188 
L 323.915429 139.760045 
L 323.915429 88.742902 
L 323.915429 37.725759 
" clip-path="url(#p6baebf515f)" style="fill: none; stroke-dasharray: 2.775,1.2; stroke-dashoffset: 0; stroke: #000000; stroke-width: 0.75"/>
    <g clip-path="url(#p6baebf515f)">
     <use xlink:href="#m87d8027754" x="323.915429" y="241.79433" style="stroke: #000000"/>
     <use xlink:href="#m87d8027754" x="323.915429" y="190.777188" style="stroke: #000000"/>
     <use xlink:href="#m87d8027754" x="323.915429" y="139.760045" style="stroke: #000000"/>
     <use xlink:href="#m87d8027754" x="323.915429" y="88.742902" style="stroke: #000000"/>
     <use xlink:href="#m87d8027754" x="323.915429" y="37.725759" style="stroke: #000000"/>
    </g>
   </g>
   <g id="line2d_44">
    <path d="M 387.686857 241.79433 
L 383.860571 190.777188 
L 383.860571 139.760045 
L 383.860571 88.742902 
L 387.686857 37.725759 
" clip-path="url(#p6baebf515f)" style="fill: none; stroke-dasharray: 2.775,1.2; stroke-dashoffset: 0; stroke: #000000; stroke-width: 0.75"/>
    <g clip-path="url(#p6baebf515f)">
     <use xlink:href="#m87d8027754" x="387.686857" y="241.79433" style="stroke: #000000"/>
     <use xlink:href="#m87d8027754" x="383.860571" y="190.777188" style="stroke: #000000"/>
     <use xlink:href="#m87d8027754" x="383.860571" y="139.760045" style="stroke: #000000"/>
     <use xlink:href="#m87d8027754" x="383.860571" y="88.742902" style="stroke: #000000"/>
     <use xlink:href="#m87d8027754" x="387.686857" y="37.725759" style="stroke: #000000"/>
    </g>
   </g>
   <g id="patch_3">
    <path d="M 54.8 267.302902 
L 54.8 12.217187 
" style="fill: none; stroke: #000000; stroke-width: 0.8; stroke-linejoin: miter; stroke-linecap: square"/>
   </g>
   <g id="patch_4">
    <path d="M 411.92 267.302902 
L 411.92 12.217187 
" style="fill: none; stroke: #000000; stroke-width: 0.8; stroke-linejoin: miter; stroke-linecap: square"/>
   </g>
   <g id="patch_5">
    <path d="M 54.8 267.302902 
L 411.92 267.302902 
" style="fill: none; stroke: #000000; stroke-width: 0.8; stroke-linejoin: miter; stroke-linecap: square"/>
   </g>
   <g id="patch_6">
    <path d="M 54.8 12.217188 
L 411.92 12.217188 
" style="fill: none; stroke: #000000; stroke-width: 0.8; stroke-linejoin: miter; stroke-linecap: square"/>
   </g>
   <g id="text_22">
    <!-- $\varphi=2$В -->
    <g transform="translate(65.308571 253.79433) scale(0.1 -0.1)">
     <defs>
      <path id="STIXGeneral-Italic-3c6" d="M 1402 64 
L 1702 1133 
Q 1792 1459 1894 1712 
Q 1997 1965 2147 2221 
Q 2298 2477 2509 2617 
Q 2720 2758 2970 2758 
Q 3776 2758 3776 1946 
Q 3776 1606 3625 1225 
Q 3475 845 3148 496 
Q 2822 147 2394 6 
Q 2144 -70 1850 -70 
L 1510 -1312 
L 1018 -1312 
L 1363 -70 
Q 832 -70 646 0 
Q 173 186 173 813 
Q 173 1306 489 1827 
Q 806 2349 1274 2618 
Q 1638 2822 1907 2822 
L 1907 2720 
Q 1581 2637 1299 2281 
Q 1018 1926 864 1481 
Q 710 1037 710 640 
Q 710 320 889 192 
Q 1069 64 1402 64 
z
M 2298 1594 
L 1888 64 
Q 2150 64 2330 160 
Q 2688 352 2963 969 
Q 3238 1587 3238 2099 
Q 3238 2330 3193 2451 
Q 3149 2573 3097 2598 
Q 3046 2624 2963 2624 
Q 2752 2624 2595 2365 
Q 2438 2106 2298 1594 
z
" transform="scale(0.015625)"/>
      <path id="STIXGeneral-Regular-3d" d="M 4077 2048 
L 307 2048 
L 307 2470 
L 4077 2470 
L 4077 2048 
z
M 4077 768 
L 307 768 
L 307 1190 
L 4077 1190 
L 4077 768 
z
" transform="scale(0.015625)"/>
      <path id="STIXGeneral-Regular-32" d="M 3034 877 
L 2688 0 
L 186 0 
L 186 77 
L 1325 1286 
Q 1773 1754 1965 2144 
Q 2157 2534 2157 2950 
Q 2157 3379 1920 3616 
Q 1683 3853 1267 3853 
Q 922 3853 720 3673 
Q 518 3494 326 3021 
L 192 3053 
Q 301 3648 630 3987 
Q 960 4326 1523 4326 
Q 2054 4326 2380 4006 
Q 2707 3686 2707 3200 
Q 2707 2477 1888 1613 
L 832 486 
L 2330 486 
Q 2541 486 2665 569 
Q 2790 653 2944 915 
L 3034 877 
z
" transform="scale(0.015625)"/>
      <path id="Times-Roman-412" d="M 128 122 
Q 744 141 744 513 
L 744 3725 
Q 744 4097 128 4116 
L 128 4238 
L 1844 4238 
Q 3597 4238 3597 3163 
Q 3597 2722 3291 2472 
Q 3109 2325 2747 2228 
Q 3103 2138 3303 2016 
Q 3816 1709 3816 1153 
Q 3816 534 3259 234 
Q 2822 0 2144 0 
L 128 0 
L 128 122 
z
M 1394 2088 
L 1394 575 
Q 1394 344 1569 275 
Q 1669 238 1953 238 
Q 3078 238 3078 1166 
Q 3078 2088 1716 2088 
L 1394 2088 
z
M 1394 2344 
L 1919 2344 
Q 2944 2344 2944 3138 
Q 2944 3584 2600 3809 
Q 2309 4000 1838 4000 
Q 1394 4000 1394 3794 
L 1394 2344 
z
" transform="scale(0.015625)"/>
     </defs>
     <use xlink:href="#STIXGeneral-Italic-3c6" transform="translate(0 0.40625)"/>
     <use xlink:href="#STIXGeneral-Regular-3d" transform="translate(76.639993 0.40625)"/>
     <use xlink:href="#STIXGeneral-Regular-32" transform="translate(159.579974 0.40625)"/>
     <use xlink:href="#Times-Roman-412" transform="translate(209.579959 0.40625)"/>
    </g>
   </g>
   <g id="text_23">
    <!-- $\varphi=3$В -->
    <g transform="translate(127.804571 263.79433) scale(0.1 -0.1)">
     <defs>
      <path id="STIXGeneral-Regular-33" d="M 390 3264 
L 288 3290 
Q 435 3770 748 4048 
Q 1062 4326 1542 4326 
Q 1990 4326 2265 4083 
Q 2541 3840 2541 3450 
Q 2541 2925 1946 2566 
Q 2298 2413 2477 2227 
Q 2758 1914 2758 1402 
Q 2758 890 2464 506 
Q 2246 211 1840 60 
Q 1434 -90 979 -90 
Q 262 -90 262 275 
Q 262 378 339 442 
Q 416 506 525 506 
Q 685 506 915 339 
Q 1197 141 1466 141 
Q 1818 141 2058 425 
Q 2298 710 2298 1120 
Q 2298 1856 1632 2048 
Q 1434 2112 979 2112 
L 979 2202 
Q 1338 2323 1517 2432 
Q 2035 2726 2035 3290 
Q 2035 3610 1852 3776 
Q 1670 3942 1344 3942 
Q 768 3942 390 3264 
z
" transform="scale(0.015625)"/>
     </defs>
     <use xlink:href="#STIXGeneral-Italic-3c6" transform="translate(0 0.40625)"/>
     <use xlink:href="#STIXGeneral-Regular-3d" transform="translate(76.639993 0.40625)"/>
     <use xlink:href="#STIXGeneral-Regular-33" transform="translate(159.579974 0.40625)"/>
     <use xlink:href="#Times-Roman-412" transform="translate(209.579959 0.40625)"/>
    </g>
   </g>
   <g id="text_24">
    <!-- $\varphi=4$В -->
    <g transform="translate(189.025143 253.79433) scale(0.1 -0.1)">
     <defs>
      <path id="STIXGeneral-Regular-34" d="M 3027 1069 
L 2368 1069 
L 2368 0 
L 1869 0 
L 1869 1069 
L 77 1069 
L 77 1478 
L 2086 4326 
L 2368 4326 
L 2368 1478 
L 3027 1478 
L 3027 1069 
z
M 1869 1478 
L 1869 3674 
L 333 1478 
L 1869 1478 
z
" transform="scale(0.015625)"/>
     </defs>
     <use xlink:href="#STIXGeneral-Italic-3c6" transform="translate(0 0.40625)"/>
     <use xlink:href="#STIXGeneral-Regular-3d" transform="translate(76.639993 0.40625)"/>
     <use xlink:href="#STIXGeneral-Regular-34" transform="translate(159.579974 0.40625)"/>
     <use xlink:href="#Times-Roman-412" transform="translate(209.579959 0.40625)"/>
    </g>
   </g>
   <g id="text_25">
    <!-- $\varphi=5$В -->
    <g transform="translate(248.970286 263.79433) scale(0.1 -0.1)">
     <defs>
      <path id="STIXGeneral-Regular-35" d="M 2803 4358 
L 2573 3814 
Q 2534 3731 2400 3731 
L 1158 3731 
L 902 3187 
Q 1606 3053 1920 2896 
Q 2234 2739 2502 2368 
Q 2726 2061 2726 1555 
Q 2726 1094 2576 780 
Q 2426 467 2099 224 
Q 1664 -90 1011 -90 
Q 646 -90 422 19 
Q 198 128 198 307 
Q 198 550 486 550 
Q 717 550 960 352 
Q 1210 147 1414 147 
Q 1747 147 2012 480 
Q 2278 813 2278 1229 
Q 2278 1843 1850 2189 
Q 1293 2637 486 2637 
Q 410 2637 410 2688 
L 416 2720 
L 1114 4237 
L 2438 4237 
Q 2547 4237 2608 4269 
Q 2669 4301 2746 4403 
L 2803 4358 
z
" transform="scale(0.015625)"/>
     </defs>
     <use xlink:href="#STIXGeneral-Italic-3c6" transform="translate(0 0.203125)"/>
     <use xlink:href="#STIXGeneral-Regular-3d" transform="translate(76.639993 0.203125)"/>
     <use xlink:href="#STIXGeneral-Regular-35" transform="translate(159.579974 0.203125)"/>
     <use xlink:href="#Times-Roman-412" transform="translate(209.579959 0.203125)"/>
    </g>
   </g>
   <g id="text_26">
    <!-- $\varphi=6$В -->
    <g transform="translate(308.915429 253.79433) scale(0.1 -0.1)">
     <defs>
      <path id="STIXGeneral-Regular-36" d="M 2854 4378 
L 2867 4275 
Q 2112 4154 1606 3664 
Q 1101 3174 973 2451 
Q 1344 2739 1786 2739 
Q 2349 2739 2672 2380 
Q 2995 2022 2995 1402 
Q 2995 774 2669 378 
Q 2291 -90 1651 -90 
Q 870 -90 518 557 
Q 218 1107 218 1786 
Q 218 2835 915 3552 
Q 1312 3962 1731 4131 
Q 2150 4301 2854 4378 
z
M 2419 1203 
Q 2419 2445 1555 2445 
Q 1235 2445 1024 2275 
Q 813 2106 813 1702 
Q 813 954 1046 522 
Q 1280 90 1722 90 
Q 2061 90 2240 394 
Q 2419 698 2419 1203 
z
" transform="scale(0.015625)"/>
     </defs>
     <use xlink:href="#STIXGeneral-Italic-3c6" transform="translate(0 0.59375)"/>
     <use xlink:href="#STIXGeneral-Regular-3d" transform="translate(76.639993 0.59375)"/>
     <use xlink:href="#STIXGeneral-Regular-36" transform="translate(159.579974 0.59375)"/>
     <use xlink:href="#Times-Roman-412" transform="translate(209.579959 0.59375)"/>
    </g>
   </g>
   <g id="text_27">
    <!-- $\varphi=7$В -->
    <g transform="translate(372.686857 263.79433) scale(0.1 -0.1)">
     <defs>
      <path id="STIXGeneral-Regular-37" d="M 2874 4134 
L 1517 -51 
L 1101 -51 
L 2368 3763 
L 992 3763 
Q 717 3763 582 3667 
Q 448 3571 243 3238 
L 128 3296 
L 512 4237 
L 2874 4237 
L 2874 4134 
z
" transform="scale(0.015625)"/>
     </defs>
     <use xlink:href="#STIXGeneral-Italic-3c6" transform="translate(0 0.78125)"/>
     <use xlink:href="#STIXGeneral-Regular-3d" transform="translate(76.639993 0.78125)"/>
     <use xlink:href="#STIXGeneral-Regular-37" transform="translate(159.579974 0.78125)"/>
     <use xlink:href="#Times-Roman-412" transform="translate(209.579959 0.78125)"/>
    </g>
   </g>
  </g>
 </g>
 <defs>
  <clipPath id="p6baebf515f">
   <rect x="54.8" y="12.217188" width="357.12" height="255.085714"/>
  </clipPath>
 </defs>
</svg>
