<?xml version="1.0" encoding="utf-8" standalone="no"?>
<!DOCTYPE svg PUBLIC "-//W3C//DTD SVG 1.1//EN"
  "http://www.w3.org/Graphics/SVG/1.1/DTD/svg11.dtd">
<svg xmlns:xlink="http://www.w3.org/1999/xlink" width="460.8pt" height="345.6pt" viewBox="0 0 460.8 345.6" xmlns="http://www.w3.org/2000/svg" version="1.1">
 <metadata>
  <rdf:RDF xmlns:dc="http://purl.org/dc/elements/1.1/" xmlns:cc="http://creativecommons.org/ns#" xmlns:rdf="http://www.w3.org/1999/02/22-rdf-syntax-ns#">
   <cc:Work>
    <dc:type rdf:resource="http://purl.org/dc/dcmitype/StillImage"/>
    <dc:date>2024-12-14T20:48:03.148736</dc:date>
    <dc:format>image/svg+xml</dc:format>
    <dc:creator>
     <cc:Agent>
      <dc:title>Matplotlib v3.9.3, https://matplotlib.org/</dc:title>
     </cc:Agent>
    </dc:creator>
   </cc:Work>
  </rdf:RDF>
 </metadata>
 <defs>
  <style type="text/css">*{stroke-linejoin: round; stroke-linecap: butt}</style>
 </defs>
 <g id="figure_1">
  <g id="patch_1">
   <path d="M 0 345.6 
L 460.8 345.6 
L 460.8 0 
L 0 0 
z
" style="fill: #ffffff"/>
  </g>
  <g id="axes_1">
   <g id="patch_2">
    <path d="M 103.104 307.584 
L 369.216 307.584 
L 369.216 41.472 
L 103.104 41.472 
z
" style="fill: #ffffff"/>
   </g>
   <g id="PathCollection_1">
    <defs>
     <path id="m09a3aa8b95" d="M -0 3.162278 
L 1.897367 0 
L 0 -3.162278 
L -1.897367 -0 
z
" style="stroke: #000000"/>
    </defs>
    <g clip-path="url(#pb8acb5ae7b)">
     <use xlink:href="#m09a3aa8b95" x="115.2" y="295.308525" style="stroke: #000000"/>
     <use xlink:href="#m09a3aa8b95" x="146.56" y="265.160526" style="stroke: #000000"/>
     <use xlink:href="#m09a3aa8b95" x="191.36" y="209.171384" style="stroke: #000000"/>
     <use xlink:href="#m09a3aa8b95" x="209.28" y="174.716528" style="stroke: #000000"/>
     <use xlink:href="#m09a3aa8b95" x="236.16" y="131.647957" style="stroke: #000000"/>
     <use xlink:href="#m09a3aa8b95" x="280.96" y="92.886244" style="stroke: #000000"/>
     <use xlink:href="#m09a3aa8b95" x="325.76" y="62.738244" style="stroke: #000000"/>
     <use xlink:href="#m09a3aa8b95" x="357.12" y="54.12453" style="stroke: #000000"/>
    </g>
   </g>
   <g id="PathCollection_2">
    <g clip-path="url(#pb8acb5ae7b)">
     <use xlink:href="#m09a3aa8b95" x="115.2" y="295.308525" style="stroke: #000000"/>
     <use xlink:href="#m09a3aa8b95" x="146.56" y="282.387954" style="stroke: #000000"/>
     <use xlink:href="#m09a3aa8b95" x="191.36" y="260.853669" style="stroke: #000000"/>
     <use xlink:href="#m09a3aa8b95" x="236.16" y="217.785098" style="stroke: #000000"/>
     <use xlink:href="#m09a3aa8b95" x="263.04" y="174.716528" style="stroke: #000000"/>
     <use xlink:href="#m09a3aa8b95" x="280.96" y="144.568528" style="stroke: #000000"/>
     <use xlink:href="#m09a3aa8b95" x="325.76" y="79.965672" style="stroke: #000000"/>
     <use xlink:href="#m09a3aa8b95" x="357.12" y="54.12453" style="stroke: #000000"/>
    </g>
   </g>
   <g id="PolyCollection_1">
    <defs>
     <path id="m267a761377" d="M 115.2 -50.112 
L 115.2 -50.879054 
L 117.643636 -52.220686 
L 120.087273 -53.71021 
L 122.530909 -55.343547 
L 124.974545 -57.116532 
L 127.418182 -59.024927 
L 129.861818 -61.06442 
L 132.305455 -63.230634 
L 134.749091 -65.519128 
L 137.192727 -67.925402 
L 139.636364 -70.444906 
L 142.08 -73.073039 
L 144.523636 -75.805157 
L 146.967273 -78.636579 
L 149.410909 -81.562587 
L 151.854545 -84.578435 
L 154.298182 -87.679352 
L 156.741818 -90.860547 
L 159.185455 -94.117213 
L 161.629091 -97.444534 
L 164.072727 -100.837687 
L 166.516364 -104.291847 
L 168.96 -107.802194 
L 171.403636 -111.363916 
L 173.847273 -114.972213 
L 176.290909 -118.622303 
L 178.734545 -122.309428 
L 181.178182 -126.028854 
L 183.621818 -129.775882 
L 186.065455 -133.545848 
L 188.509091 -137.33413 
L 190.952727 -141.136149 
L 193.396364 -144.947382 
L 195.84 -148.763357 
L 198.283636 -152.579663 
L 200.727273 -156.391955 
L 203.170909 -160.195958 
L 205.614545 -163.987469 
L 208.058182 -167.762366 
L 210.501818 -171.516609 
L 212.945455 -175.246249 
L 215.389091 -178.947426 
L 217.832727 -182.616383 
L 220.276364 -186.249461 
L 222.72 -189.843111 
L 225.163636 -193.393895 
L 227.607273 -196.898492 
L 230.050909 -200.353702 
L 232.494545 -203.756452 
L 234.938182 -207.103799 
L 237.381818 -210.392936 
L 239.825455 -213.621195 
L 242.269091 -216.786056 
L 244.712727 -219.885146 
L 247.156364 -222.916248 
L 249.6 -225.877302 
L 252.043636 -228.766415 
L 254.487273 -231.58186 
L 256.930909 -234.322085 
L 259.374545 -236.985714 
L 261.818182 -239.571556 
L 264.261818 -242.078607 
L 266.705455 -244.506054 
L 269.149091 -246.853281 
L 271.592727 -249.119875 
L 274.036364 -251.305628 
L 276.48 -253.410543 
L 278.923636 -255.43484 
L 281.367273 -257.378958 
L 283.810909 -259.243563 
L 286.254545 -261.029548 
L 288.698182 -262.738044 
L 291.141818 -264.370419 
L 293.585455 -265.928286 
L 296.029091 -267.413505 
L 298.472727 -268.828193 
L 300.916364 -270.174723 
L 303.36 -271.455729 
L 305.803636 -272.674117 
L 308.247273 -273.833062 
L 310.690909 -274.936017 
L 313.134545 -275.986716 
L 315.578182 -276.989182 
L 318.021818 -277.947727 
L 320.465455 -278.866959 
L 322.909091 -279.751788 
L 325.352727 -280.607427 
L 327.796364 -281.439402 
L 330.24 -282.253551 
L 332.683636 -283.056033 
L 335.127273 -283.853331 
L 337.570909 -284.652258 
L 340.014545 -285.459959 
L 342.458182 -286.283917 
L 344.901818 -287.13196 
L 347.345455 -288.012262 
L 349.789091 -288.933352 
L 352.232727 -289.904112 
L 354.676364 -290.933791 
L 357.12 -292.032 
L 357.12 -291.30664 
L 357.12 -291.30664 
L 354.676364 -290.327796 
L 352.232727 -289.166135 
L 349.789091 -287.826484 
L 347.345455 -286.313801 
L 344.901818 -284.633169 
L 342.458182 -282.789788 
L 340.014545 -280.788968 
L 337.570909 -278.636121 
L 335.127273 -276.336756 
L 332.683636 -273.89647 
L 330.24 -271.320943 
L 327.796364 -268.615926 
L 325.352727 -265.787242 
L 322.909091 -262.840771 
L 320.465455 -259.782446 
L 318.021818 -256.618248 
L 315.578182 -253.354196 
L 313.134545 -249.99634 
L 310.690909 -246.550754 
L 308.247273 -243.023533 
L 305.803636 -239.420778 
L 303.36 -235.748596 
L 300.916364 -232.01309 
L 298.472727 -228.22035 
L 296.029091 -224.37645 
L 293.585455 -220.487438 
L 291.141818 -216.559331 
L 288.698182 -212.598103 
L 286.254545 -208.609685 
L 283.810909 -204.599953 
L 281.367273 -200.574722 
L 278.923636 -196.539739 
L 276.48 -192.500676 
L 274.036364 -188.463124 
L 271.592727 -184.432582 
L 269.149091 -180.414456 
L 266.705455 -176.414046 
L 264.261818 -172.436543 
L 261.818182 -168.487017 
L 259.374545 -164.570418 
L 256.930909 -160.691559 
L 254.487273 -156.855119 
L 252.043636 -153.065626 
L 249.6 -149.327456 
L 247.156364 -145.644828 
L 244.712727 -142.021788 
L 242.269091 -138.46221 
L 239.825455 -134.969787 
L 237.381818 -131.548022 
L 234.938182 -128.200221 
L 232.494545 -124.929488 
L 230.050909 -121.738716 
L 227.607273 -118.630581 
L 225.163636 -115.607535 
L 222.72 -112.671798 
L 220.276364 -109.825349 
L 217.832727 -107.069924 
L 215.389091 -104.407004 
L 212.945455 -101.837812 
L 210.501818 -99.363302 
L 208.058182 -96.984153 
L 205.614545 -94.700765 
L 203.170909 -92.513246 
L 200.727273 -90.421412 
L 198.283636 -88.424772 
L 195.84 -86.522529 
L 193.396364 -84.713566 
L 190.952727 -82.996443 
L 188.509091 -81.369388 
L 186.065455 -79.830292 
L 183.621818 -78.376698 
L 181.178182 -77.005799 
L 178.734545 -75.714426 
L 176.290909 -74.499043 
L 173.847273 -73.355743 
L 171.403636 -72.280233 
L 168.96 -71.267835 
L 166.516364 -70.313476 
L 164.072727 -69.411677 
L 161.629091 -68.556553 
L 159.185455 -67.741801 
L 156.741818 -66.960693 
L 154.298182 -66.206071 
L 151.854545 -65.470338 
L 149.410909 -64.745454 
L 146.967273 -64.022923 
L 144.523636 -63.293792 
L 142.08 -62.548642 
L 139.636364 -61.777577 
L 137.192727 -60.970224 
L 134.749091 -60.115719 
L 132.305455 -59.202704 
L 129.861818 -58.21932 
L 127.418182 -57.153196 
L 124.974545 -55.991447 
L 122.530909 -54.720662 
L 120.087273 -53.326903 
L 117.643636 -51.79569 
L 115.2 -50.112 
z
" style="stroke: #000000; stroke-opacity: 0.2"/>
    </defs>
    <g clip-path="url(#pb8acb5ae7b)">
     <use xlink:href="#m267a761377" x="0" y="345.6" style="fill-opacity: 0.2; stroke: #000000; stroke-opacity: 0.2"/>
    </g>
   </g>
   <g id="matplotlib.axis_1">
    <g id="xtick_1">
     <g id="line2d_1">
      <path d="M 146.56 307.584 
L 146.56 41.472 
" clip-path="url(#pb8acb5ae7b)" style="fill: none; stroke: #b0b0b0; stroke-width: 0.8; stroke-linecap: square"/>
     </g>
     <g id="line2d_2">
      <defs>
       <path id="mf7d42f9b3c" d="M 0 0 
L 0 3.5 
" style="stroke: #000000; stroke-width: 0.8"/>
      </defs>
      <g>
       <use xlink:href="#mf7d42f9b3c" x="146.56" y="307.584" style="stroke: #000000; stroke-width: 0.8"/>
      </g>
     </g>
     <g id="text_1">
      <!-- −2 -->
      <g transform="translate(141.240469 321.44025) scale(0.1 -0.1)">
       <defs>
        <path id="Times-Roman-2212" d="M 191 1834 
L 3422 1834 
L 3422 1397 
L 191 1397 
L 191 1834 
z
" transform="scale(0.015625)"/>
        <path id="Times-Roman-32" d="M 191 72 
Q 1334 1259 1743 1815 
Q 2153 2372 2153 2900 
Q 2153 3363 1903 3605 
Q 1653 3847 1306 3847 
Q 878 3847 613 3534 
Q 466 3363 331 3006 
L 197 3034 
Q 353 3753 726 4033 
Q 1100 4313 1528 4313 
Q 2056 4313 2382 3980 
Q 2709 3647 2709 3166 
Q 2709 2653 2356 2178 
Q 2003 1703 822 488 
L 2256 488 
Q 2556 488 2678 559 
Q 2800 631 2953 909 
L 3034 872 
L 2688 0 
L 191 0 
L 191 72 
z
" transform="scale(0.015625)"/>
       </defs>
       <use xlink:href="#Times-Roman-2212"/>
       <use xlink:href="#Times-Roman-32" x="56.396484"/>
      </g>
     </g>
    </g>
    <g id="xtick_2">
     <g id="line2d_3">
      <path d="M 191.36 307.584 
L 191.36 41.472 
" clip-path="url(#pb8acb5ae7b)" style="fill: none; stroke: #b0b0b0; stroke-width: 0.8; stroke-linecap: square"/>
     </g>
     <g id="line2d_4">
      <g>
       <use xlink:href="#mf7d42f9b3c" x="191.36" y="307.584" style="stroke: #000000; stroke-width: 0.8"/>
      </g>
     </g>
     <g id="text_2">
      <!-- −1 -->
      <g transform="translate(186.040469 321.44025) scale(0.1 -0.1)">
       <defs>
        <path id="Times-Roman-31" d="M 1894 4294 
Q 1906 4278 1907 4270 
Q 1909 4263 1909 4234 
L 1909 472 
Q 1909 231 2037 165 
Q 2166 100 2516 88 
L 2516 0 
L 753 0 
L 753 94 
Q 1131 113 1247 197 
Q 1363 281 1363 563 
L 1363 3456 
Q 1363 3606 1325 3684 
Q 1288 3763 1163 3763 
Q 1081 3763 951 3717 
Q 822 3672 709 3622 
L 709 3709 
L 1856 4294 
L 1894 4294 
z
" transform="scale(0.015625)"/>
       </defs>
       <use xlink:href="#Times-Roman-2212"/>
       <use xlink:href="#Times-Roman-31" x="56.396484"/>
      </g>
     </g>
    </g>
    <g id="xtick_3">
     <g id="line2d_5">
      <path d="M 236.16 307.584 
L 236.16 41.472 
" clip-path="url(#pb8acb5ae7b)" style="fill: none; stroke: #b0b0b0; stroke-width: 0.8; stroke-linecap: square"/>
     </g>
     <g id="line2d_6">
      <g>
       <use xlink:href="#mf7d42f9b3c" x="236.16" y="307.584" style="stroke: #000000; stroke-width: 0.8"/>
      </g>
     </g>
     <g id="text_3">
      <!-- 0 -->
      <g transform="translate(233.66 321.44025) scale(0.1 -0.1)">
       <defs>
        <path id="Times-Roman-30" d="M 1531 116 
Q 1991 116 2162 619 
Q 2334 1122 2334 2075 
Q 2334 2834 2231 3288 
Q 2038 4131 1506 4131 
Q 975 4131 778 3263 
Q 675 2800 675 2044 
Q 675 1334 781 909 
Q 981 116 1531 116 
z
M 1522 4300 
Q 2241 4300 2638 3547 
Q 2953 2938 2953 2147 
Q 2953 1525 2759 975 
Q 2394 -59 1494 -59 
Q 878 -59 481 500 
Q 56 1097 56 2122 
Q 56 2928 341 3509 
Q 725 4300 1522 4300 
z
" transform="scale(0.015625)"/>
       </defs>
       <use xlink:href="#Times-Roman-30"/>
      </g>
     </g>
    </g>
    <g id="xtick_4">
     <g id="line2d_7">
      <path d="M 280.96 307.584 
L 280.96 41.472 
" clip-path="url(#pb8acb5ae7b)" style="fill: none; stroke: #b0b0b0; stroke-width: 0.8; stroke-linecap: square"/>
     </g>
     <g id="line2d_8">
      <g>
       <use xlink:href="#mf7d42f9b3c" x="280.96" y="307.584" style="stroke: #000000; stroke-width: 0.8"/>
      </g>
     </g>
     <g id="text_4">
      <!-- 1 -->
      <g transform="translate(278.46 321.44025) scale(0.1 -0.1)">
       <use xlink:href="#Times-Roman-31"/>
      </g>
     </g>
    </g>
    <g id="xtick_5">
     <g id="line2d_9">
      <path d="M 325.76 307.584 
L 325.76 41.472 
" clip-path="url(#pb8acb5ae7b)" style="fill: none; stroke: #b0b0b0; stroke-width: 0.8; stroke-linecap: square"/>
     </g>
     <g id="line2d_10">
      <g>
       <use xlink:href="#mf7d42f9b3c" x="325.76" y="307.584" style="stroke: #000000; stroke-width: 0.8"/>
      </g>
     </g>
     <g id="text_5">
      <!-- 2 -->
      <g transform="translate(323.26 321.44025) scale(0.1 -0.1)">
       <use xlink:href="#Times-Roman-32"/>
      </g>
     </g>
    </g>
    <g id="text_6">
     <!-- $E$ -->
     <g transform="translate(363.016 334.474625) scale(0.1 -0.1)">
      <defs>
       <path id="STIXGeneral-Italic-45" d="M 4058 4179 
L 3859 3194 
L 3718 3206 
Q 3738 3366 3738 3501 
Q 3738 3789 3501 3878 
Q 3264 3968 2509 3968 
Q 2240 3968 2157 3939 
Q 2074 3910 2042 3802 
L 1619 2310 
L 2118 2310 
Q 2541 2310 2681 2412 
Q 2822 2515 3008 2931 
L 3123 2906 
L 2688 1421 
L 2560 1453 
Q 2605 1651 2605 1786 
Q 2605 1939 2560 1984 
Q 2451 2080 2061 2080 
L 1562 2080 
L 1357 1363 
Q 1126 550 1126 429 
Q 1126 211 1632 211 
Q 2458 211 2931 461 
Q 3174 589 3533 1088 
L 3635 1037 
L 3238 0 
L -6 0 
L -6 102 
Q 269 154 352 227 
Q 435 301 512 576 
L 1299 3405 
Q 1370 3642 1370 3814 
Q 1370 3942 1270 3996 
Q 1171 4051 877 4077 
L 877 4179 
L 4058 4179 
z
" transform="scale(0.015625)"/>
      </defs>
      <use xlink:href="#STIXGeneral-Italic-45" transform="translate(0 0.703125)"/>
     </g>
    </g>
   </g>
   <g id="matplotlib.axis_2">
    <g id="ytick_1">
     <g id="line2d_11">
      <path d="M 103.104 303.92224 
L 369.216 303.92224 
" clip-path="url(#pb8acb5ae7b)" style="fill: none; stroke: #b0b0b0; stroke-width: 0.8; stroke-linecap: square"/>
     </g>
     <g id="line2d_12">
      <defs>
       <path id="m12374ec779" d="M 0 0 
L -3.5 0 
" style="stroke: #000000; stroke-width: 0.8"/>
      </defs>
      <g>
       <use xlink:href="#m12374ec779" x="103.104" y="303.92224" style="stroke: #000000; stroke-width: 0.8"/>
      </g>
     </g>
     <g id="text_7">
      <!-- −3 -->
      <g transform="translate(85.464938 307.350365) scale(0.1 -0.1)">
       <defs>
        <path id="Times-Roman-33" d="M 497 544 
Q 669 544 951 366 
Q 1234 188 1431 188 
Q 1869 188 2081 483 
Q 2294 778 2294 1125 
Q 2294 1459 2122 1713 
Q 1831 2141 1141 2141 
Q 1100 2141 1062 2139 
Q 1025 2138 975 2131 
L 969 2213 
Q 1469 2394 1756 2628 
Q 2044 2863 2044 3247 
Q 2044 3588 1817 3766 
Q 1591 3944 1300 3944 
Q 956 3944 694 3691 
Q 550 3553 384 3266 
L 288 3288 
Q 413 3763 753 4047 
Q 1094 4331 1541 4331 
Q 2019 4331 2280 4068 
Q 2541 3806 2541 3463 
Q 2541 3159 2325 2906 
Q 2203 2763 1947 2584 
Q 2247 2456 2428 2284 
Q 2769 1956 2769 1453 
Q 2769 859 2301 406 
Q 1834 -47 972 -47 
Q 588 -47 433 67 
Q 278 181 278 313 
Q 278 394 329 469 
Q 381 544 497 544 
z
" transform="scale(0.015625)"/>
       </defs>
       <use xlink:href="#Times-Roman-2212"/>
       <use xlink:href="#Times-Roman-33" x="56.396484"/>
      </g>
     </g>
    </g>
    <g id="ytick_2">
     <g id="line2d_13">
      <path d="M 103.104 260.853669 
L 369.216 260.853669 
" clip-path="url(#pb8acb5ae7b)" style="fill: none; stroke: #b0b0b0; stroke-width: 0.8; stroke-linecap: square"/>
     </g>
     <g id="line2d_14">
      <g>
       <use xlink:href="#m12374ec779" x="103.104" y="260.853669" style="stroke: #000000; stroke-width: 0.8"/>
      </g>
     </g>
     <g id="text_8">
      <!-- −2 -->
      <g transform="translate(85.464938 264.281794) scale(0.1 -0.1)">
       <use xlink:href="#Times-Roman-2212"/>
       <use xlink:href="#Times-Roman-32" x="56.396484"/>
      </g>
     </g>
    </g>
    <g id="ytick_3">
     <g id="line2d_15">
      <path d="M 103.104 217.785098 
L 369.216 217.785098 
" clip-path="url(#pb8acb5ae7b)" style="fill: none; stroke: #b0b0b0; stroke-width: 0.8; stroke-linecap: square"/>
     </g>
     <g id="line2d_16">
      <g>
       <use xlink:href="#m12374ec779" x="103.104" y="217.785098" style="stroke: #000000; stroke-width: 0.8"/>
      </g>
     </g>
     <g id="text_9">
      <!-- −1 -->
      <g transform="translate(85.464938 221.213223) scale(0.1 -0.1)">
       <use xlink:href="#Times-Roman-2212"/>
       <use xlink:href="#Times-Roman-31" x="56.396484"/>
      </g>
     </g>
    </g>
    <g id="ytick_4">
     <g id="line2d_17">
      <path d="M 103.104 174.716528 
L 369.216 174.716528 
" clip-path="url(#pb8acb5ae7b)" style="fill: none; stroke: #b0b0b0; stroke-width: 0.8; stroke-linecap: square"/>
     </g>
     <g id="line2d_18">
      <g>
       <use xlink:href="#m12374ec779" x="103.104" y="174.716528" style="stroke: #000000; stroke-width: 0.8"/>
      </g>
     </g>
     <g id="text_10">
      <!-- 0 -->
      <g transform="translate(91.104 178.144653) scale(0.1 -0.1)">
       <use xlink:href="#Times-Roman-30"/>
      </g>
     </g>
    </g>
    <g id="ytick_5">
     <g id="line2d_19">
      <path d="M 103.104 131.647957 
L 369.216 131.647957 
" clip-path="url(#pb8acb5ae7b)" style="fill: none; stroke: #b0b0b0; stroke-width: 0.8; stroke-linecap: square"/>
     </g>
     <g id="line2d_20">
      <g>
       <use xlink:href="#m12374ec779" x="103.104" y="131.647957" style="stroke: #000000; stroke-width: 0.8"/>
      </g>
     </g>
     <g id="text_11">
      <!-- 1 -->
      <g transform="translate(91.104 135.076082) scale(0.1 -0.1)">
       <use xlink:href="#Times-Roman-31"/>
      </g>
     </g>
    </g>
    <g id="ytick_6">
     <g id="line2d_21">
      <path d="M 103.104 88.579387 
L 369.216 88.579387 
" clip-path="url(#pb8acb5ae7b)" style="fill: none; stroke: #b0b0b0; stroke-width: 0.8; stroke-linecap: square"/>
     </g>
     <g id="line2d_22">
      <g>
       <use xlink:href="#m12374ec779" x="103.104" y="88.579387" style="stroke: #000000; stroke-width: 0.8"/>
      </g>
     </g>
     <g id="text_12">
      <!-- 2 -->
      <g transform="translate(91.104 92.007512) scale(0.1 -0.1)">
       <use xlink:href="#Times-Roman-32"/>
      </g>
     </g>
    </g>
    <g id="ytick_7">
     <g id="line2d_23">
      <path d="M 103.104 45.510816 
L 369.216 45.510816 
" clip-path="url(#pb8acb5ae7b)" style="fill: none; stroke: #b0b0b0; stroke-width: 0.8; stroke-linecap: square"/>
     </g>
     <g id="line2d_24">
      <g>
       <use xlink:href="#m12374ec779" x="103.104" y="45.510816" style="stroke: #000000; stroke-width: 0.8"/>
      </g>
     </g>
     <g id="text_13">
      <!-- 3 -->
      <g transform="translate(91.104 48.938941) scale(0.1 -0.1)">
       <use xlink:href="#Times-Roman-33"/>
      </g>
     </g>
    </g>
    <g id="text_14">
     <!-- $D$ -->
     <g transform="translate(74.164938 39.293875) scale(0.1 -0.1)">
      <defs>
       <path id="STIXGeneral-Italic-44" d="M 838 4179 
L 2611 4179 
Q 3469 4179 3974 3731 
Q 4480 3283 4480 2458 
Q 4480 1325 3456 531 
Q 2778 0 1594 0 
L -51 0 
L -51 102 
Q 224 154 310 230 
Q 397 307 474 589 
L 1254 3437 
Q 1325 3686 1325 3814 
Q 1325 3949 1222 4009 
Q 1120 4070 838 4077 
L 838 4179 
z
M 1984 3738 
L 1229 1037 
Q 1088 525 1088 429 
Q 1088 192 1523 192 
Q 2470 192 3066 768 
Q 3398 1088 3584 1597 
Q 3770 2106 3770 2611 
Q 3770 3386 3270 3763 
Q 2970 3987 2432 3987 
Q 2227 3987 2128 3939 
Q 2029 3891 1984 3738 
z
" transform="scale(0.015625)"/>
      </defs>
      <use xlink:href="#STIXGeneral-Italic-44" transform="translate(0 0.703125)"/>
     </g>
    </g>
   </g>
   <g id="line2d_25">
    <path d="M 115.2 294.720946 
L 117.643636 293.379314 
L 120.087273 291.88979 
L 122.530909 290.256453 
L 124.974545 288.483468 
L 127.418182 286.575073 
L 129.861818 284.53558 
L 132.305455 282.369366 
L 134.749091 280.080872 
L 137.192727 277.674598 
L 139.636364 275.155094 
L 142.08 272.526961 
L 144.523636 269.794843 
L 146.967273 266.963421 
L 149.410909 264.037413 
L 151.854545 261.021565 
L 154.298182 257.920648 
L 156.741818 254.739453 
L 159.185455 251.482787 
L 161.629091 248.155466 
L 164.072727 244.762313 
L 166.516364 241.308153 
L 168.96 237.797806 
L 171.403636 234.236084 
L 173.847273 230.627787 
L 176.290909 226.977697 
L 178.734545 223.290572 
L 181.178182 219.571146 
L 183.621818 215.824118 
L 186.065455 212.054152 
L 188.509091 208.26587 
L 190.952727 204.463851 
L 193.396364 200.652618 
L 195.84 196.836643 
L 198.283636 193.020337 
L 200.727273 189.208045 
L 203.170909 185.404042 
L 205.614545 181.612531 
L 208.058182 177.837634 
L 210.501818 174.083391 
L 212.945455 170.353751 
L 215.389091 166.652574 
L 217.832727 162.983617 
L 220.276364 159.350539 
L 222.72 155.756889 
L 225.163636 152.206105 
L 227.607273 148.701508 
L 230.050909 145.246298 
L 232.494545 141.843548 
L 234.938182 138.496201 
L 237.381818 135.207064 
L 239.825455 131.978805 
L 242.269091 128.813944 
L 244.712727 125.714854 
L 247.156364 122.683752 
L 249.6 119.722698 
L 252.043636 116.833585 
L 254.487273 114.01814 
L 256.930909 111.277915 
L 259.374545 108.614286 
L 261.818182 106.028444 
L 264.261818 103.521393 
L 266.705455 101.093946 
L 269.149091 98.746719 
L 271.592727 96.480125 
L 274.036364 94.294372 
L 276.48 92.189457 
L 278.923636 90.16516 
L 281.367273 88.221042 
L 283.810909 86.356437 
L 286.254545 84.570452 
L 288.698182 82.861956 
L 291.141818 81.229581 
L 293.585455 79.671714 
L 296.029091 78.186495 
L 298.472727 76.771807 
L 300.916364 75.425277 
L 303.36 74.144271 
L 305.803636 72.925883 
L 308.247273 71.766938 
L 310.690909 70.663983 
L 313.134545 69.613284 
L 315.578182 68.610818 
L 318.021818 67.652273 
L 320.465455 66.733041 
L 322.909091 65.848212 
L 325.352727 64.992573 
L 327.796364 64.160598 
L 330.24 63.346449 
L 332.683636 62.543967 
L 335.127273 61.746669 
L 337.570909 60.947742 
L 340.014545 60.140041 
L 342.458182 59.316083 
L 344.901818 58.46804 
L 347.345455 57.587738 
L 349.789091 56.666648 
L 352.232727 55.695888 
L 354.676364 54.666209 
L 357.12 53.568 
" clip-path="url(#pb8acb5ae7b)" style="fill: none; stroke-dasharray: 5.55,2.4; stroke-dashoffset: 0; stroke: #000000; stroke-width: 1.5"/>
   </g>
   <g id="line2d_26">
    <path d="M 115.2 295.488 
L 117.643636 293.80431 
L 120.087273 292.273097 
L 122.530909 290.879338 
L 124.974545 289.608553 
L 127.418182 288.446804 
L 129.861818 287.38068 
L 132.305455 286.397296 
L 134.749091 285.484281 
L 137.192727 284.629776 
L 139.636364 283.822423 
L 142.08 283.051358 
L 144.523636 282.306208 
L 146.967273 281.577077 
L 149.410909 280.854546 
L 151.854545 280.129662 
L 154.298182 279.393929 
L 156.741818 278.639307 
L 159.185455 277.858199 
L 161.629091 277.043447 
L 164.072727 276.188323 
L 166.516364 275.286524 
L 168.96 274.332165 
L 171.403636 273.319767 
L 173.847273 272.244257 
L 176.290909 271.100957 
L 178.734545 269.885574 
L 181.178182 268.594201 
L 183.621818 267.223302 
L 186.065455 265.769708 
L 188.509091 264.230612 
L 190.952727 262.603557 
L 193.396364 260.886434 
L 195.84 259.077471 
L 198.283636 257.175228 
L 200.727273 255.178588 
L 203.170909 253.086754 
L 205.614545 250.899235 
L 208.058182 248.615847 
L 210.501818 246.236698 
L 212.945455 243.762188 
L 215.389091 241.192996 
L 217.832727 238.530076 
L 220.276364 235.774651 
L 222.72 232.928202 
L 225.163636 229.992465 
L 227.607273 226.969419 
L 230.050909 223.861284 
L 232.494545 220.670512 
L 234.938182 217.399779 
L 237.381818 214.051978 
L 239.825455 210.630213 
L 242.269091 207.13779 
L 244.712727 203.578212 
L 247.156364 199.955172 
L 249.6 196.272544 
L 252.043636 192.534374 
L 254.487273 188.744881 
L 256.930909 184.908441 
L 259.374545 181.029582 
L 261.818182 177.112983 
L 264.261818 173.163457 
L 266.705455 169.185954 
L 269.149091 165.185544 
L 271.592727 161.167418 
L 274.036364 157.136876 
L 276.48 153.099324 
L 278.923636 149.060261 
L 281.367273 145.025278 
L 283.810909 141.000047 
L 286.254545 136.990315 
L 288.698182 133.001897 
L 291.141818 129.040669 
L 293.585455 125.112562 
L 296.029091 121.22355 
L 298.472727 117.37965 
L 300.916364 113.58691 
L 303.36 109.851404 
L 305.803636 106.179222 
L 308.247273 102.576467 
L 310.690909 99.049246 
L 313.134545 95.60366 
L 315.578182 92.245804 
L 318.021818 88.981752 
L 320.465455 85.817554 
L 322.909091 82.759229 
L 325.352727 79.812758 
L 327.796364 76.984074 
L 330.24 74.279057 
L 332.683636 71.70353 
L 335.127273 69.263244 
L 337.570909 66.963879 
L 340.014545 64.811032 
L 342.458182 62.810212 
L 344.901818 60.966831 
L 347.345455 59.286199 
L 349.789091 57.773516 
L 352.232727 56.433865 
L 354.676364 55.272204 
L 357.12 54.29336 
" clip-path="url(#pb8acb5ae7b)" style="fill: none; stroke-dasharray: 5.55,2.4; stroke-dashoffset: 0; stroke: #000000; stroke-width: 1.5"/>
   </g>
   <g id="patch_3">
    <path d="M 103.104 307.584 
L 103.104 41.472 
" style="fill: none; stroke: #000000; stroke-width: 0.8; stroke-linejoin: miter; stroke-linecap: square"/>
   </g>
   <g id="patch_4">
    <path d="M 369.216 307.584 
L 369.216 41.472 
" style="fill: none; stroke: #000000; stroke-width: 0.8; stroke-linejoin: miter; stroke-linecap: square"/>
   </g>
   <g id="patch_5">
    <path d="M 103.104 307.584 
L 369.216 307.584 
" style="fill: none; stroke: #000000; stroke-width: 0.8; stroke-linejoin: miter; stroke-linecap: square"/>
   </g>
   <g id="patch_6">
    <path d="M 103.104 41.472 
L 369.216 41.472 
" style="fill: none; stroke: #000000; stroke-width: 0.8; stroke-linejoin: miter; stroke-linecap: square"/>
   </g>
  </g>
 </g>
 <defs>
  <clipPath id="pb8acb5ae7b">
   <rect x="103.104" y="41.472" width="266.112" height="266.112"/>
  </clipPath>
 </defs>
</svg>
