<?xml version="1.0" encoding="utf-8" standalone="no"?>
<!DOCTYPE svg PUBLIC "-//W3C//DTD SVG 1.1//EN"
  "http://www.w3.org/Graphics/SVG/1.1/DTD/svg11.dtd">
<svg xmlns:xlink="http://www.w3.org/1999/xlink" width="460.8pt" height="345.6pt" viewBox="0 0 460.8 345.6" xmlns="http://www.w3.org/2000/svg" version="1.1">
 <metadata>
  <rdf:RDF xmlns:dc="http://purl.org/dc/elements/1.1/" xmlns:cc="http://creativecommons.org/ns#" xmlns:rdf="http://www.w3.org/1999/02/22-rdf-syntax-ns#">
   <cc:Work>
    <dc:type rdf:resource="http://purl.org/dc/dcmitype/StillImage"/>
    <dc:date>2024-12-14T20:48:03.595054</dc:date>
    <dc:format>image/svg+xml</dc:format>
    <dc:creator>
     <cc:Agent>
      <dc:title>Matplotlib v3.9.3, https://matplotlib.org/</dc:title>
     </cc:Agent>
    </dc:creator>
   </cc:Work>
  </rdf:RDF>
 </metadata>
 <defs>
  <style type="text/css">*{stroke-linejoin: round; stroke-linecap: butt}</style>
 </defs>
 <g id="figure_1">
  <g id="patch_1">
   <path d="M 0 345.6 
L 460.8 345.6 
L 460.8 0 
L 0 0 
z
" style="fill: #ffffff"/>
  </g>
  <g id="axes_1">
   <g id="patch_2">
    <path d="M 57.6 307.584 
L 414.72 307.584 
L 414.72 41.472 
L 57.6 41.472 
z
" style="fill: #ffffff"/>
   </g>
   <g id="PathCollection_1">
    <defs>
     <path id="md7731be058" d="M 0 1.581139 
C 0.419323 1.581139 0.821528 1.41454 1.118034 1.118034 
C 1.41454 0.821528 1.581139 0.419323 1.581139 0 
C 1.581139 -0.419323 1.41454 -0.821528 1.118034 -1.118034 
C 0.821528 -1.41454 0.419323 -1.581139 0 -1.581139 
C -0.419323 -1.581139 -0.821528 -1.41454 -1.118034 -1.118034 
C -1.41454 -0.821528 -1.581139 -0.419323 -1.581139 0 
C -1.581139 0.419323 -1.41454 0.821528 -1.118034 1.118034 
C -0.821528 1.41454 -0.419323 1.581139 0 1.581139 
z
" style="stroke: #000000"/>
    </defs>
    <g clip-path="url(#p5abd90eae6)">
     <use xlink:href="#md7731be058" x="73.832727" y="279.523569" style="stroke: #000000"/>
    </g>
   </g>
   <g id="matplotlib.axis_1">
    <g id="xtick_1">
     <g id="line2d_1">
      <path d="M 73.832727 307.584 
L 73.832727 41.472 
" clip-path="url(#p5abd90eae6)" style="fill: none; stroke: #b0b0b0; stroke-width: 0.8; stroke-linecap: square"/>
     </g>
     <g id="line2d_2">
      <defs>
       <path id="mfcf3c6d765" d="M 0 0 
L 0 3.5 
" style="stroke: #000000; stroke-width: 0.8"/>
      </defs>
      <g>
       <use xlink:href="#mfcf3c6d765" x="73.832727" y="307.584" style="stroke: #000000; stroke-width: 0.8"/>
      </g>
     </g>
     <g id="text_1">
      <!-- 0 -->
      <g transform="translate(71.332727 321.44025) scale(0.1 -0.1)">
       <defs>
        <path id="Times-Roman-30" d="M 1531 116 
Q 1991 116 2162 619 
Q 2334 1122 2334 2075 
Q 2334 2834 2231 3288 
Q 2038 4131 1506 4131 
Q 975 4131 778 3263 
Q 675 2800 675 2044 
Q 675 1334 781 909 
Q 981 116 1531 116 
z
M 1522 4300 
Q 2241 4300 2638 3547 
Q 2953 2938 2953 2147 
Q 2953 1525 2759 975 
Q 2394 -59 1494 -59 
Q 878 -59 481 500 
Q 56 1097 56 2122 
Q 56 2928 341 3509 
Q 725 4300 1522 4300 
z
" transform="scale(0.015625)"/>
       </defs>
       <use xlink:href="#Times-Roman-30"/>
      </g>
     </g>
    </g>
    <g id="xtick_2">
     <g id="line2d_3">
      <path d="M 128.488375 307.584 
L 128.488375 41.472 
" clip-path="url(#p5abd90eae6)" style="fill: none; stroke: #b0b0b0; stroke-width: 0.8; stroke-linecap: square"/>
     </g>
     <g id="line2d_4">
      <g>
       <use xlink:href="#mfcf3c6d765" x="128.488375" y="307.584" style="stroke: #000000; stroke-width: 0.8"/>
      </g>
     </g>
     <g id="text_2">
      <!-- 50 -->
      <g transform="translate(123.488375 321.44025) scale(0.1 -0.1)">
       <defs>
        <path id="Times-Roman-35" d="M 478 572 
Q 656 572 945 370 
Q 1234 169 1391 169 
Q 1750 169 2019 486 
Q 2288 803 2288 1266 
Q 2288 2075 1425 2431 
Q 947 2628 534 2628 
Q 466 2628 448 2633 
Q 431 2638 406 2666 
Q 413 2691 417 2708 
Q 422 2725 428 2741 
L 1109 4234 
L 2450 4234 
Q 2550 4234 2604 4268 
Q 2659 4303 2747 4397 
L 2797 4353 
L 2553 3775 
Q 2541 3747 2484 3739 
Q 2428 3731 2363 3731 
L 1153 3731 
L 888 3184 
Q 1400 3097 1638 3019 
Q 2028 2888 2291 2631 
Q 2516 2409 2631 2132 
Q 2747 1856 2747 1547 
Q 2747 856 2255 393 
Q 1763 -69 1009 -69 
Q 703 -69 516 -9 
Q 203 88 203 338 
Q 203 431 270 501 
Q 338 572 478 572 
z
" transform="scale(0.015625)"/>
       </defs>
       <use xlink:href="#Times-Roman-35"/>
       <use xlink:href="#Times-Roman-30" x="50"/>
      </g>
     </g>
    </g>
    <g id="xtick_3">
     <g id="line2d_5">
      <path d="M 183.144022 307.584 
L 183.144022 41.472 
" clip-path="url(#p5abd90eae6)" style="fill: none; stroke: #b0b0b0; stroke-width: 0.8; stroke-linecap: square"/>
     </g>
     <g id="line2d_6">
      <g>
       <use xlink:href="#mfcf3c6d765" x="183.144022" y="307.584" style="stroke: #000000; stroke-width: 0.8"/>
      </g>
     </g>
     <g id="text_3">
      <!-- 100 -->
      <g transform="translate(175.644022 321.44025) scale(0.1 -0.1)">
       <defs>
        <path id="Times-Roman-31" d="M 1894 4294 
Q 1906 4278 1907 4270 
Q 1909 4263 1909 4234 
L 1909 472 
Q 1909 231 2037 165 
Q 2166 100 2516 88 
L 2516 0 
L 753 0 
L 753 94 
Q 1131 113 1247 197 
Q 1363 281 1363 563 
L 1363 3456 
Q 1363 3606 1325 3684 
Q 1288 3763 1163 3763 
Q 1081 3763 951 3717 
Q 822 3672 709 3622 
L 709 3709 
L 1856 4294 
L 1894 4294 
z
" transform="scale(0.015625)"/>
       </defs>
       <use xlink:href="#Times-Roman-31"/>
       <use xlink:href="#Times-Roman-30" x="50"/>
       <use xlink:href="#Times-Roman-30" x="100"/>
      </g>
     </g>
    </g>
    <g id="xtick_4">
     <g id="line2d_7">
      <path d="M 237.799669 307.584 
L 237.799669 41.472 
" clip-path="url(#p5abd90eae6)" style="fill: none; stroke: #b0b0b0; stroke-width: 0.8; stroke-linecap: square"/>
     </g>
     <g id="line2d_8">
      <g>
       <use xlink:href="#mfcf3c6d765" x="237.799669" y="307.584" style="stroke: #000000; stroke-width: 0.8"/>
      </g>
     </g>
     <g id="text_4">
      <!-- 150 -->
      <g transform="translate(230.299669 321.44025) scale(0.1 -0.1)">
       <use xlink:href="#Times-Roman-31"/>
       <use xlink:href="#Times-Roman-35" x="50"/>
       <use xlink:href="#Times-Roman-30" x="100"/>
      </g>
     </g>
    </g>
    <g id="xtick_5">
     <g id="line2d_9">
      <path d="M 292.455317 307.584 
L 292.455317 41.472 
" clip-path="url(#p5abd90eae6)" style="fill: none; stroke: #b0b0b0; stroke-width: 0.8; stroke-linecap: square"/>
     </g>
     <g id="line2d_10">
      <g>
       <use xlink:href="#mfcf3c6d765" x="292.455317" y="307.584" style="stroke: #000000; stroke-width: 0.8"/>
      </g>
     </g>
     <g id="text_5">
      <!-- 200 -->
      <g transform="translate(284.955317 321.44025) scale(0.1 -0.1)">
       <defs>
        <path id="Times-Roman-32" d="M 191 72 
Q 1334 1259 1743 1815 
Q 2153 2372 2153 2900 
Q 2153 3363 1903 3605 
Q 1653 3847 1306 3847 
Q 878 3847 613 3534 
Q 466 3363 331 3006 
L 197 3034 
Q 353 3753 726 4033 
Q 1100 4313 1528 4313 
Q 2056 4313 2382 3980 
Q 2709 3647 2709 3166 
Q 2709 2653 2356 2178 
Q 2003 1703 822 488 
L 2256 488 
Q 2556 488 2678 559 
Q 2800 631 2953 909 
L 3034 872 
L 2688 0 
L 191 0 
L 191 72 
z
" transform="scale(0.015625)"/>
       </defs>
       <use xlink:href="#Times-Roman-32"/>
       <use xlink:href="#Times-Roman-30" x="50"/>
       <use xlink:href="#Times-Roman-30" x="100"/>
      </g>
     </g>
    </g>
    <g id="xtick_6">
     <g id="line2d_11">
      <path d="M 347.110964 307.584 
L 347.110964 41.472 
" clip-path="url(#p5abd90eae6)" style="fill: none; stroke: #b0b0b0; stroke-width: 0.8; stroke-linecap: square"/>
     </g>
     <g id="line2d_12">
      <g>
       <use xlink:href="#mfcf3c6d765" x="347.110964" y="307.584" style="stroke: #000000; stroke-width: 0.8"/>
      </g>
     </g>
     <g id="text_6">
      <!-- 250 -->
      <g transform="translate(339.610964 321.44025) scale(0.1 -0.1)">
       <use xlink:href="#Times-Roman-32"/>
       <use xlink:href="#Times-Roman-35" x="50"/>
       <use xlink:href="#Times-Roman-30" x="100"/>
      </g>
     </g>
    </g>
    <g id="xtick_7">
     <g id="line2d_13">
      <path d="M 401.766612 307.584 
L 401.766612 41.472 
" clip-path="url(#p5abd90eae6)" style="fill: none; stroke: #b0b0b0; stroke-width: 0.8; stroke-linecap: square"/>
     </g>
     <g id="line2d_14">
      <g>
       <use xlink:href="#mfcf3c6d765" x="401.766612" y="307.584" style="stroke: #000000; stroke-width: 0.8"/>
      </g>
     </g>
     <g id="text_7">
      <!-- 300 -->
      <g transform="translate(394.266612 321.44025) scale(0.1 -0.1)">
       <defs>
        <path id="Times-Roman-33" d="M 497 544 
Q 669 544 951 366 
Q 1234 188 1431 188 
Q 1869 188 2081 483 
Q 2294 778 2294 1125 
Q 2294 1459 2122 1713 
Q 1831 2141 1141 2141 
Q 1100 2141 1062 2139 
Q 1025 2138 975 2131 
L 969 2213 
Q 1469 2394 1756 2628 
Q 2044 2863 2044 3247 
Q 2044 3588 1817 3766 
Q 1591 3944 1300 3944 
Q 956 3944 694 3691 
Q 550 3553 384 3266 
L 288 3288 
Q 413 3763 753 4047 
Q 1094 4331 1541 4331 
Q 2019 4331 2280 4068 
Q 2541 3806 2541 3463 
Q 2541 3159 2325 2906 
Q 2203 2763 1947 2584 
Q 2247 2456 2428 2284 
Q 2769 1956 2769 1453 
Q 2769 859 2301 406 
Q 1834 -47 972 -47 
Q 588 -47 433 67 
Q 278 181 278 313 
Q 278 394 329 469 
Q 381 544 497 544 
z
" transform="scale(0.015625)"/>
       </defs>
       <use xlink:href="#Times-Roman-33"/>
       <use xlink:href="#Times-Roman-30" x="50"/>
       <use xlink:href="#Times-Roman-30" x="100"/>
      </g>
     </g>
    </g>
    <g id="xtick_8">
     <g id="line2d_15">
      <path d="M 326.341818 307.584 
L 326.341818 41.472 
" clip-path="url(#p5abd90eae6)" style="fill: none; stroke: #b0b0b0; stroke-width: 0.8; stroke-linecap: square"/>
     </g>
     <g id="line2d_16">
      <g>
       <use xlink:href="#mfcf3c6d765" x="326.341818" y="307.584" style="stroke: #000000; stroke-width: 0.8"/>
      </g>
     </g>
     <g id="text_8">
      <!-- $\varepsilon_{max}$ -->
      <g transform="translate(318.041818 321.44025) scale(0.1 -0.1)">
       <defs>
        <path id="STIXGeneral-Italic-3b5" d="M 2304 627 
L 2406 563 
Q 1907 -70 1133 -70 
Q 192 -70 192 640 
Q 192 928 403 1158 
Q 614 1389 934 1472 
Q 774 1498 684 1616 
Q 595 1734 595 1882 
Q 602 2266 995 2544 
Q 1389 2822 2029 2822 
Q 2336 2822 2528 2672 
Q 2720 2522 2720 2291 
Q 2720 2163 2617 2080 
Q 2515 1997 2413 1997 
Q 2298 1997 2230 2067 
Q 2163 2138 2163 2253 
Q 2163 2317 2211 2409 
Q 2259 2502 2259 2560 
Q 2259 2688 2022 2688 
Q 1683 2688 1401 2496 
Q 1120 2304 1120 1907 
Q 1120 1741 1251 1654 
Q 1382 1568 1594 1568 
Q 1613 1568 1728 1590 
Q 1843 1613 1932 1613 
Q 2022 1613 2086 1574 
Q 2150 1536 2150 1478 
Q 2150 1306 1862 1306 
Q 1805 1306 1721 1334 
Q 1638 1363 1568 1363 
Q 1286 1363 1014 1184 
Q 742 1005 742 678 
Q 742 410 908 285 
Q 1075 160 1312 160 
Q 1869 160 2304 627 
z
" transform="scale(0.015625)"/>
        <path id="STIXGeneral-Italic-6d" d="M 4506 672 
L 4474 627 
Q 3981 -58 3552 -58 
Q 3296 -58 3296 237 
Q 3296 333 3379 659 
L 3750 2112 
Q 3795 2291 3795 2355 
Q 3795 2413 3756 2451 
Q 3718 2490 3667 2490 
Q 3366 2490 2829 1741 
Q 2592 1408 2457 1072 
Q 2323 736 2138 0 
L 1658 0 
L 1830 595 
Q 2266 2099 2266 2330 
Q 2266 2490 2125 2490 
Q 1965 2490 1702 2237 
Q 1440 1984 1171 1574 
Q 1011 1325 899 1043 
Q 787 762 557 0 
L 77 0 
L 352 922 
Q 704 2093 704 2381 
Q 704 2522 442 2522 
L 282 2522 
L 282 2624 
L 1318 2822 
L 1338 2810 
L 966 1472 
Q 1798 2822 2374 2822 
Q 2560 2822 2659 2720 
Q 2758 2618 2758 2438 
Q 2758 2195 2502 1466 
Q 2842 2003 3069 2275 
Q 3296 2547 3526 2694 
Q 3731 2822 3930 2822 
Q 4102 2822 4201 2710 
Q 4301 2598 4301 2419 
Q 4301 2336 4282 2240 
L 3846 634 
Q 3782 390 3782 346 
Q 3782 243 3859 243 
Q 4000 243 4275 582 
L 4410 749 
L 4506 672 
z
" transform="scale(0.015625)"/>
        <path id="STIXGeneral-Italic-61" d="M 2963 710 
L 3046 640 
Q 2688 205 2518 70 
Q 2349 -64 2157 -64 
Q 1901 -64 1901 198 
Q 1901 358 2048 934 
Q 1690 397 1389 163 
Q 1088 -70 749 -70 
Q 467 -70 288 125 
Q 109 320 109 672 
Q 109 1158 387 1664 
Q 666 2170 1094 2496 
Q 1523 2822 1939 2822 
Q 2368 2822 2451 2451 
L 2522 2758 
L 2541 2778 
L 2931 2822 
L 2976 2803 
Q 2970 2778 2938 2669 
Q 2368 595 2368 346 
Q 2368 262 2458 262 
Q 2554 262 2790 525 
L 2963 710 
z
M 2336 2310 
Q 2336 2477 2240 2579 
Q 2144 2682 1978 2682 
Q 1542 2682 1139 2093 
Q 928 1779 787 1395 
Q 646 1011 646 717 
Q 646 243 1030 243 
Q 1408 243 1843 870 
Q 2336 1581 2336 2310 
z
" transform="scale(0.015625)"/>
        <path id="STIXGeneral-Italic-78" d="M 1555 2272 
L 1632 1907 
Q 1971 2426 2179 2624 
Q 2387 2822 2598 2822 
Q 2714 2822 2787 2755 
Q 2861 2688 2861 2585 
Q 2861 2483 2800 2419 
Q 2739 2355 2643 2355 
Q 2586 2355 2490 2409 
Q 2394 2464 2310 2464 
Q 2125 2464 1683 1690 
Q 1683 1606 1734 1402 
L 1939 544 
Q 2003 282 2131 282 
Q 2234 282 2432 538 
Q 2451 563 2476 598 
Q 2502 634 2521 662 
Q 2541 691 2566 717 
L 2662 659 
Q 2387 230 2227 80 
Q 2067 -70 1882 -70 
Q 1728 -70 1645 26 
Q 1562 122 1504 365 
L 1318 1126 
L 755 365 
Q 557 96 432 13 
Q 307 -70 147 -70 
Q 0 -70 -86 0 
Q -173 70 -173 198 
Q -173 294 -112 361 
Q -51 429 45 429 
Q 122 429 250 358 
Q 346 301 416 301 
Q 525 301 742 614 
L 1267 1357 
L 1088 2150 
Q 1024 2432 969 2509 
Q 915 2586 794 2586 
Q 717 2586 544 2541 
L 429 2509 
L 410 2611 
L 480 2637 
Q 992 2822 1229 2822 
Q 1350 2822 1420 2707 
Q 1491 2592 1555 2272 
z
" transform="scale(0.015625)"/>
       </defs>
       <use xlink:href="#STIXGeneral-Italic-3b5" transform="translate(0 0.90625)"/>
       <use xlink:href="#STIXGeneral-Italic-6d" transform="translate(44.399994 -12.321875) scale(0.7)"/>
       <use xlink:href="#STIXGeneral-Italic-61" transform="translate(94.939981 -12.321875) scale(0.7)"/>
       <use xlink:href="#STIXGeneral-Italic-78" transform="translate(130.009975 -12.321875) scale(0.7)"/>
      </g>
     </g>
    </g>
    <g id="text_9">
     <!-- $E$, кВ/м$^2$ -->
     <g transform="translate(378.92 335.24025) scale(0.1 -0.1)">
      <defs>
       <path id="STIXGeneral-Italic-45" d="M 4058 4179 
L 3859 3194 
L 3718 3206 
Q 3738 3366 3738 3501 
Q 3738 3789 3501 3878 
Q 3264 3968 2509 3968 
Q 2240 3968 2157 3939 
Q 2074 3910 2042 3802 
L 1619 2310 
L 2118 2310 
Q 2541 2310 2681 2412 
Q 2822 2515 3008 2931 
L 3123 2906 
L 2688 1421 
L 2560 1453 
Q 2605 1651 2605 1786 
Q 2605 1939 2560 1984 
Q 2451 2080 2061 2080 
L 1562 2080 
L 1357 1363 
Q 1126 550 1126 429 
Q 1126 211 1632 211 
Q 2458 211 2931 461 
Q 3174 589 3533 1088 
L 3635 1037 
L 3238 0 
L -6 0 
L -6 102 
Q 269 154 352 227 
Q 435 301 512 576 
L 1299 3405 
Q 1370 3642 1370 3814 
Q 1370 3942 1270 3996 
Q 1171 4051 877 4077 
L 877 4179 
L 4058 4179 
z
" transform="scale(0.015625)"/>
       <path id="Times-Roman-2c" d="M 1569 66 
Q 1569 -250 1341 -522 
Q 1113 -794 850 -913 
L 791 -788 
Q 1091 -619 1205 -422 
Q 1319 -225 1319 -94 
Q 1319 -50 1291 -37 
Q 1263 -25 1231 -25 
L 1022 -47 
Q 891 -47 781 39 
Q 672 125 672 288 
Q 672 413 762 531 
Q 853 650 1059 650 
Q 1256 650 1412 495 
Q 1569 341 1569 66 
z
" transform="scale(0.015625)"/>
       <path id="Times-Roman-20" transform="scale(0.015625)"/>
       <path id="Times-Roman-43a" d="M 63 91 
Q 306 94 388 153 
Q 488 225 488 447 
L 488 2419 
Q 488 2644 388 2716 
Q 309 2772 63 2778 
L 63 2869 
L 1447 2869 
L 1447 2778 
Q 1294 2775 1219 2756 
Q 1088 2722 1050 2625 
Q 1025 2559 1025 2419 
L 1025 1453 
Q 1053 1463 1069 1472 
Q 1163 1522 1544 1919 
L 1772 2156 
Q 2181 2581 2181 2638 
Q 2181 2778 1825 2778 
L 1825 2869 
L 3053 2869 
L 3053 2778 
Q 2863 2769 2766 2731 
Q 2625 2678 2303 2369 
L 1528 1625 
L 2759 325 
Q 2891 188 2956 147 
Q 3050 91 3194 91 
L 3194 0 
L 1813 0 
L 1813 91 
L 1959 103 
Q 2125 119 2125 159 
Q 2125 181 2053 275 
Q 1653 794 1119 1300 
Q 1081 1338 1025 1363 
L 1025 447 
Q 1025 191 1156 131 
Q 1241 94 1447 91 
L 1447 0 
L 63 0 
L 63 91 
z
" transform="scale(0.015625)"/>
       <path id="Times-Roman-412" d="M 128 122 
Q 744 141 744 513 
L 744 3725 
Q 744 4097 128 4116 
L 128 4238 
L 1844 4238 
Q 3597 4238 3597 3163 
Q 3597 2722 3291 2472 
Q 3109 2325 2747 2228 
Q 3103 2138 3303 2016 
Q 3816 1709 3816 1153 
Q 3816 534 3259 234 
Q 2822 0 2144 0 
L 128 0 
L 128 122 
z
M 1394 2088 
L 1394 575 
Q 1394 344 1569 275 
Q 1669 238 1953 238 
Q 3078 238 3078 1166 
Q 3078 2088 1716 2088 
L 1394 2088 
z
M 1394 2344 
L 1919 2344 
Q 2944 2344 2944 3138 
Q 2944 3584 2600 3809 
Q 2309 4000 1838 4000 
Q 1394 4000 1394 3794 
L 1394 2344 
z
" transform="scale(0.015625)"/>
       <path id="Times-Roman-2f" d="M 1434 4325 
L 1747 4325 
L 331 -106 
L 13 -106 
L 1434 4325 
z
" transform="scale(0.015625)"/>
       <path id="Times-Roman-43c" d="M 63 91 
Q 306 94 388 153 
Q 488 225 488 447 
L 488 2419 
Q 488 2644 388 2716 
Q 309 2772 63 2778 
L 63 2869 
L 959 2869 
L 1978 769 
L 2859 2869 
L 3822 2869 
L 3822 2778 
Q 3575 2772 3494 2716 
Q 3391 2644 3391 2419 
L 3391 447 
Q 3391 222 3494 150 
Q 3575 94 3822 91 
L 3822 0 
L 2438 0 
L 2438 91 
Q 2675 94 2756 150 
Q 2859 222 2859 447 
L 2859 2316 
L 2847 2316 
L 1819 0 
L 1753 0 
L 722 2156 
L 716 2156 
L 716 447 
Q 716 225 816 153 
Q 897 94 1141 91 
L 1141 0 
L 63 0 
L 63 91 
z
" transform="scale(0.015625)"/>
       <path id="STIXGeneral-Regular-32" d="M 3034 877 
L 2688 0 
L 186 0 
L 186 77 
L 1325 1286 
Q 1773 1754 1965 2144 
Q 2157 2534 2157 2950 
Q 2157 3379 1920 3616 
Q 1683 3853 1267 3853 
Q 922 3853 720 3673 
Q 518 3494 326 3021 
L 192 3053 
Q 301 3648 630 3987 
Q 960 4326 1523 4326 
Q 2054 4326 2380 4006 
Q 2707 3686 2707 3200 
Q 2707 2477 1888 1613 
L 832 486 
L 2330 486 
Q 2541 486 2665 569 
Q 2790 653 2944 915 
L 3034 877 
z
" transform="scale(0.015625)"/>
      </defs>
      <use xlink:href="#STIXGeneral-Italic-45" transform="translate(0 0.409375)"/>
      <use xlink:href="#Times-Roman-2c" transform="translate(61.099991 0.409375)"/>
      <use xlink:href="#Times-Roman-20" transform="translate(86.099991 0.409375)"/>
      <use xlink:href="#Times-Roman-43a" transform="translate(111.099991 0.409375)"/>
      <use xlink:href="#Times-Roman-412" transform="translate(161.099991 0.409375)"/>
      <use xlink:href="#Times-Roman-2f" transform="translate(227.79921 0.409375)"/>
      <use xlink:href="#Times-Roman-43c" transform="translate(255.582413 0.409375)"/>
      <use xlink:href="#STIXGeneral-Regular-32" transform="translate(317.819053 35.684375) scale(0.7)"/>
     </g>
    </g>
   </g>
   <g id="matplotlib.axis_2">
    <g id="ytick_1">
     <g id="line2d_17">
      <path d="M 57.6 300.550475 
L 414.72 300.550475 
" clip-path="url(#p5abd90eae6)" style="fill: none; stroke: #b0b0b0; stroke-width: 0.8; stroke-linecap: square"/>
     </g>
     <g id="line2d_18">
      <defs>
       <path id="mce9c218cb5" d="M 0 0 
L -3.5 0 
" style="stroke: #000000; stroke-width: 0.8"/>
      </defs>
      <g>
       <use xlink:href="#mce9c218cb5" x="57.6" y="300.550475" style="stroke: #000000; stroke-width: 0.8"/>
      </g>
     </g>
     <g id="text_10">
      <!-- 2000 -->
      <g transform="translate(30.6 303.9786) scale(0.1 -0.1)">
       <use xlink:href="#Times-Roman-32"/>
       <use xlink:href="#Times-Roman-30" x="50"/>
       <use xlink:href="#Times-Roman-30" x="100"/>
       <use xlink:href="#Times-Roman-30" x="150"/>
      </g>
     </g>
    </g>
    <g id="ytick_2">
     <g id="line2d_19">
      <path d="M 57.6 262.472305 
L 414.72 262.472305 
" clip-path="url(#p5abd90eae6)" style="fill: none; stroke: #b0b0b0; stroke-width: 0.8; stroke-linecap: square"/>
     </g>
     <g id="line2d_20">
      <g>
       <use xlink:href="#mce9c218cb5" x="57.6" y="262.472305" style="stroke: #000000; stroke-width: 0.8"/>
      </g>
     </g>
     <g id="text_11">
      <!-- 4000 -->
      <g transform="translate(30.6 265.90043) scale(0.1 -0.1)">
       <defs>
        <path id="Times-Roman-34" d="M 1866 3650 
L 331 1481 
L 1866 1481 
L 1866 3650 
z
M 2072 4294 
L 2369 4294 
L 2369 1481 
L 3022 1481 
L 3022 1066 
L 2369 1066 
L 2369 0 
L 1872 0 
L 1872 1066 
L 72 1066 
L 72 1481 
L 2072 4294 
z
" transform="scale(0.015625)"/>
       </defs>
       <use xlink:href="#Times-Roman-34"/>
       <use xlink:href="#Times-Roman-30" x="50"/>
       <use xlink:href="#Times-Roman-30" x="100"/>
       <use xlink:href="#Times-Roman-30" x="150"/>
      </g>
     </g>
    </g>
    <g id="ytick_3">
     <g id="line2d_21">
      <path d="M 57.6 224.394136 
L 414.72 224.394136 
" clip-path="url(#p5abd90eae6)" style="fill: none; stroke: #b0b0b0; stroke-width: 0.8; stroke-linecap: square"/>
     </g>
     <g id="line2d_22">
      <g>
       <use xlink:href="#mce9c218cb5" x="57.6" y="224.394136" style="stroke: #000000; stroke-width: 0.8"/>
      </g>
     </g>
     <g id="text_12">
      <!-- 6000 -->
      <g transform="translate(30.6 227.822261) scale(0.1 -0.1)">
       <defs>
        <path id="Times-Roman-36" d="M 2994 1422 
Q 2994 850 2626 390 
Q 2259 -69 1672 -69 
Q 1122 -69 670 447 
Q 219 963 219 1819 
Q 219 2922 1094 3713 
Q 1875 4375 2850 4375 
L 2866 4272 
Q 2475 4200 2192 4076 
Q 1909 3953 1688 3731 
Q 1459 3506 1259 3159 
Q 1059 2813 984 2472 
Q 1178 2591 1319 2647 
Q 1569 2747 1822 2747 
Q 2319 2747 2656 2403 
Q 2994 2059 2994 1422 
z
M 2422 1181 
Q 2422 1597 2291 1919 
Q 2072 2456 1547 2456 
Q 1063 2456 903 2169 
Q 809 2000 809 1606 
Q 809 1097 1026 609 
Q 1244 122 1713 122 
Q 2084 122 2253 439 
Q 2422 756 2422 1181 
z
" transform="scale(0.015625)"/>
       </defs>
       <use xlink:href="#Times-Roman-36"/>
       <use xlink:href="#Times-Roman-30" x="50"/>
       <use xlink:href="#Times-Roman-30" x="100"/>
       <use xlink:href="#Times-Roman-30" x="150"/>
      </g>
     </g>
    </g>
    <g id="ytick_4">
     <g id="line2d_23">
      <path d="M 57.6 186.315966 
L 414.72 186.315966 
" clip-path="url(#p5abd90eae6)" style="fill: none; stroke: #b0b0b0; stroke-width: 0.8; stroke-linecap: square"/>
     </g>
     <g id="line2d_24">
      <g>
       <use xlink:href="#mce9c218cb5" x="57.6" y="186.315966" style="stroke: #000000; stroke-width: 0.8"/>
      </g>
     </g>
     <g id="text_13">
      <!-- 8000 -->
      <g transform="translate(30.6 189.744091) scale(0.1 -0.1)">
       <defs>
        <path id="Times-Roman-38" d="M 1609 106 
Q 1969 106 2153 306 
Q 2338 506 2338 806 
Q 2338 1147 2142 1358 
Q 1947 1569 1341 1997 
Q 1072 1828 950 1559 
Q 828 1291 828 1041 
Q 828 613 1048 359 
Q 1269 106 1609 106 
z
M 1650 2494 
Q 1944 2700 2056 2841 
Q 2250 3081 2250 3422 
Q 2250 3719 2067 3926 
Q 1884 4134 1513 4134 
Q 1225 4134 1037 3953 
Q 850 3772 850 3513 
Q 850 3219 1070 2967 
Q 1291 2716 1650 2494 
z
M 1169 2131 
Q 756 2463 606 2659 
Q 375 2959 375 3322 
Q 375 3734 717 4021 
Q 1059 4309 1606 4309 
Q 2109 4309 2406 4037 
Q 2703 3766 2703 3406 
Q 2703 3041 2400 2750 
Q 2225 2584 1834 2369 
Q 2366 1975 2595 1683 
Q 2825 1391 2825 994 
Q 2825 544 2486 237 
Q 2147 -69 1578 -69 
Q 1069 -69 705 214 
Q 341 497 341 959 
Q 341 1356 594 1659 
Q 759 1856 1169 2131 
z
" transform="scale(0.015625)"/>
       </defs>
       <use xlink:href="#Times-Roman-38"/>
       <use xlink:href="#Times-Roman-30" x="50"/>
       <use xlink:href="#Times-Roman-30" x="100"/>
       <use xlink:href="#Times-Roman-30" x="150"/>
      </g>
     </g>
    </g>
    <g id="ytick_5">
     <g id="line2d_25">
      <path d="M 57.6 148.237796 
L 414.72 148.237796 
" clip-path="url(#p5abd90eae6)" style="fill: none; stroke: #b0b0b0; stroke-width: 0.8; stroke-linecap: square"/>
     </g>
     <g id="line2d_26">
      <g>
       <use xlink:href="#mce9c218cb5" x="57.6" y="148.237796" style="stroke: #000000; stroke-width: 0.8"/>
      </g>
     </g>
     <g id="text_14">
      <!-- 10000 -->
      <g transform="translate(25.6 151.665921) scale(0.1 -0.1)">
       <use xlink:href="#Times-Roman-31"/>
       <use xlink:href="#Times-Roman-30" x="50"/>
       <use xlink:href="#Times-Roman-30" x="100"/>
       <use xlink:href="#Times-Roman-30" x="150"/>
       <use xlink:href="#Times-Roman-30" x="200"/>
      </g>
     </g>
    </g>
    <g id="ytick_6">
     <g id="line2d_27">
      <path d="M 57.6 110.159626 
L 414.72 110.159626 
" clip-path="url(#p5abd90eae6)" style="fill: none; stroke: #b0b0b0; stroke-width: 0.8; stroke-linecap: square"/>
     </g>
     <g id="line2d_28">
      <g>
       <use xlink:href="#mce9c218cb5" x="57.6" y="110.159626" style="stroke: #000000; stroke-width: 0.8"/>
      </g>
     </g>
     <g id="text_15">
      <!-- 12000 -->
      <g transform="translate(25.6 113.587751) scale(0.1 -0.1)">
       <use xlink:href="#Times-Roman-31"/>
       <use xlink:href="#Times-Roman-32" x="50"/>
       <use xlink:href="#Times-Roman-30" x="100"/>
       <use xlink:href="#Times-Roman-30" x="150"/>
       <use xlink:href="#Times-Roman-30" x="200"/>
      </g>
     </g>
    </g>
    <g id="ytick_7">
     <g id="line2d_29">
      <path d="M 57.6 72.081457 
L 414.72 72.081457 
" clip-path="url(#p5abd90eae6)" style="fill: none; stroke: #b0b0b0; stroke-width: 0.8; stroke-linecap: square"/>
     </g>
     <g id="line2d_30">
      <g>
       <use xlink:href="#mce9c218cb5" x="57.6" y="72.081457" style="stroke: #000000; stroke-width: 0.8"/>
      </g>
     </g>
     <g id="text_16">
      <!-- 14000 -->
      <g transform="translate(25.6 75.509582) scale(0.1 -0.1)">
       <use xlink:href="#Times-Roman-31"/>
       <use xlink:href="#Times-Roman-34" x="50"/>
       <use xlink:href="#Times-Roman-30" x="100"/>
       <use xlink:href="#Times-Roman-30" x="150"/>
       <use xlink:href="#Times-Roman-30" x="200"/>
      </g>
     </g>
    </g>
    <g id="text_17">
     <!-- $\varepsilon$ -->
     <g transform="translate(41.1 39.293875) scale(0.1 -0.1)">
      <use xlink:href="#STIXGeneral-Italic-3b5" transform="translate(0 0.90625)"/>
     </g>
    </g>
   </g>
   <g id="line2d_31">
    <path d="M 398.487273 99.707366 
L 362.414545 110.567424 
L 326.341818 87.295871 
L 290.269091 88.847308 
L 246.981818 126.857511 
L 208.504242 143.147599 
L 170.026667 201.791912 
L 160.407273 219.168005 
L 124.334545 189.690705 
L 136.358788 252.165874 
L 124.334545 264.159675 
L 112.310303 272.653792 
L 100.286061 283.538532 
L 88.742788 291.334843 
L 77.319758 295.488 
" clip-path="url(#p5abd90eae6)" style="fill: none; stroke: #000000; stroke-width: 1.5; stroke-linecap: square"/>
   </g>
   <g id="line2d_32">
    <path d="M 398.487273 53.568 
L 362.414545 78.674174 
L 326.341818 103.780349 
L 290.269091 128.886523 
L 246.981818 159.013932 
L 208.504242 185.793852 
L 170.026667 212.573771 
L 160.407273 219.268751 
L 124.334545 244.374925 
L 136.358788 236.0062 
L 124.334545 244.374925 
L 112.310303 252.74365 
L 100.286061 261.112375 
L 88.742788 269.146351 
L 77.319758 277.096639 
" clip-path="url(#p5abd90eae6)" style="fill: none; stroke-dasharray: 5.55,2.4; stroke-dashoffset: 0; stroke: #808080; stroke-width: 1.5"/>
   </g>
   <g id="line2d_33">
    <path d="M 326.341818 307.584 
L 326.341818 41.472 
" clip-path="url(#p5abd90eae6)" style="fill: none; stroke-dasharray: 3.7,1.6; stroke-dashoffset: 0; stroke: #808080"/>
   </g>
   <g id="patch_3">
    <path d="M 57.6 307.584 
L 57.6 41.472 
" style="fill: none; stroke: #000000; stroke-width: 0.8; stroke-linejoin: miter; stroke-linecap: square"/>
   </g>
   <g id="patch_4">
    <path d="M 414.72 307.584 
L 414.72 41.472 
" style="fill: none; stroke: #000000; stroke-width: 0.8; stroke-linejoin: miter; stroke-linecap: square"/>
   </g>
   <g id="patch_5">
    <path d="M 57.6 307.584 
L 414.72 307.584 
" style="fill: none; stroke: #000000; stroke-width: 0.8; stroke-linejoin: miter; stroke-linecap: square"/>
   </g>
   <g id="patch_6">
    <path d="M 57.6 41.472 
L 414.72 41.472 
" style="fill: none; stroke: #000000; stroke-width: 0.8; stroke-linejoin: miter; stroke-linecap: square"/>
   </g>
   <g id="legend_1">
    <g id="patch_7">
     <path d="M 64.6 92.006375 
L 163.6625 92.006375 
Q 165.6625 92.006375 165.6625 90.006375 
L 165.6625 48.472 
Q 165.6625 46.472 163.6625 46.472 
L 64.6 46.472 
Q 62.6 46.472 62.6 48.472 
L 62.6 90.006375 
Q 62.6 92.006375 64.6 92.006375 
z
" style="fill: #ffffff; opacity: 0.8; stroke: #cccccc; stroke-linejoin: miter"/>
    </g>
    <g id="line2d_34">
     <path d="M 66.6 53.972 
L 76.6 53.972 
L 86.6 53.972 
" style="fill: none; stroke: #000000; stroke-width: 1.5; stroke-linecap: square"/>
    </g>
    <g id="text_18">
     <!-- Эксперимент -->
     <g transform="translate(94.6 57.472) scale(0.1 -0.1)">
      <defs>
       <path id="Times-Roman-42d" d="M 3316 2059 
L 1503 2059 
L 1503 2369 
L 3306 2369 
Q 3256 3103 2913 3550 
Q 2519 4063 1819 4063 
Q 1169 4063 775 3597 
Q 578 3363 422 2881 
L 269 2881 
L 325 4319 
L 459 4319 
Q 563 4091 703 4091 
Q 831 4091 1038 4166 
Q 1475 4325 1888 4325 
Q 2850 4325 3453 3692 
Q 4056 3059 4056 2094 
Q 4056 1128 3461 518 
Q 2866 -91 1900 -91 
Q 934 -91 191 709 
L 300 838 
Q 663 500 963 359 
Q 1313 197 1759 197 
Q 2522 197 2934 766 
Q 3297 1263 3316 2059 
z
" transform="scale(0.015625)"/>
       <path id="Times-Roman-441" d="M 2638 953 
Q 2403 484 2163 256 
Q 1828 -63 1369 -63 
Q 806 -63 469 391 
Q 159 800 159 1381 
Q 159 2044 528 2475 
Q 916 2931 1569 2931 
Q 1906 2931 2191 2791 
Q 2547 2613 2547 2309 
Q 2547 2194 2461 2108 
Q 2375 2022 2259 2022 
Q 2147 2022 2062 2106 
Q 1978 2191 1972 2303 
Q 1947 2747 1484 2747 
Q 1075 2747 847 2378 
Q 653 2066 653 1631 
Q 653 1147 897 791 
Q 1175 384 1638 384 
Q 1934 384 2169 569 
Q 2347 709 2547 1006 
L 2638 953 
z
" transform="scale(0.015625)"/>
       <path id="Times-Roman-43f" d="M 63 91 
Q 306 94 388 153 
Q 488 225 488 447 
L 488 2419 
Q 488 2644 388 2716 
Q 309 2772 63 2778 
L 63 2869 
L 3138 2869 
L 3138 2778 
Q 2891 2772 2813 2716 
Q 2713 2644 2713 2419 
L 2713 447 
Q 2713 219 2819 147 
Q 2897 94 3138 91 
L 3138 0 
L 1784 0 
L 1784 91 
Q 2081 97 2141 222 
Q 2175 294 2175 447 
L 2175 2278 
Q 2175 2681 1813 2681 
L 1388 2681 
Q 1025 2681 1025 2278 
L 1025 447 
Q 1025 231 1106 162 
Q 1188 94 1416 91 
L 1416 0 
L 63 0 
L 63 91 
z
" transform="scale(0.015625)"/>
       <path id="Times-Roman-435" d="M 581 1766 
Q 616 1306 738 1025 
Q 1022 366 1613 366 
Q 1931 366 2234 616 
Q 2425 772 2591 1050 
L 2694 1013 
Q 2525 603 2322 384 
Q 1903 -63 1356 -63 
Q 788 -63 447 394 
Q 141 806 141 1394 
Q 141 2028 469 2459 
Q 831 2931 1447 2931 
Q 2169 2931 2456 2291 
Q 2550 2081 2572 1766 
L 581 1766 
z
M 1919 1972 
Q 1853 2706 1300 2706 
Q 731 2706 603 1972 
L 1919 1972 
z
" transform="scale(0.015625)"/>
       <path id="Times-Roman-440" d="M 13 -1300 
Q 269 -1278 363 -1206 
Q 481 -1116 481 -878 
L 481 2094 
Q 481 2347 459 2406 
Q 409 2541 206 2541 
L 13 2541 
L 13 2631 
L 1025 2931 
L 1025 2456 
Q 1391 2931 1947 2931 
Q 2478 2931 2766 2506 
Q 3009 2141 3009 1581 
Q 3009 941 2656 463 
Q 2269 -63 1650 -63 
Q 1303 -63 1025 225 
L 1025 -878 
Q 1025 -1128 1172 -1219 
Q 1269 -1278 1556 -1300 
L 1556 -1388 
L 13 -1388 
L 13 -1300 
z
M 1025 653 
Q 1025 431 1247 278 
Q 1447 141 1678 141 
Q 2078 141 2291 563 
Q 2456 894 2456 1338 
Q 2456 1813 2297 2141 
Q 2088 2572 1663 2572 
Q 1394 2572 1147 2363 
Q 1059 2288 1042 2242 
Q 1025 2197 1025 2075 
L 1025 653 
z
" transform="scale(0.015625)"/>
       <path id="Times-Roman-438" d="M 63 91 
Q 306 94 388 153 
Q 488 225 488 447 
L 488 2419 
Q 488 2644 388 2716 
Q 309 2772 63 2778 
L 63 2869 
L 1447 2869 
L 1447 2778 
Q 1200 2772 1122 2716 
Q 1025 2647 1025 2419 
L 1025 738 
L 1038 738 
L 2266 2472 
Q 2259 2716 2078 2756 
Q 1994 2775 1844 2778 
L 1844 2869 
L 3225 2869 
L 3225 2778 
Q 2981 2772 2903 2716 
Q 2803 2644 2803 2419 
L 2803 447 
Q 2803 219 2906 147 
Q 2984 94 3225 91 
L 3225 0 
L 1844 0 
L 1844 91 
Q 2084 94 2166 153 
Q 2266 228 2266 447 
L 2266 2131 
L 2253 2131 
L 1025 397 
Q 1031 147 1213 109 
Q 1284 94 1447 91 
L 1447 0 
L 63 0 
L 63 91 
z
" transform="scale(0.015625)"/>
       <path id="Times-Roman-43d" d="M 63 91 
Q 306 94 388 153 
Q 488 225 488 447 
L 488 2419 
Q 488 2644 388 2716 
Q 309 2772 63 2778 
L 63 2869 
L 1416 2869 
L 1416 2778 
Q 1119 2772 1059 2647 
Q 1025 2575 1025 2419 
L 1025 1588 
L 2175 1588 
L 2175 2419 
Q 2175 2638 2091 2709 
Q 2016 2772 1784 2778 
L 1784 2869 
L 3138 2869 
L 3138 2778 
Q 2891 2772 2813 2716 
Q 2713 2644 2713 2419 
L 2713 447 
Q 2713 219 2819 147 
Q 2897 94 3138 91 
L 3138 0 
L 1784 0 
L 1784 91 
Q 2081 97 2141 222 
Q 2175 294 2175 447 
L 2175 1363 
L 1025 1363 
L 1025 447 
Q 1025 231 1106 162 
Q 1188 94 1416 91 
L 1416 0 
L 63 0 
L 63 91 
z
" transform="scale(0.015625)"/>
       <path id="Times-Roman-442" d="M 728 91 
Q 991 94 1075 141 
Q 1203 213 1203 447 
L 1203 2559 
Q 1203 2694 1038 2694 
Q 338 2694 231 1875 
L 84 1875 
L 134 2869 
L 2809 2869 
L 2859 1875 
L 2713 1875 
Q 2609 2694 1900 2694 
Q 1741 2694 1741 2559 
L 1741 447 
Q 1741 213 1869 141 
Q 1953 94 2216 91 
L 2216 0 
L 728 0 
L 728 91 
z
" transform="scale(0.015625)"/>
      </defs>
      <use xlink:href="#Times-Roman-42d"/>
      <use xlink:href="#Times-Roman-43a" x="66.699219"/>
      <use xlink:href="#Times-Roman-441" x="116.699219"/>
      <use xlink:href="#Times-Roman-43f" x="161.083984"/>
      <use xlink:href="#Times-Roman-435" x="211.083984"/>
      <use xlink:href="#Times-Roman-440" x="255.46875"/>
      <use xlink:href="#Times-Roman-438" x="305.46875"/>
      <use xlink:href="#Times-Roman-43c" x="356.884766"/>
      <use xlink:href="#Times-Roman-435" x="417.578125"/>
      <use xlink:href="#Times-Roman-43d" x="461.962891"/>
      <use xlink:href="#Times-Roman-442" x="511.962891"/>
     </g>
    </g>
    <g id="line2d_35">
     <path d="M 66.6 68.150125 
L 76.6 68.150125 
L 86.6 68.150125 
" style="fill: none; stroke-dasharray: 5.55,2.4; stroke-dashoffset: 0; stroke: #808080; stroke-width: 1.5"/>
    </g>
    <g id="text_19">
     <!-- Аппроксимация -->
     <g transform="translate(94.6 71.650125) scale(0.1 -0.1)">
      <defs>
       <path id="Times-Roman-410" d="M 2350 4325 
L 3909 750 
Q 4047 431 4125 331 
Q 4278 128 4519 122 
L 4519 0 
L 2888 0 
L 2888 122 
Q 3341 147 3341 331 
Q 3341 463 3181 838 
L 2950 1381 
L 1275 1381 
Q 1216 1225 1159 1094 
Q 928 550 928 384 
Q 928 131 1363 122 
L 1363 0 
L 97 0 
L 97 122 
Q 313 163 428 288 
Q 597 469 922 1241 
L 2222 4325 
L 2350 4325 
z
M 1381 1644 
L 2859 1644 
L 2119 3406 
L 1381 1644 
z
" transform="scale(0.015625)"/>
       <path id="Times-Roman-43e" d="M 3009 1550 
Q 3009 881 2634 425 
Q 2234 -63 1581 -63 
Q 959 -63 569 378 
Q 191 800 191 1428 
Q 191 2075 559 2494 
Q 944 2931 1581 2931 
Q 2197 2931 2600 2550 
Q 3009 2159 3009 1550 
z
M 2419 1216 
Q 2419 1778 2234 2191 
Q 1991 2741 1497 2741 
Q 1106 2741 922 2384 
Q 781 2109 781 1678 
Q 781 1122 959 697 
Q 1200 128 1684 128 
Q 2066 128 2263 500 
Q 2419 797 2419 1216 
z
" transform="scale(0.015625)"/>
       <path id="Times-Roman-430" d="M 1813 1863 
Q 1803 2363 1734 2559 
Q 1656 2784 1356 2784 
Q 909 2784 909 2503 
Q 909 2459 915 2371 
Q 922 2284 922 2241 
Q 922 2122 834 2037 
Q 747 1953 628 1953 
Q 353 1953 353 2209 
Q 353 2572 744 2772 
Q 1056 2931 1453 2931 
Q 1988 2931 2188 2647 
Q 2356 2406 2356 1844 
L 2356 494 
Q 2356 294 2497 294 
Q 2603 294 2828 441 
L 2828 275 
Q 2519 -63 2278 -63 
Q 1872 -63 1844 422 
Q 1553 178 1381 84 
Q 1113 -63 897 -63 
Q 619 -63 428 135 
Q 238 334 238 616 
Q 238 1050 709 1369 
Q 975 1550 1563 1766 
Q 1663 1803 1813 1863 
z
M 1813 1691 
Q 1759 1669 1606 1613 
Q 1150 1450 991 1300 
Q 800 1122 800 838 
Q 800 625 903 478 
Q 1019 313 1222 313 
Q 1369 313 1550 395 
Q 1731 478 1813 594 
L 1813 1691 
z
" transform="scale(0.015625)"/>
       <path id="Times-Roman-446" d="M 63 91 
Q 306 94 388 153 
Q 488 225 488 447 
L 488 2419 
Q 488 2644 388 2716 
Q 309 2772 63 2778 
L 63 2869 
L 1416 2869 
L 1416 2778 
Q 1119 2772 1059 2647 
Q 1025 2575 1025 2419 
L 1025 581 
Q 1025 184 1388 184 
L 1813 184 
Q 2175 184 2175 581 
L 2175 2419 
Q 2175 2634 2084 2709 
Q 2003 2772 1778 2778 
L 1778 2869 
L 3138 2869 
L 3138 2778 
Q 2981 2775 2909 2756 
Q 2781 2722 2741 2622 
Q 2713 2550 2713 2419 
L 2713 481 
Q 2713 256 2828 181 
Q 2916 125 3163 122 
L 3163 -953 
L 3009 -953 
L 2859 -488 
Q 2763 -188 2716 -128 
Q 2616 0 2381 0 
L 63 0 
L 63 91 
z
" transform="scale(0.015625)"/>
       <path id="Times-Roman-44f" d="M 1925 1369 
L 1759 1369 
L 722 0 
L 25 0 
L 25 78 
Q 194 106 313 263 
L 1166 1388 
Q 844 1438 672 1528 
Q 313 1716 313 2106 
Q 313 2869 1428 2869 
L 2888 2869 
L 2888 2778 
Q 2641 2772 2563 2716 
Q 2463 2644 2463 2419 
L 2463 447 
Q 2463 225 2563 153 
Q 2644 94 2888 91 
L 2888 0 
L 1538 0 
L 1538 91 
Q 1831 97 1891 222 
Q 1925 294 1925 447 
L 1925 1369 
z
M 1925 1569 
L 1925 2584 
Q 1925 2681 1631 2681 
Q 897 2681 897 2156 
Q 897 1556 1656 1556 
Q 1672 1556 1925 1569 
z
" transform="scale(0.015625)"/>
      </defs>
      <use xlink:href="#Times-Roman-410"/>
      <use xlink:href="#Times-Roman-43f" x="72.216797"/>
      <use xlink:href="#Times-Roman-43f" x="122.216797"/>
      <use xlink:href="#Times-Roman-440" x="172.216797"/>
      <use xlink:href="#Times-Roman-43e" x="222.216797"/>
      <use xlink:href="#Times-Roman-43a" x="272.216797"/>
      <use xlink:href="#Times-Roman-441" x="322.216797"/>
      <use xlink:href="#Times-Roman-438" x="366.601562"/>
      <use xlink:href="#Times-Roman-43c" x="418.017578"/>
      <use xlink:href="#Times-Roman-430" x="478.710938"/>
      <use xlink:href="#Times-Roman-446" x="523.095703"/>
      <use xlink:href="#Times-Roman-438" x="573.095703"/>
      <use xlink:href="#Times-Roman-44f" x="624.511719"/>
     </g>
    </g>
    <g id="PathCollection_2">
     <g>
      <use xlink:href="#md7731be058" x="76.6" y="83.20325" style="stroke: #000000"/>
     </g>
    </g>
    <g id="text_20">
     <!-- $\varepsilon_{нач}$ -->
     <g transform="translate(94.6 85.82825) scale(0.1 -0.1)">
      <defs>
       <path id="STIXGeneral-Italic-43d" d="M 2931 749 
L 3021 666 
Q 2694 218 2521 80 
Q 2349 -58 2125 -58 
Q 1997 -58 1910 28 
Q 1824 115 1824 288 
Q 1824 390 1926 768 
L 2080 1350 
L 966 1350 
L 595 0 
L 128 0 
L 723 2240 
Q 736 2304 736 2387 
Q 736 2483 649 2518 
Q 563 2554 320 2560 
L 320 2656 
Q 826 2714 1350 2822 
L 1376 2810 
L 1005 1491 
L 2112 1491 
L 2458 2765 
L 2925 2765 
L 2394 749 
Q 2304 390 2304 358 
Q 2304 243 2406 243 
Q 2528 243 2797 582 
Q 2842 634 2931 749 
z
" transform="scale(0.015625)"/>
       <path id="STIXGeneral-Italic-430" d="M 3002 710 
L 3085 640 
Q 2726 205 2556 70 
Q 2387 -64 2195 -64 
Q 1939 -64 1939 198 
Q 1939 358 2086 934 
Q 1728 397 1427 163 
Q 1126 -70 787 -70 
Q 506 -70 326 125 
Q 147 320 147 672 
Q 147 1101 364 1545 
Q 582 1990 934 2323 
Q 1466 2822 1978 2822 
Q 2406 2822 2490 2451 
L 2560 2758 
L 2579 2778 
L 2970 2822 
L 3014 2803 
Q 3008 2778 2976 2669 
Q 2406 595 2406 346 
Q 2406 262 2496 262 
Q 2592 262 2829 525 
L 3002 710 
z
M 2374 2310 
Q 2374 2477 2278 2579 
Q 2182 2682 2016 2682 
Q 1581 2682 1178 2093 
Q 966 1779 825 1395 
Q 685 1011 685 717 
Q 685 243 1069 243 
Q 1446 243 1882 870 
Q 2374 1581 2374 2310 
z
" transform="scale(0.015625)"/>
       <path id="STIXGeneral-Italic-447" d="M 2790 781 
L 2880 723 
Q 2573 256 2387 99 
Q 2202 -58 1971 -58 
Q 1670 -58 1670 250 
Q 1670 339 1811 890 
L 1894 1210 
Q 1453 1005 1101 1005 
Q 435 1005 435 1466 
Q 435 1568 614 2221 
Q 659 2381 659 2406 
Q 659 2483 588 2521 
Q 518 2560 269 2560 
L 269 2656 
Q 691 2701 1229 2822 
L 1254 2803 
L 954 1702 
Q 928 1600 928 1485 
Q 928 1338 1014 1267 
Q 1101 1197 1318 1197 
Q 1600 1197 1939 1376 
L 2317 2765 
L 2790 2765 
L 2285 851 
Q 2163 384 2163 352 
Q 2163 243 2234 243 
Q 2381 243 2790 781 
z
" transform="scale(0.015625)"/>
      </defs>
      <use xlink:href="#STIXGeneral-Italic-3b5" transform="translate(0 0.90625)"/>
      <use xlink:href="#STIXGeneral-Italic-43d" transform="translate(44.399994 -12.321875) scale(0.7)"/>
      <use xlink:href="#STIXGeneral-Italic-430" transform="translate(79.67999 -12.321875) scale(0.7)"/>
      <use xlink:href="#STIXGeneral-Italic-447" transform="translate(115.659985 -12.321875) scale(0.7)"/>
     </g>
    </g>
   </g>
  </g>
 </g>
 <defs>
  <clipPath id="p5abd90eae6">
   <rect x="57.6" y="41.472" width="357.12" height="266.112"/>
  </clipPath>
 </defs>
</svg>
